
{"glyphs":{"0":{"ha":1678,"x_min":95,"x_max":1449,"o":"m 1162 488 q 1170 504 1163 488 q 1183 532 1176 515 l 1187 543 q 1208 590 1199 567 l 1230 641 q 1227 653 1230 647 l 1226 657 q 1221 667 1223 667 q 1202 640 1217 667 q 1174 574 1187 613 q 1160 498 1160 535 q 1162 488 1160 488 m 1417 758 q 1425 780 1425 768 l 1425 781 l 1424 781 q 1422 779 1423 781 q 1421 774 1421 776 q 1417 758 1418 767 m 1374 743 q 1388 749 1385 743 q 1391 764 1391 755 q 1390 772 1391 768 l 1390 774 l 1374 743 m 871 549 q 902 575 889 555 q 924 618 916 595 q 937 660 932 641 q 941 681 941 678 l 926 659 q 896 607 912 637 q 871 549 880 576 m 128 370 q 142 393 130 370 q 182 469 169 443 l 208 519 q 207 524 208 521 q 206 532 207 527 q 203 539 205 536 q 201 544 202 543 q 200 545 201 545 q 176 516 193 544 q 144 449 159 488 q 127 376 129 410 l 128 370 m 376 669 q 424 679 400 669 q 477 718 448 688 q 498 751 490 734 q 507 781 505 768 l 510 794 l 486 779 q 430 734 462 763 q 373 669 399 706 l 376 669 m 557 437 q 563 450 559 437 q 574 480 568 462 q 586 518 580 498 q 596 552 591 537 q 604 572 602 567 q 601 590 603 583 q 596 597 600 596 l 593 597 q 573 563 583 589 q 556 506 563 536 q 550 456 550 476 q 557 437 550 438 m 1318 649 l 1319 648 l 1319 648 l 1318 649 m 1318 649 l 1317 649 q 1305 661 1310 652 q 1303 675 1303 666 q 1314 709 1303 684 q 1329 747 1322 730 l 1339 768 l 1336 764 q 1328 751 1333 759 q 1323 745 1325 748 q 1318 738 1320 741 q 1309 728 1316 735 q 1302 725 1305 725 q 1298 730 1299 728 q 1296 734 1297 733 q 1293 738 1295 737 q 1296 747 1293 741 q 1272 725 1280 725 q 1269 726 1271 725 q 1267 729 1267 728 q 1266 732 1267 731 l 1266 733 l 1265 733 l 1265 734 l 1264 735 q 1259 753 1259 737 q 1264 774 1259 761 q 1274 799 1270 787 q 1285 832 1278 812 q 1272 829 1278 830 q 1261 824 1265 827 q 1256 819 1257 821 q 1253 815 1254 817 q 1251 812 1252 813 q 1250 809 1251 810 q 1249 808 1249 808 q 1246 809 1249 808 q 1244 812 1244 811 l 1244 812 l 1241 816 q 1240 818 1241 817 q 1240 823 1240 819 q 1258 839 1240 833 q 1284 844 1276 844 l 1289 845 q 1293 856 1291 850 q 1297 868 1295 861 q 1314 878 1299 874 l 1322 880 q 1323 880 1322 880 q 1324 876 1324 880 q 1319 864 1322 871 q 1311 846 1316 856 q 1374 842 1359 846 q 1390 838 1379 842 q 1411 821 1411 833 q 1330 835 1386 835 l 1305 834 q 1283 780 1293 806 q 1274 748 1274 757 q 1277 747 1275 747 q 1294 759 1282 747 q 1312 780 1305 772 l 1320 789 l 1322 790 l 1325 792 l 1326 792 l 1327 794 l 1329 794 l 1332 795 q 1333 795 1333 795 l 1330 791 q 1310 749 1310 755 l 1310 748 q 1316 754 1312 748 l 1333 777 q 1357 802 1351 802 l 1360 801 l 1361 801 q 1362 800 1361 800 q 1363 800 1362 800 l 1364 800 l 1364 798 l 1358 783 l 1356 778 q 1326 705 1341 747 q 1316 658 1316 675 q 1318 649 1316 652 m 1420 732 q 1404 750 1407 732 l 1407 767 q 1423 793 1413 791 q 1423 793 1423 793 q 1424 793 1423 793 q 1427 792 1426 793 q 1430 790 1428 791 q 1432 779 1432 785 q 1428 763 1432 771 q 1415 748 1423 754 q 1416 744 1415 747 q 1418 741 1417 741 q 1425 745 1420 741 q 1434 757 1430 749 q 1438 777 1438 765 q 1436 798 1438 791 l 1434 806 q 1447 789 1444 804 l 1448 787 q 1449 774 1449 783 q 1440 745 1449 758 q 1420 732 1432 732 m 1331 652 l 1330 652 q 1328 653 1329 653 q 1326 655 1328 653 q 1324 658 1325 656 q 1322 661 1324 659 l 1322 663 q 1341 722 1322 675 q 1347 737 1344 729 q 1373 798 1371 796 l 1375 798 q 1377 797 1375 798 q 1380 797 1379 797 q 1382 795 1381 796 q 1384 793 1384 795 l 1384 791 l 1383 789 q 1357 732 1378 785 l 1392 795 q 1400 768 1400 791 q 1387 734 1400 734 q 1373 741 1376 734 q 1331 652 1339 678 m 239 245 l 237 245 q 216 250 229 245 q 192 272 203 255 q 180 323 182 288 q 182 351 180 334 q 182 358 182 357 q 189 423 186 401 l 191 437 l 167 387 q 141 340 149 350 q 129 332 137 332 q 121 338 124 332 q 104 354 117 351 q 95 380 95 357 q 111 454 95 410 q 150 532 127 498 q 198 569 174 567 q 218 543 214 567 l 232 574 q 248 600 243 600 q 260 609 252 601 q 269 614 264 614 q 269 613 269 614 q 271 613 269 613 q 273 612 272 613 q 276 602 276 609 q 259 545 275 581 q 234 472 246 513 q 221 375 221 431 q 252 247 221 301 q 239 245 248 245 m 418 282 l 408 286 q 390 308 397 292 q 380 368 380 328 q 386 437 380 402 q 398 496 391 471 l 382 451 q 360 381 361 395 l 355 382 q 343 387 350 384 q 331 394 336 390 q 322 407 325 399 q 320 430 320 416 q 331 491 320 452 q 355 565 341 531 q 377 607 368 599 l 395 605 q 405 599 405 603 l 389 562 q 366 497 377 532 q 352 439 354 463 l 364 467 q 394 532 376 495 q 427 597 411 568 q 449 625 442 625 l 450 625 q 463 620 456 623 q 465 619 464 620 q 467 617 466 618 q 468 616 467 617 q 469 616 469 616 q 469 615 469 616 q 470 614 469 615 l 456 583 q 429 502 442 552 q 413 395 415 452 l 424 431 q 451 514 435 467 q 512 647 492 633 l 527 644 q 532 643 529 644 q 538 641 534 642 q 541 637 541 639 l 541 636 l 525 584 q 486 389 486 451 q 489 360 486 367 q 498 353 492 353 q 529 362 506 353 q 619 383 588 383 q 663 372 644 383 l 665 370 q 671 364 669 366 q 673 362 673 362 q 675 360 673 361 l 674 360 l 648 358 q 519 319 588 351 l 517 318 q 514 316 516 317 q 507 315 511 315 q 477 338 490 315 l 473 340 q 470 343 472 341 q 465 349 468 345 q 452 391 452 361 q 465 467 452 412 l 476 519 l 467 495 q 447 433 458 470 q 427 357 436 396 q 417 289 417 319 l 418 282 m 441 165 q 279 243 327 165 q 245 363 245 297 q 266 503 245 434 q 319 631 286 572 q 267 633 296 633 q 165 621 208 633 q 106 574 122 608 l 103 584 q 100 605 100 593 q 168 667 100 661 q 222 670 196 670 q 291 668 260 670 q 333 666 315 666 q 339 667 336 666 q 434 782 385 738 q 518 825 483 825 q 542 800 542 825 q 537 772 542 796 q 514 718 532 749 q 355 630 470 644 q 330 566 347 612 q 286 365 286 447 q 328 256 286 302 q 434 210 371 210 q 577 233 496 210 q 745 283 658 255 q 920 337 834 313 q 1073 360 1006 360 q 1183 344 1140 360 q 1250 307 1226 328 q 1284 267 1274 286 l 1286 254 l 1269 269 q 1209 298 1251 283 q 1095 312 1166 312 q 960 299 1026 312 q 831 268 894 287 q 709 229 768 249 q 567 183 635 202 q 441 165 500 165 m 777 333 l 770 333 q 730 350 747 333 q 713 391 713 367 q 724 465 713 409 q 755 608 741 548 q 765 648 764 643 q 770 656 767 653 q 774 661 772 659 q 777 665 776 663 q 739 650 768 657 q 719 644 728 646 l 710 642 q 711 617 711 631 q 703 527 711 576 q 682 444 694 479 q 652 408 669 408 q 646 410 648 408 q 642 415 644 412 q 636 423 640 418 q 622 433 632 427 q 609 457 612 438 q 606 494 606 476 l 607 523 l 593 471 q 557 406 572 406 q 547 414 553 406 q 543 417 547 416 q 534 421 539 418 q 521 463 521 431 q 548 577 521 523 q 597 631 575 631 q 618 602 612 631 q 631 623 626 616 q 642 631 638 631 l 646 632 q 662 628 657 632 l 665 627 q 644 586 656 618 q 631 500 631 553 q 634 465 631 485 l 635 461 q 641 449 638 452 l 644 447 q 667 507 654 458 q 680 608 680 556 q 676 650 680 630 q 650 667 659 656 q 642 689 642 678 q 648 708 642 701 q 661 718 654 715 q 673 721 669 721 q 695 706 687 721 q 707 669 703 692 q 758 684 724 671 l 762 685 q 777 692 772 688 l 785 699 q 797 705 789 705 q 808 700 803 705 q 812 686 812 694 l 812 686 l 796 631 q 757 422 757 495 q 777 333 757 371 m 1306 361 l 1305 361 q 1298 362 1303 361 q 1286 363 1293 363 q 1254 379 1272 367 q 1211 496 1211 410 q 1214 530 1211 518 q 1220 552 1216 543 q 1226 576 1223 562 l 1198 505 q 1186 477 1192 488 q 1170 451 1175 454 q 1168 450 1169 451 q 1164 450 1167 450 q 1157 456 1160 450 q 1150 465 1153 463 q 1139 470 1147 468 q 1127 502 1127 471 q 1141 577 1127 532 q 1175 656 1154 622 q 1219 690 1196 690 q 1236 673 1229 690 l 1240 656 q 1259 695 1254 693 q 1267 702 1264 696 q 1270 704 1269 703 q 1274 708 1272 705 q 1279 710 1276 710 q 1280 710 1280 710 q 1282 709 1281 709 q 1285 706 1284 709 q 1287 695 1287 703 q 1272 624 1287 672 q 1253 555 1261 592 q 1242 467 1242 513 q 1257 396 1242 418 q 1293 375 1272 375 q 1312 380 1297 375 q 1344 402 1327 385 q 1373 453 1360 419 q 1385 547 1385 488 q 1384 576 1385 554 q 1380 617 1383 597 q 1369 636 1377 636 q 1355 615 1365 636 q 1335 564 1344 595 q 1326 504 1326 534 q 1333 463 1326 481 l 1333 463 q 1334 460 1333 462 q 1337 459 1335 459 q 1339 458 1338 458 l 1337 457 q 1333 454 1337 456 q 1324 453 1329 453 q 1301 479 1310 453 l 1301 481 q 1297 496 1300 487 l 1293 510 q 1286 535 1286 517 q 1301 586 1286 557 q 1338 636 1316 614 q 1380 657 1360 657 q 1406 653 1392 657 q 1428 632 1419 648 q 1436 583 1436 616 q 1427 512 1436 550 q 1400 439 1418 473 q 1359 383 1383 405 q 1306 361 1335 361 m 1095 637 l 1082 612 q 998 417 1013 469 l 997 414 q 995 408 997 411 q 991 401 993 404 q 987 399 990 399 q 987 399 987 399 q 973 409 980 406 q 964 417 966 412 l 963 419 q 962 433 962 423 q 966 501 962 465 q 901 463 928 463 q 882 471 890 463 q 862 497 869 486 l 854 507 l 848 485 q 842 464 845 475 q 836 435 839 454 q 833 420 834 427 q 831 408 831 414 q 818 375 824 375 q 816 376 817 375 q 803 385 810 381 q 791 397 796 389 q 785 428 785 405 q 802 564 785 489 q 840 706 819 639 q 878 815 862 774 q 856 816 869 816 q 802 814 835 816 q 646 745 671 808 l 643 754 q 638 776 640 762 q 676 835 638 822 q 756 848 713 848 q 824 851 793 851 q 894 857 884 851 q 907 867 901 867 q 917 854 913 867 l 918 850 q 928 831 922 837 q 929 827 929 829 l 904 770 q 833 524 846 633 q 850 572 840 547 q 943 715 903 715 q 954 711 947 715 q 967 699 962 707 q 972 673 972 690 q 962 622 972 656 q 931 558 952 588 q 878 518 911 528 l 878 517 q 889 504 882 512 q 905 496 897 496 q 934 510 920 496 q 978 570 958 534 q 1054 825 1003 685 l 1071 869 l 1072 871 q 1078 878 1074 876 q 1080 880 1078 879 q 1085 882 1082 882 q 1095 869 1090 882 q 1105 845 1101 850 q 1107 842 1107 843 l 1107 841 q 1082 785 1103 834 q 1008 522 1021 648 l 1017 547 q 1120 685 1075 685 l 1135 685 q 1155 673 1155 685 q 1147 656 1155 669 q 1105 499 1105 580 q 1154 417 1107 446 q 1192 408 1172 408 l 1195 408 l 1189 399 q 1181 393 1185 395 q 1146 387 1171 387 q 1107 395 1123 387 q 1072 437 1082 410 q 1063 478 1063 454 l 1064 489 q 1087 610 1067 541 q 1095 637 1093 631 z "},"1":{"ha":1678,"x_min":95,"x_max":1449,"o":"m 1162 488 q 1170 504 1163 488 q 1183 532 1176 515 l 1187 543 q 1208 590 1199 567 l 1230 641 q 1227 653 1230 647 l 1226 657 q 1221 667 1223 667 q 1202 640 1217 667 q 1174 574 1187 613 q 1160 498 1160 535 q 1162 488 1160 488 m 1417 758 q 1425 780 1425 768 l 1425 781 l 1424 781 q 1422 779 1423 781 q 1421 774 1421 776 q 1417 758 1418 767 m 1374 743 q 1388 749 1385 743 q 1391 764 1391 755 q 1390 772 1391 768 l 1390 774 l 1374 743 m 871 549 q 902 575 889 555 q 924 618 916 595 q 937 660 932 641 q 941 681 941 678 l 926 659 q 896 607 912 637 q 871 549 880 576 m 128 370 q 142 393 130 370 q 182 469 169 443 l 208 519 q 207 524 208 521 q 206 532 207 527 q 203 539 205 536 q 201 544 202 543 q 200 545 201 545 q 176 516 193 544 q 144 449 159 488 q 127 376 129 410 l 128 370 m 376 669 q 424 679 400 669 q 477 718 448 688 q 498 751 490 734 q 507 781 505 768 l 510 794 l 486 779 q 430 734 462 763 q 373 669 399 706 l 376 669 m 557 437 q 563 450 559 437 q 574 480 568 462 q 586 518 580 498 q 596 552 591 537 q 604 572 602 567 q 601 590 603 583 q 596 597 600 596 l 593 597 q 573 563 583 589 q 556 506 563 536 q 550 456 550 476 q 557 437 550 438 m 1318 649 l 1319 648 l 1319 648 l 1318 649 m 1318 649 l 1317 649 q 1305 661 1310 652 q 1303 675 1303 666 q 1314 709 1303 684 q 1329 747 1322 730 l 1339 768 l 1336 764 q 1328 751 1333 759 q 1323 745 1325 748 q 1318 738 1320 741 q 1309 728 1316 735 q 1302 725 1305 725 q 1298 730 1299 728 q 1296 734 1297 733 q 1293 738 1295 737 q 1296 747 1293 741 q 1272 725 1280 725 q 1269 726 1271 725 q 1267 729 1267 728 q 1266 732 1267 731 l 1266 733 l 1265 733 l 1265 734 l 1264 735 q 1259 753 1259 737 q 1264 774 1259 761 q 1274 799 1270 787 q 1285 832 1278 812 q 1272 829 1278 830 q 1261 824 1265 827 q 1256 819 1257 821 q 1253 815 1254 817 q 1251 812 1252 813 q 1250 809 1251 810 q 1249 808 1249 808 q 1246 809 1249 808 q 1244 812 1244 811 l 1244 812 l 1241 816 q 1240 818 1241 817 q 1240 823 1240 819 q 1258 839 1240 833 q 1284 844 1276 844 l 1289 845 q 1293 856 1291 850 q 1297 868 1295 861 q 1314 878 1299 874 l 1322 880 q 1323 880 1322 880 q 1324 876 1324 880 q 1319 864 1322 871 q 1311 846 1316 856 q 1374 842 1359 846 q 1390 838 1379 842 q 1411 821 1411 833 q 1330 835 1386 835 l 1305 834 q 1283 780 1293 806 q 1274 748 1274 757 q 1277 747 1275 747 q 1294 759 1282 747 q 1312 780 1305 772 l 1320 789 l 1322 790 l 1325 792 l 1326 792 l 1327 794 l 1329 794 l 1332 795 q 1333 795 1333 795 l 1330 791 q 1310 749 1310 755 l 1310 748 q 1316 754 1312 748 l 1333 777 q 1357 802 1351 802 l 1360 801 l 1361 801 q 1362 800 1361 800 q 1363 800 1362 800 l 1364 800 l 1364 798 l 1358 783 l 1356 778 q 1326 705 1341 747 q 1316 658 1316 675 q 1318 649 1316 652 m 1420 732 q 1404 750 1407 732 l 1407 767 q 1423 793 1413 791 q 1423 793 1423 793 q 1424 793 1423 793 q 1427 792 1426 793 q 1430 790 1428 791 q 1432 779 1432 785 q 1428 763 1432 771 q 1415 748 1423 754 q 1416 744 1415 747 q 1418 741 1417 741 q 1425 745 1420 741 q 1434 757 1430 749 q 1438 777 1438 765 q 1436 798 1438 791 l 1434 806 q 1447 789 1444 804 l 1448 787 q 1449 774 1449 783 q 1440 745 1449 758 q 1420 732 1432 732 m 1331 652 l 1330 652 q 1328 653 1329 653 q 1326 655 1328 653 q 1324 658 1325 656 q 1322 661 1324 659 l 1322 663 q 1341 722 1322 675 q 1347 737 1344 729 q 1373 798 1371 796 l 1375 798 q 1377 797 1375 798 q 1380 797 1379 797 q 1382 795 1381 796 q 1384 793 1384 795 l 1384 791 l 1383 789 q 1357 732 1378 785 l 1392 795 q 1400 768 1400 791 q 1387 734 1400 734 q 1373 741 1376 734 q 1331 652 1339 678 m 239 245 l 237 245 q 216 250 229 245 q 192 272 203 255 q 180 323 182 288 q 182 351 180 334 q 182 358 182 357 q 189 423 186 401 l 191 437 l 167 387 q 141 340 149 350 q 129 332 137 332 q 121 338 124 332 q 104 354 117 351 q 95 380 95 357 q 111 454 95 410 q 150 532 127 498 q 198 569 174 567 q 218 543 214 567 l 232 574 q 248 600 243 600 q 260 609 252 601 q 269 614 264 614 q 269 613 269 614 q 271 613 269 613 q 273 612 272 613 q 276 602 276 609 q 259 545 275 581 q 234 472 246 513 q 221 375 221 431 q 252 247 221 301 q 239 245 248 245 m 418 282 l 408 286 q 390 308 397 292 q 380 368 380 328 q 386 437 380 402 q 398 496 391 471 l 382 451 q 360 381 361 395 l 355 382 q 343 387 350 384 q 331 394 336 390 q 322 407 325 399 q 320 430 320 416 q 331 491 320 452 q 355 565 341 531 q 377 607 368 599 l 395 605 q 405 599 405 603 l 389 562 q 366 497 377 532 q 352 439 354 463 l 364 467 q 394 532 376 495 q 427 597 411 568 q 449 625 442 625 l 450 625 q 463 620 456 623 q 465 619 464 620 q 467 617 466 618 q 468 616 467 617 q 469 616 469 616 q 469 615 469 616 q 470 614 469 615 l 456 583 q 429 502 442 552 q 413 395 415 452 l 424 431 q 451 514 435 467 q 512 647 492 633 l 527 644 q 532 643 529 644 q 538 641 534 642 q 541 637 541 639 l 541 636 l 525 584 q 486 389 486 451 q 489 360 486 367 q 498 353 492 353 q 529 362 506 353 q 619 383 588 383 q 663 372 644 383 l 665 370 q 671 364 669 366 q 673 362 673 362 q 675 360 673 361 l 674 360 l 648 358 q 519 319 588 351 l 517 318 q 514 316 516 317 q 507 315 511 315 q 477 338 490 315 l 473 340 q 470 343 472 341 q 465 349 468 345 q 452 391 452 361 q 465 467 452 412 l 476 519 l 467 495 q 447 433 458 470 q 427 357 436 396 q 417 289 417 319 l 418 282 m 441 165 q 279 243 327 165 q 245 363 245 297 q 266 503 245 434 q 319 631 286 572 q 267 633 296 633 q 165 621 208 633 q 106 574 122 608 l 103 584 q 100 605 100 593 q 168 667 100 661 q 222 670 196 670 q 291 668 260 670 q 333 666 315 666 q 339 667 336 666 q 434 782 385 738 q 518 825 483 825 q 542 800 542 825 q 537 772 542 796 q 514 718 532 749 q 355 630 470 644 q 330 566 347 612 q 286 365 286 447 q 328 256 286 302 q 434 210 371 210 q 577 233 496 210 q 745 283 658 255 q 920 337 834 313 q 1073 360 1006 360 q 1183 344 1140 360 q 1250 307 1226 328 q 1284 267 1274 286 l 1286 254 l 1269 269 q 1209 298 1251 283 q 1095 312 1166 312 q 960 299 1026 312 q 831 268 894 287 q 709 229 768 249 q 567 183 635 202 q 441 165 500 165 m 777 333 l 770 333 q 730 350 747 333 q 713 391 713 367 q 724 465 713 409 q 755 608 741 548 q 765 648 764 643 q 770 656 767 653 q 774 661 772 659 q 777 665 776 663 q 739 650 768 657 q 719 644 728 646 l 710 642 q 711 617 711 631 q 703 527 711 576 q 682 444 694 479 q 652 408 669 408 q 646 410 648 408 q 642 415 644 412 q 636 423 640 418 q 622 433 632 427 q 609 457 612 438 q 606 494 606 476 l 607 523 l 593 471 q 557 406 572 406 q 547 414 553 406 q 543 417 547 416 q 534 421 539 418 q 521 463 521 431 q 548 577 521 523 q 597 631 575 631 q 618 602 612 631 q 631 623 626 616 q 642 631 638 631 l 646 632 q 662 628 657 632 l 665 627 q 644 586 656 618 q 631 500 631 553 q 634 465 631 485 l 635 461 q 641 449 638 452 l 644 447 q 667 507 654 458 q 680 608 680 556 q 676 650 680 630 q 650 667 659 656 q 642 689 642 678 q 648 708 642 701 q 661 718 654 715 q 673 721 669 721 q 695 706 687 721 q 707 669 703 692 q 758 684 724 671 l 762 685 q 777 692 772 688 l 785 699 q 797 705 789 705 q 808 700 803 705 q 812 686 812 694 l 812 686 l 796 631 q 757 422 757 495 q 777 333 757 371 m 1306 361 l 1305 361 q 1298 362 1303 361 q 1286 363 1293 363 q 1254 379 1272 367 q 1211 496 1211 410 q 1214 530 1211 518 q 1220 552 1216 543 q 1226 576 1223 562 l 1198 505 q 1186 477 1192 488 q 1170 451 1175 454 q 1168 450 1169 451 q 1164 450 1167 450 q 1157 456 1160 450 q 1150 465 1153 463 q 1139 470 1147 468 q 1127 502 1127 471 q 1141 577 1127 532 q 1175 656 1154 622 q 1219 690 1196 690 q 1236 673 1229 690 l 1240 656 q 1259 695 1254 693 q 1267 702 1264 696 q 1270 704 1269 703 q 1274 708 1272 705 q 1279 710 1276 710 q 1280 710 1280 710 q 1282 709 1281 709 q 1285 706 1284 709 q 1287 695 1287 703 q 1272 624 1287 672 q 1253 555 1261 592 q 1242 467 1242 513 q 1257 396 1242 418 q 1293 375 1272 375 q 1312 380 1297 375 q 1344 402 1327 385 q 1373 453 1360 419 q 1385 547 1385 488 q 1384 576 1385 554 q 1380 617 1383 597 q 1369 636 1377 636 q 1355 615 1365 636 q 1335 564 1344 595 q 1326 504 1326 534 q 1333 463 1326 481 l 1333 463 q 1334 460 1333 462 q 1337 459 1335 459 q 1339 458 1338 458 l 1337 457 q 1333 454 1337 456 q 1324 453 1329 453 q 1301 479 1310 453 l 1301 481 q 1297 496 1300 487 l 1293 510 q 1286 535 1286 517 q 1301 586 1286 557 q 1338 636 1316 614 q 1380 657 1360 657 q 1406 653 1392 657 q 1428 632 1419 648 q 1436 583 1436 616 q 1427 512 1436 550 q 1400 439 1418 473 q 1359 383 1383 405 q 1306 361 1335 361 m 1095 637 l 1082 612 q 998 417 1013 469 l 997 414 q 995 408 997 411 q 991 401 993 404 q 987 399 990 399 q 987 399 987 399 q 973 409 980 406 q 964 417 966 412 l 963 419 q 962 433 962 423 q 966 501 962 465 q 901 463 928 463 q 882 471 890 463 q 862 497 869 486 l 854 507 l 848 485 q 842 464 845 475 q 836 435 839 454 q 833 420 834 427 q 831 408 831 414 q 818 375 824 375 q 816 376 817 375 q 803 385 810 381 q 791 397 796 389 q 785 428 785 405 q 802 564 785 489 q 840 706 819 639 q 878 815 862 774 q 856 816 869 816 q 802 814 835 816 q 646 745 671 808 l 643 754 q 638 776 640 762 q 676 835 638 822 q 756 848 713 848 q 824 851 793 851 q 894 857 884 851 q 907 867 901 867 q 917 854 913 867 l 918 850 q 928 831 922 837 q 929 827 929 829 l 904 770 q 833 524 846 633 q 850 572 840 547 q 943 715 903 715 q 954 711 947 715 q 967 699 962 707 q 972 673 972 690 q 962 622 972 656 q 931 558 952 588 q 878 518 911 528 l 878 517 q 889 504 882 512 q 905 496 897 496 q 934 510 920 496 q 978 570 958 534 q 1054 825 1003 685 l 1071 869 l 1072 871 q 1078 878 1074 876 q 1080 880 1078 879 q 1085 882 1082 882 q 1095 869 1090 882 q 1105 845 1101 850 q 1107 842 1107 843 l 1107 841 q 1082 785 1103 834 q 1008 522 1021 648 l 1017 547 q 1120 685 1075 685 l 1135 685 q 1155 673 1155 685 q 1147 656 1155 669 q 1105 499 1105 580 q 1154 417 1107 446 q 1192 408 1172 408 l 1195 408 l 1189 399 q 1181 393 1185 395 q 1146 387 1171 387 q 1107 395 1123 387 q 1072 437 1082 410 q 1063 478 1063 454 l 1064 489 q 1087 610 1067 541 q 1095 637 1093 631 z "},"2":{"ha":1678,"x_min":95,"x_max":1449,"o":"m 1162 488 q 1170 504 1163 488 q 1183 532 1176 515 l 1187 543 q 1208 590 1199 567 l 1230 641 q 1227 653 1230 647 l 1226 657 q 1221 667 1223 667 q 1202 640 1217 667 q 1174 574 1187 613 q 1160 498 1160 535 q 1162 488 1160 488 m 1417 758 q 1425 780 1425 768 l 1425 781 l 1424 781 q 1422 779 1423 781 q 1421 774 1421 776 q 1417 758 1418 767 m 1374 743 q 1388 749 1385 743 q 1391 764 1391 755 q 1390 772 1391 768 l 1390 774 l 1374 743 m 871 549 q 902 575 889 555 q 924 618 916 595 q 937 660 932 641 q 941 681 941 678 l 926 659 q 896 607 912 637 q 871 549 880 576 m 128 370 q 142 393 130 370 q 182 469 169 443 l 208 519 q 207 524 208 521 q 206 532 207 527 q 203 539 205 536 q 201 544 202 543 q 200 545 201 545 q 176 516 193 544 q 144 449 159 488 q 127 376 129 410 l 128 370 m 376 669 q 424 679 400 669 q 477 718 448 688 q 498 751 490 734 q 507 781 505 768 l 510 794 l 486 779 q 430 734 462 763 q 373 669 399 706 l 376 669 m 557 437 q 563 450 559 437 q 574 480 568 462 q 586 518 580 498 q 596 552 591 537 q 604 572 602 567 q 601 590 603 583 q 596 597 600 596 l 593 597 q 573 563 583 589 q 556 506 563 536 q 550 456 550 476 q 557 437 550 438 m 1318 649 l 1319 648 l 1319 648 l 1318 649 m 1318 649 l 1317 649 q 1305 661 1310 652 q 1303 675 1303 666 q 1314 709 1303 684 q 1329 747 1322 730 l 1339 768 l 1336 764 q 1328 751 1333 759 q 1323 745 1325 748 q 1318 738 1320 741 q 1309 728 1316 735 q 1302 725 1305 725 q 1298 730 1299 728 q 1296 734 1297 733 q 1293 738 1295 737 q 1296 747 1293 741 q 1272 725 1280 725 q 1269 726 1271 725 q 1267 729 1267 728 q 1266 732 1267 731 l 1266 733 l 1265 733 l 1265 734 l 1264 735 q 1259 753 1259 737 q 1264 774 1259 761 q 1274 799 1270 787 q 1285 832 1278 812 q 1272 829 1278 830 q 1261 824 1265 827 q 1256 819 1257 821 q 1253 815 1254 817 q 1251 812 1252 813 q 1250 809 1251 810 q 1249 808 1249 808 q 1246 809 1249 808 q 1244 812 1244 811 l 1244 812 l 1241 816 q 1240 818 1241 817 q 1240 823 1240 819 q 1258 839 1240 833 q 1284 844 1276 844 l 1289 845 q 1293 856 1291 850 q 1297 868 1295 861 q 1314 878 1299 874 l 1322 880 q 1323 880 1322 880 q 1324 876 1324 880 q 1319 864 1322 871 q 1311 846 1316 856 q 1374 842 1359 846 q 1390 838 1379 842 q 1411 821 1411 833 q 1330 835 1386 835 l 1305 834 q 1283 780 1293 806 q 1274 748 1274 757 q 1277 747 1275 747 q 1294 759 1282 747 q 1312 780 1305 772 l 1320 789 l 1322 790 l 1325 792 l 1326 792 l 1327 794 l 1329 794 l 1332 795 q 1333 795 1333 795 l 1330 791 q 1310 749 1310 755 l 1310 748 q 1316 754 1312 748 l 1333 777 q 1357 802 1351 802 l 1360 801 l 1361 801 q 1362 800 1361 800 q 1363 800 1362 800 l 1364 800 l 1364 798 l 1358 783 l 1356 778 q 1326 705 1341 747 q 1316 658 1316 675 q 1318 649 1316 652 m 1420 732 q 1404 750 1407 732 l 1407 767 q 1423 793 1413 791 q 1423 793 1423 793 q 1424 793 1423 793 q 1427 792 1426 793 q 1430 790 1428 791 q 1432 779 1432 785 q 1428 763 1432 771 q 1415 748 1423 754 q 1416 744 1415 747 q 1418 741 1417 741 q 1425 745 1420 741 q 1434 757 1430 749 q 1438 777 1438 765 q 1436 798 1438 791 l 1434 806 q 1447 789 1444 804 l 1448 787 q 1449 774 1449 783 q 1440 745 1449 758 q 1420 732 1432 732 m 1331 652 l 1330 652 q 1328 653 1329 653 q 1326 655 1328 653 q 1324 658 1325 656 q 1322 661 1324 659 l 1322 663 q 1341 722 1322 675 q 1347 737 1344 729 q 1373 798 1371 796 l 1375 798 q 1377 797 1375 798 q 1380 797 1379 797 q 1382 795 1381 796 q 1384 793 1384 795 l 1384 791 l 1383 789 q 1357 732 1378 785 l 1392 795 q 1400 768 1400 791 q 1387 734 1400 734 q 1373 741 1376 734 q 1331 652 1339 678 m 239 245 l 237 245 q 216 250 229 245 q 192 272 203 255 q 180 323 182 288 q 182 351 180 334 q 182 358 182 357 q 189 423 186 401 l 191 437 l 167 387 q 141 340 149 350 q 129 332 137 332 q 121 338 124 332 q 104 354 117 351 q 95 380 95 357 q 111 454 95 410 q 150 532 127 498 q 198 569 174 567 q 218 543 214 567 l 232 574 q 248 600 243 600 q 260 609 252 601 q 269 614 264 614 q 269 613 269 614 q 271 613 269 613 q 273 612 272 613 q 276 602 276 609 q 259 545 275 581 q 234 472 246 513 q 221 375 221 431 q 252 247 221 301 q 239 245 248 245 m 418 282 l 408 286 q 390 308 397 292 q 380 368 380 328 q 386 437 380 402 q 398 496 391 471 l 382 451 q 360 381 361 395 l 355 382 q 343 387 350 384 q 331 394 336 390 q 322 407 325 399 q 320 430 320 416 q 331 491 320 452 q 355 565 341 531 q 377 607 368 599 l 395 605 q 405 599 405 603 l 389 562 q 366 497 377 532 q 352 439 354 463 l 364 467 q 394 532 376 495 q 427 597 411 568 q 449 625 442 625 l 450 625 q 463 620 456 623 q 465 619 464 620 q 467 617 466 618 q 468 616 467 617 q 469 616 469 616 q 469 615 469 616 q 470 614 469 615 l 456 583 q 429 502 442 552 q 413 395 415 452 l 424 431 q 451 514 435 467 q 512 647 492 633 l 527 644 q 532 643 529 644 q 538 641 534 642 q 541 637 541 639 l 541 636 l 525 584 q 486 389 486 451 q 489 360 486 367 q 498 353 492 353 q 529 362 506 353 q 619 383 588 383 q 663 372 644 383 l 665 370 q 671 364 669 366 q 673 362 673 362 q 675 360 673 361 l 674 360 l 648 358 q 519 319 588 351 l 517 318 q 514 316 516 317 q 507 315 511 315 q 477 338 490 315 l 473 340 q 470 343 472 341 q 465 349 468 345 q 452 391 452 361 q 465 467 452 412 l 476 519 l 467 495 q 447 433 458 470 q 427 357 436 396 q 417 289 417 319 l 418 282 m 441 165 q 279 243 327 165 q 245 363 245 297 q 266 503 245 434 q 319 631 286 572 q 267 633 296 633 q 165 621 208 633 q 106 574 122 608 l 103 584 q 100 605 100 593 q 168 667 100 661 q 222 670 196 670 q 291 668 260 670 q 333 666 315 666 q 339 667 336 666 q 434 782 385 738 q 518 825 483 825 q 542 800 542 825 q 537 772 542 796 q 514 718 532 749 q 355 630 470 644 q 330 566 347 612 q 286 365 286 447 q 328 256 286 302 q 434 210 371 210 q 577 233 496 210 q 745 283 658 255 q 920 337 834 313 q 1073 360 1006 360 q 1183 344 1140 360 q 1250 307 1226 328 q 1284 267 1274 286 l 1286 254 l 1269 269 q 1209 298 1251 283 q 1095 312 1166 312 q 960 299 1026 312 q 831 268 894 287 q 709 229 768 249 q 567 183 635 202 q 441 165 500 165 m 777 333 l 770 333 q 730 350 747 333 q 713 391 713 367 q 724 465 713 409 q 755 608 741 548 q 765 648 764 643 q 770 656 767 653 q 774 661 772 659 q 777 665 776 663 q 739 650 768 657 q 719 644 728 646 l 710 642 q 711 617 711 631 q 703 527 711 576 q 682 444 694 479 q 652 408 669 408 q 646 410 648 408 q 642 415 644 412 q 636 423 640 418 q 622 433 632 427 q 609 457 612 438 q 606 494 606 476 l 607 523 l 593 471 q 557 406 572 406 q 547 414 553 406 q 543 417 547 416 q 534 421 539 418 q 521 463 521 431 q 548 577 521 523 q 597 631 575 631 q 618 602 612 631 q 631 623 626 616 q 642 631 638 631 l 646 632 q 662 628 657 632 l 665 627 q 644 586 656 618 q 631 500 631 553 q 634 465 631 485 l 635 461 q 641 449 638 452 l 644 447 q 667 507 654 458 q 680 608 680 556 q 676 650 680 630 q 650 667 659 656 q 642 689 642 678 q 648 708 642 701 q 661 718 654 715 q 673 721 669 721 q 695 706 687 721 q 707 669 703 692 q 758 684 724 671 l 762 685 q 777 692 772 688 l 785 699 q 797 705 789 705 q 808 700 803 705 q 812 686 812 694 l 812 686 l 796 631 q 757 422 757 495 q 777 333 757 371 m 1306 361 l 1305 361 q 1298 362 1303 361 q 1286 363 1293 363 q 1254 379 1272 367 q 1211 496 1211 410 q 1214 530 1211 518 q 1220 552 1216 543 q 1226 576 1223 562 l 1198 505 q 1186 477 1192 488 q 1170 451 1175 454 q 1168 450 1169 451 q 1164 450 1167 450 q 1157 456 1160 450 q 1150 465 1153 463 q 1139 470 1147 468 q 1127 502 1127 471 q 1141 577 1127 532 q 1175 656 1154 622 q 1219 690 1196 690 q 1236 673 1229 690 l 1240 656 q 1259 695 1254 693 q 1267 702 1264 696 q 1270 704 1269 703 q 1274 708 1272 705 q 1279 710 1276 710 q 1280 710 1280 710 q 1282 709 1281 709 q 1285 706 1284 709 q 1287 695 1287 703 q 1272 624 1287 672 q 1253 555 1261 592 q 1242 467 1242 513 q 1257 396 1242 418 q 1293 375 1272 375 q 1312 380 1297 375 q 1344 402 1327 385 q 1373 453 1360 419 q 1385 547 1385 488 q 1384 576 1385 554 q 1380 617 1383 597 q 1369 636 1377 636 q 1355 615 1365 636 q 1335 564 1344 595 q 1326 504 1326 534 q 1333 463 1326 481 l 1333 463 q 1334 460 1333 462 q 1337 459 1335 459 q 1339 458 1338 458 l 1337 457 q 1333 454 1337 456 q 1324 453 1329 453 q 1301 479 1310 453 l 1301 481 q 1297 496 1300 487 l 1293 510 q 1286 535 1286 517 q 1301 586 1286 557 q 1338 636 1316 614 q 1380 657 1360 657 q 1406 653 1392 657 q 1428 632 1419 648 q 1436 583 1436 616 q 1427 512 1436 550 q 1400 439 1418 473 q 1359 383 1383 405 q 1306 361 1335 361 m 1095 637 l 1082 612 q 998 417 1013 469 l 997 414 q 995 408 997 411 q 991 401 993 404 q 987 399 990 399 q 987 399 987 399 q 973 409 980 406 q 964 417 966 412 l 963 419 q 962 433 962 423 q 966 501 962 465 q 901 463 928 463 q 882 471 890 463 q 862 497 869 486 l 854 507 l 848 485 q 842 464 845 475 q 836 435 839 454 q 833 420 834 427 q 831 408 831 414 q 818 375 824 375 q 816 376 817 375 q 803 385 810 381 q 791 397 796 389 q 785 428 785 405 q 802 564 785 489 q 840 706 819 639 q 878 815 862 774 q 856 816 869 816 q 802 814 835 816 q 646 745 671 808 l 643 754 q 638 776 640 762 q 676 835 638 822 q 756 848 713 848 q 824 851 793 851 q 894 857 884 851 q 907 867 901 867 q 917 854 913 867 l 918 850 q 928 831 922 837 q 929 827 929 829 l 904 770 q 833 524 846 633 q 850 572 840 547 q 943 715 903 715 q 954 711 947 715 q 967 699 962 707 q 972 673 972 690 q 962 622 972 656 q 931 558 952 588 q 878 518 911 528 l 878 517 q 889 504 882 512 q 905 496 897 496 q 934 510 920 496 q 978 570 958 534 q 1054 825 1003 685 l 1071 869 l 1072 871 q 1078 878 1074 876 q 1080 880 1078 879 q 1085 882 1082 882 q 1095 869 1090 882 q 1105 845 1101 850 q 1107 842 1107 843 l 1107 841 q 1082 785 1103 834 q 1008 522 1021 648 l 1017 547 q 1120 685 1075 685 l 1135 685 q 1155 673 1155 685 q 1147 656 1155 669 q 1105 499 1105 580 q 1154 417 1107 446 q 1192 408 1172 408 l 1195 408 l 1189 399 q 1181 393 1185 395 q 1146 387 1171 387 q 1107 395 1123 387 q 1072 437 1082 410 q 1063 478 1063 454 l 1064 489 q 1087 610 1067 541 q 1095 637 1093 631 z "},"3":{"ha":1678,"x_min":95,"x_max":1449,"o":"m 1162 488 q 1170 504 1163 488 q 1183 532 1176 515 l 1187 543 q 1208 590 1199 567 l 1230 641 q 1227 653 1230 647 l 1226 657 q 1221 667 1223 667 q 1202 640 1217 667 q 1174 574 1187 613 q 1160 498 1160 535 q 1162 488 1160 488 m 1417 758 q 1425 780 1425 768 l 1425 781 l 1424 781 q 1422 779 1423 781 q 1421 774 1421 776 q 1417 758 1418 767 m 1374 743 q 1388 749 1385 743 q 1391 764 1391 755 q 1390 772 1391 768 l 1390 774 l 1374 743 m 871 549 q 902 575 889 555 q 924 618 916 595 q 937 660 932 641 q 941 681 941 678 l 926 659 q 896 607 912 637 q 871 549 880 576 m 128 370 q 142 393 130 370 q 182 469 169 443 l 208 519 q 207 524 208 521 q 206 532 207 527 q 203 539 205 536 q 201 544 202 543 q 200 545 201 545 q 176 516 193 544 q 144 449 159 488 q 127 376 129 410 l 128 370 m 376 669 q 424 679 400 669 q 477 718 448 688 q 498 751 490 734 q 507 781 505 768 l 510 794 l 486 779 q 430 734 462 763 q 373 669 399 706 l 376 669 m 557 437 q 563 450 559 437 q 574 480 568 462 q 586 518 580 498 q 596 552 591 537 q 604 572 602 567 q 601 590 603 583 q 596 597 600 596 l 593 597 q 573 563 583 589 q 556 506 563 536 q 550 456 550 476 q 557 437 550 438 m 1318 649 l 1319 648 l 1319 648 l 1318 649 m 1318 649 l 1317 649 q 1305 661 1310 652 q 1303 675 1303 666 q 1314 709 1303 684 q 1329 747 1322 730 l 1339 768 l 1336 764 q 1328 751 1333 759 q 1323 745 1325 748 q 1318 738 1320 741 q 1309 728 1316 735 q 1302 725 1305 725 q 1298 730 1299 728 q 1296 734 1297 733 q 1293 738 1295 737 q 1296 747 1293 741 q 1272 725 1280 725 q 1269 726 1271 725 q 1267 729 1267 728 q 1266 732 1267 731 l 1266 733 l 1265 733 l 1265 734 l 1264 735 q 1259 753 1259 737 q 1264 774 1259 761 q 1274 799 1270 787 q 1285 832 1278 812 q 1272 829 1278 830 q 1261 824 1265 827 q 1256 819 1257 821 q 1253 815 1254 817 q 1251 812 1252 813 q 1250 809 1251 810 q 1249 808 1249 808 q 1246 809 1249 808 q 1244 812 1244 811 l 1244 812 l 1241 816 q 1240 818 1241 817 q 1240 823 1240 819 q 1258 839 1240 833 q 1284 844 1276 844 l 1289 845 q 1293 856 1291 850 q 1297 868 1295 861 q 1314 878 1299 874 l 1322 880 q 1323 880 1322 880 q 1324 876 1324 880 q 1319 864 1322 871 q 1311 846 1316 856 q 1374 842 1359 846 q 1390 838 1379 842 q 1411 821 1411 833 q 1330 835 1386 835 l 1305 834 q 1283 780 1293 806 q 1274 748 1274 757 q 1277 747 1275 747 q 1294 759 1282 747 q 1312 780 1305 772 l 1320 789 l 1322 790 l 1325 792 l 1326 792 l 1327 794 l 1329 794 l 1332 795 q 1333 795 1333 795 l 1330 791 q 1310 749 1310 755 l 1310 748 q 1316 754 1312 748 l 1333 777 q 1357 802 1351 802 l 1360 801 l 1361 801 q 1362 800 1361 800 q 1363 800 1362 800 l 1364 800 l 1364 798 l 1358 783 l 1356 778 q 1326 705 1341 747 q 1316 658 1316 675 q 1318 649 1316 652 m 1420 732 q 1404 750 1407 732 l 1407 767 q 1423 793 1413 791 q 1423 793 1423 793 q 1424 793 1423 793 q 1427 792 1426 793 q 1430 790 1428 791 q 1432 779 1432 785 q 1428 763 1432 771 q 1415 748 1423 754 q 1416 744 1415 747 q 1418 741 1417 741 q 1425 745 1420 741 q 1434 757 1430 749 q 1438 777 1438 765 q 1436 798 1438 791 l 1434 806 q 1447 789 1444 804 l 1448 787 q 1449 774 1449 783 q 1440 745 1449 758 q 1420 732 1432 732 m 1331 652 l 1330 652 q 1328 653 1329 653 q 1326 655 1328 653 q 1324 658 1325 656 q 1322 661 1324 659 l 1322 663 q 1341 722 1322 675 q 1347 737 1344 729 q 1373 798 1371 796 l 1375 798 q 1377 797 1375 798 q 1380 797 1379 797 q 1382 795 1381 796 q 1384 793 1384 795 l 1384 791 l 1383 789 q 1357 732 1378 785 l 1392 795 q 1400 768 1400 791 q 1387 734 1400 734 q 1373 741 1376 734 q 1331 652 1339 678 m 239 245 l 237 245 q 216 250 229 245 q 192 272 203 255 q 180 323 182 288 q 182 351 180 334 q 182 358 182 357 q 189 423 186 401 l 191 437 l 167 387 q 141 340 149 350 q 129 332 137 332 q 121 338 124 332 q 104 354 117 351 q 95 380 95 357 q 111 454 95 410 q 150 532 127 498 q 198 569 174 567 q 218 543 214 567 l 232 574 q 248 600 243 600 q 260 609 252 601 q 269 614 264 614 q 269 613 269 614 q 271 613 269 613 q 273 612 272 613 q 276 602 276 609 q 259 545 275 581 q 234 472 246 513 q 221 375 221 431 q 252 247 221 301 q 239 245 248 245 m 418 282 l 408 286 q 390 308 397 292 q 380 368 380 328 q 386 437 380 402 q 398 496 391 471 l 382 451 q 360 381 361 395 l 355 382 q 343 387 350 384 q 331 394 336 390 q 322 407 325 399 q 320 430 320 416 q 331 491 320 452 q 355 565 341 531 q 377 607 368 599 l 395 605 q 405 599 405 603 l 389 562 q 366 497 377 532 q 352 439 354 463 l 364 467 q 394 532 376 495 q 427 597 411 568 q 449 625 442 625 l 450 625 q 463 620 456 623 q 465 619 464 620 q 467 617 466 618 q 468 616 467 617 q 469 616 469 616 q 469 615 469 616 q 470 614 469 615 l 456 583 q 429 502 442 552 q 413 395 415 452 l 424 431 q 451 514 435 467 q 512 647 492 633 l 527 644 q 532 643 529 644 q 538 641 534 642 q 541 637 541 639 l 541 636 l 525 584 q 486 389 486 451 q 489 360 486 367 q 498 353 492 353 q 529 362 506 353 q 619 383 588 383 q 663 372 644 383 l 665 370 q 671 364 669 366 q 673 362 673 362 q 675 360 673 361 l 674 360 l 648 358 q 519 319 588 351 l 517 318 q 514 316 516 317 q 507 315 511 315 q 477 338 490 315 l 473 340 q 470 343 472 341 q 465 349 468 345 q 452 391 452 361 q 465 467 452 412 l 476 519 l 467 495 q 447 433 458 470 q 427 357 436 396 q 417 289 417 319 l 418 282 m 441 165 q 279 243 327 165 q 245 363 245 297 q 266 503 245 434 q 319 631 286 572 q 267 633 296 633 q 165 621 208 633 q 106 574 122 608 l 103 584 q 100 605 100 593 q 168 667 100 661 q 222 670 196 670 q 291 668 260 670 q 333 666 315 666 q 339 667 336 666 q 434 782 385 738 q 518 825 483 825 q 542 800 542 825 q 537 772 542 796 q 514 718 532 749 q 355 630 470 644 q 330 566 347 612 q 286 365 286 447 q 328 256 286 302 q 434 210 371 210 q 577 233 496 210 q 745 283 658 255 q 920 337 834 313 q 1073 360 1006 360 q 1183 344 1140 360 q 1250 307 1226 328 q 1284 267 1274 286 l 1286 254 l 1269 269 q 1209 298 1251 283 q 1095 312 1166 312 q 960 299 1026 312 q 831 268 894 287 q 709 229 768 249 q 567 183 635 202 q 441 165 500 165 m 777 333 l 770 333 q 730 350 747 333 q 713 391 713 367 q 724 465 713 409 q 755 608 741 548 q 765 648 764 643 q 770 656 767 653 q 774 661 772 659 q 777 665 776 663 q 739 650 768 657 q 719 644 728 646 l 710 642 q 711 617 711 631 q 703 527 711 576 q 682 444 694 479 q 652 408 669 408 q 646 410 648 408 q 642 415 644 412 q 636 423 640 418 q 622 433 632 427 q 609 457 612 438 q 606 494 606 476 l 607 523 l 593 471 q 557 406 572 406 q 547 414 553 406 q 543 417 547 416 q 534 421 539 418 q 521 463 521 431 q 548 577 521 523 q 597 631 575 631 q 618 602 612 631 q 631 623 626 616 q 642 631 638 631 l 646 632 q 662 628 657 632 l 665 627 q 644 586 656 618 q 631 500 631 553 q 634 465 631 485 l 635 461 q 641 449 638 452 l 644 447 q 667 507 654 458 q 680 608 680 556 q 676 650 680 630 q 650 667 659 656 q 642 689 642 678 q 648 708 642 701 q 661 718 654 715 q 673 721 669 721 q 695 706 687 721 q 707 669 703 692 q 758 684 724 671 l 762 685 q 777 692 772 688 l 785 699 q 797 705 789 705 q 808 700 803 705 q 812 686 812 694 l 812 686 l 796 631 q 757 422 757 495 q 777 333 757 371 m 1306 361 l 1305 361 q 1298 362 1303 361 q 1286 363 1293 363 q 1254 379 1272 367 q 1211 496 1211 410 q 1214 530 1211 518 q 1220 552 1216 543 q 1226 576 1223 562 l 1198 505 q 1186 477 1192 488 q 1170 451 1175 454 q 1168 450 1169 451 q 1164 450 1167 450 q 1157 456 1160 450 q 1150 465 1153 463 q 1139 470 1147 468 q 1127 502 1127 471 q 1141 577 1127 532 q 1175 656 1154 622 q 1219 690 1196 690 q 1236 673 1229 690 l 1240 656 q 1259 695 1254 693 q 1267 702 1264 696 q 1270 704 1269 703 q 1274 708 1272 705 q 1279 710 1276 710 q 1280 710 1280 710 q 1282 709 1281 709 q 1285 706 1284 709 q 1287 695 1287 703 q 1272 624 1287 672 q 1253 555 1261 592 q 1242 467 1242 513 q 1257 396 1242 418 q 1293 375 1272 375 q 1312 380 1297 375 q 1344 402 1327 385 q 1373 453 1360 419 q 1385 547 1385 488 q 1384 576 1385 554 q 1380 617 1383 597 q 1369 636 1377 636 q 1355 615 1365 636 q 1335 564 1344 595 q 1326 504 1326 534 q 1333 463 1326 481 l 1333 463 q 1334 460 1333 462 q 1337 459 1335 459 q 1339 458 1338 458 l 1337 457 q 1333 454 1337 456 q 1324 453 1329 453 q 1301 479 1310 453 l 1301 481 q 1297 496 1300 487 l 1293 510 q 1286 535 1286 517 q 1301 586 1286 557 q 1338 636 1316 614 q 1380 657 1360 657 q 1406 653 1392 657 q 1428 632 1419 648 q 1436 583 1436 616 q 1427 512 1436 550 q 1400 439 1418 473 q 1359 383 1383 405 q 1306 361 1335 361 m 1095 637 l 1082 612 q 998 417 1013 469 l 997 414 q 995 408 997 411 q 991 401 993 404 q 987 399 990 399 q 987 399 987 399 q 973 409 980 406 q 964 417 966 412 l 963 419 q 962 433 962 423 q 966 501 962 465 q 901 463 928 463 q 882 471 890 463 q 862 497 869 486 l 854 507 l 848 485 q 842 464 845 475 q 836 435 839 454 q 833 420 834 427 q 831 408 831 414 q 818 375 824 375 q 816 376 817 375 q 803 385 810 381 q 791 397 796 389 q 785 428 785 405 q 802 564 785 489 q 840 706 819 639 q 878 815 862 774 q 856 816 869 816 q 802 814 835 816 q 646 745 671 808 l 643 754 q 638 776 640 762 q 676 835 638 822 q 756 848 713 848 q 824 851 793 851 q 894 857 884 851 q 907 867 901 867 q 917 854 913 867 l 918 850 q 928 831 922 837 q 929 827 929 829 l 904 770 q 833 524 846 633 q 850 572 840 547 q 943 715 903 715 q 954 711 947 715 q 967 699 962 707 q 972 673 972 690 q 962 622 972 656 q 931 558 952 588 q 878 518 911 528 l 878 517 q 889 504 882 512 q 905 496 897 496 q 934 510 920 496 q 978 570 958 534 q 1054 825 1003 685 l 1071 869 l 1072 871 q 1078 878 1074 876 q 1080 880 1078 879 q 1085 882 1082 882 q 1095 869 1090 882 q 1105 845 1101 850 q 1107 842 1107 843 l 1107 841 q 1082 785 1103 834 q 1008 522 1021 648 l 1017 547 q 1120 685 1075 685 l 1135 685 q 1155 673 1155 685 q 1147 656 1155 669 q 1105 499 1105 580 q 1154 417 1107 446 q 1192 408 1172 408 l 1195 408 l 1189 399 q 1181 393 1185 395 q 1146 387 1171 387 q 1107 395 1123 387 q 1072 437 1082 410 q 1063 478 1063 454 l 1064 489 q 1087 610 1067 541 q 1095 637 1093 631 z "},"4":{"ha":1678,"x_min":95,"x_max":1449,"o":"m 1162 488 q 1170 504 1163 488 q 1183 532 1176 515 l 1187 543 q 1208 590 1199 567 l 1230 641 q 1227 653 1230 647 l 1226 657 q 1221 667 1223 667 q 1202 640 1217 667 q 1174 574 1187 613 q 1160 498 1160 535 q 1162 488 1160 488 m 1417 758 q 1425 780 1425 768 l 1425 781 l 1424 781 q 1422 779 1423 781 q 1421 774 1421 776 q 1417 758 1418 767 m 1374 743 q 1388 749 1385 743 q 1391 764 1391 755 q 1390 772 1391 768 l 1390 774 l 1374 743 m 871 549 q 902 575 889 555 q 924 618 916 595 q 937 660 932 641 q 941 681 941 678 l 926 659 q 896 607 912 637 q 871 549 880 576 m 128 370 q 142 393 130 370 q 182 469 169 443 l 208 519 q 207 524 208 521 q 206 532 207 527 q 203 539 205 536 q 201 544 202 543 q 200 545 201 545 q 176 516 193 544 q 144 449 159 488 q 127 376 129 410 l 128 370 m 376 669 q 424 679 400 669 q 477 718 448 688 q 498 751 490 734 q 507 781 505 768 l 510 794 l 486 779 q 430 734 462 763 q 373 669 399 706 l 376 669 m 557 437 q 563 450 559 437 q 574 480 568 462 q 586 518 580 498 q 596 552 591 537 q 604 572 602 567 q 601 590 603 583 q 596 597 600 596 l 593 597 q 573 563 583 589 q 556 506 563 536 q 550 456 550 476 q 557 437 550 438 m 1318 649 l 1319 648 l 1319 648 l 1318 649 m 1318 649 l 1317 649 q 1305 661 1310 652 q 1303 675 1303 666 q 1314 709 1303 684 q 1329 747 1322 730 l 1339 768 l 1336 764 q 1328 751 1333 759 q 1323 745 1325 748 q 1318 738 1320 741 q 1309 728 1316 735 q 1302 725 1305 725 q 1298 730 1299 728 q 1296 734 1297 733 q 1293 738 1295 737 q 1296 747 1293 741 q 1272 725 1280 725 q 1269 726 1271 725 q 1267 729 1267 728 q 1266 732 1267 731 l 1266 733 l 1265 733 l 1265 734 l 1264 735 q 1259 753 1259 737 q 1264 774 1259 761 q 1274 799 1270 787 q 1285 832 1278 812 q 1272 829 1278 830 q 1261 824 1265 827 q 1256 819 1257 821 q 1253 815 1254 817 q 1251 812 1252 813 q 1250 809 1251 810 q 1249 808 1249 808 q 1246 809 1249 808 q 1244 812 1244 811 l 1244 812 l 1241 816 q 1240 818 1241 817 q 1240 823 1240 819 q 1258 839 1240 833 q 1284 844 1276 844 l 1289 845 q 1293 856 1291 850 q 1297 868 1295 861 q 1314 878 1299 874 l 1322 880 q 1323 880 1322 880 q 1324 876 1324 880 q 1319 864 1322 871 q 1311 846 1316 856 q 1374 842 1359 846 q 1390 838 1379 842 q 1411 821 1411 833 q 1330 835 1386 835 l 1305 834 q 1283 780 1293 806 q 1274 748 1274 757 q 1277 747 1275 747 q 1294 759 1282 747 q 1312 780 1305 772 l 1320 789 l 1322 790 l 1325 792 l 1326 792 l 1327 794 l 1329 794 l 1332 795 q 1333 795 1333 795 l 1330 791 q 1310 749 1310 755 l 1310 748 q 1316 754 1312 748 l 1333 777 q 1357 802 1351 802 l 1360 801 l 1361 801 q 1362 800 1361 800 q 1363 800 1362 800 l 1364 800 l 1364 798 l 1358 783 l 1356 778 q 1326 705 1341 747 q 1316 658 1316 675 q 1318 649 1316 652 m 1420 732 q 1404 750 1407 732 l 1407 767 q 1423 793 1413 791 q 1423 793 1423 793 q 1424 793 1423 793 q 1427 792 1426 793 q 1430 790 1428 791 q 1432 779 1432 785 q 1428 763 1432 771 q 1415 748 1423 754 q 1416 744 1415 747 q 1418 741 1417 741 q 1425 745 1420 741 q 1434 757 1430 749 q 1438 777 1438 765 q 1436 798 1438 791 l 1434 806 q 1447 789 1444 804 l 1448 787 q 1449 774 1449 783 q 1440 745 1449 758 q 1420 732 1432 732 m 1331 652 l 1330 652 q 1328 653 1329 653 q 1326 655 1328 653 q 1324 658 1325 656 q 1322 661 1324 659 l 1322 663 q 1341 722 1322 675 q 1347 737 1344 729 q 1373 798 1371 796 l 1375 798 q 1377 797 1375 798 q 1380 797 1379 797 q 1382 795 1381 796 q 1384 793 1384 795 l 1384 791 l 1383 789 q 1357 732 1378 785 l 1392 795 q 1400 768 1400 791 q 1387 734 1400 734 q 1373 741 1376 734 q 1331 652 1339 678 m 239 245 l 237 245 q 216 250 229 245 q 192 272 203 255 q 180 323 182 288 q 182 351 180 334 q 182 358 182 357 q 189 423 186 401 l 191 437 l 167 387 q 141 340 149 350 q 129 332 137 332 q 121 338 124 332 q 104 354 117 351 q 95 380 95 357 q 111 454 95 410 q 150 532 127 498 q 198 569 174 567 q 218 543 214 567 l 232 574 q 248 600 243 600 q 260 609 252 601 q 269 614 264 614 q 269 613 269 614 q 271 613 269 613 q 273 612 272 613 q 276 602 276 609 q 259 545 275 581 q 234 472 246 513 q 221 375 221 431 q 252 247 221 301 q 239 245 248 245 m 418 282 l 408 286 q 390 308 397 292 q 380 368 380 328 q 386 437 380 402 q 398 496 391 471 l 382 451 q 360 381 361 395 l 355 382 q 343 387 350 384 q 331 394 336 390 q 322 407 325 399 q 320 430 320 416 q 331 491 320 452 q 355 565 341 531 q 377 607 368 599 l 395 605 q 405 599 405 603 l 389 562 q 366 497 377 532 q 352 439 354 463 l 364 467 q 394 532 376 495 q 427 597 411 568 q 449 625 442 625 l 450 625 q 463 620 456 623 q 465 619 464 620 q 467 617 466 618 q 468 616 467 617 q 469 616 469 616 q 469 615 469 616 q 470 614 469 615 l 456 583 q 429 502 442 552 q 413 395 415 452 l 424 431 q 451 514 435 467 q 512 647 492 633 l 527 644 q 532 643 529 644 q 538 641 534 642 q 541 637 541 639 l 541 636 l 525 584 q 486 389 486 451 q 489 360 486 367 q 498 353 492 353 q 529 362 506 353 q 619 383 588 383 q 663 372 644 383 l 665 370 q 671 364 669 366 q 673 362 673 362 q 675 360 673 361 l 674 360 l 648 358 q 519 319 588 351 l 517 318 q 514 316 516 317 q 507 315 511 315 q 477 338 490 315 l 473 340 q 470 343 472 341 q 465 349 468 345 q 452 391 452 361 q 465 467 452 412 l 476 519 l 467 495 q 447 433 458 470 q 427 357 436 396 q 417 289 417 319 l 418 282 m 441 165 q 279 243 327 165 q 245 363 245 297 q 266 503 245 434 q 319 631 286 572 q 267 633 296 633 q 165 621 208 633 q 106 574 122 608 l 103 584 q 100 605 100 593 q 168 667 100 661 q 222 670 196 670 q 291 668 260 670 q 333 666 315 666 q 339 667 336 666 q 434 782 385 738 q 518 825 483 825 q 542 800 542 825 q 537 772 542 796 q 514 718 532 749 q 355 630 470 644 q 330 566 347 612 q 286 365 286 447 q 328 256 286 302 q 434 210 371 210 q 577 233 496 210 q 745 283 658 255 q 920 337 834 313 q 1073 360 1006 360 q 1183 344 1140 360 q 1250 307 1226 328 q 1284 267 1274 286 l 1286 254 l 1269 269 q 1209 298 1251 283 q 1095 312 1166 312 q 960 299 1026 312 q 831 268 894 287 q 709 229 768 249 q 567 183 635 202 q 441 165 500 165 m 777 333 l 770 333 q 730 350 747 333 q 713 391 713 367 q 724 465 713 409 q 755 608 741 548 q 765 648 764 643 q 770 656 767 653 q 774 661 772 659 q 777 665 776 663 q 739 650 768 657 q 719 644 728 646 l 710 642 q 711 617 711 631 q 703 527 711 576 q 682 444 694 479 q 652 408 669 408 q 646 410 648 408 q 642 415 644 412 q 636 423 640 418 q 622 433 632 427 q 609 457 612 438 q 606 494 606 476 l 607 523 l 593 471 q 557 406 572 406 q 547 414 553 406 q 543 417 547 416 q 534 421 539 418 q 521 463 521 431 q 548 577 521 523 q 597 631 575 631 q 618 602 612 631 q 631 623 626 616 q 642 631 638 631 l 646 632 q 662 628 657 632 l 665 627 q 644 586 656 618 q 631 500 631 553 q 634 465 631 485 l 635 461 q 641 449 638 452 l 644 447 q 667 507 654 458 q 680 608 680 556 q 676 650 680 630 q 650 667 659 656 q 642 689 642 678 q 648 708 642 701 q 661 718 654 715 q 673 721 669 721 q 695 706 687 721 q 707 669 703 692 q 758 684 724 671 l 762 685 q 777 692 772 688 l 785 699 q 797 705 789 705 q 808 700 803 705 q 812 686 812 694 l 812 686 l 796 631 q 757 422 757 495 q 777 333 757 371 m 1306 361 l 1305 361 q 1298 362 1303 361 q 1286 363 1293 363 q 1254 379 1272 367 q 1211 496 1211 410 q 1214 530 1211 518 q 1220 552 1216 543 q 1226 576 1223 562 l 1198 505 q 1186 477 1192 488 q 1170 451 1175 454 q 1168 450 1169 451 q 1164 450 1167 450 q 1157 456 1160 450 q 1150 465 1153 463 q 1139 470 1147 468 q 1127 502 1127 471 q 1141 577 1127 532 q 1175 656 1154 622 q 1219 690 1196 690 q 1236 673 1229 690 l 1240 656 q 1259 695 1254 693 q 1267 702 1264 696 q 1270 704 1269 703 q 1274 708 1272 705 q 1279 710 1276 710 q 1280 710 1280 710 q 1282 709 1281 709 q 1285 706 1284 709 q 1287 695 1287 703 q 1272 624 1287 672 q 1253 555 1261 592 q 1242 467 1242 513 q 1257 396 1242 418 q 1293 375 1272 375 q 1312 380 1297 375 q 1344 402 1327 385 q 1373 453 1360 419 q 1385 547 1385 488 q 1384 576 1385 554 q 1380 617 1383 597 q 1369 636 1377 636 q 1355 615 1365 636 q 1335 564 1344 595 q 1326 504 1326 534 q 1333 463 1326 481 l 1333 463 q 1334 460 1333 462 q 1337 459 1335 459 q 1339 458 1338 458 l 1337 457 q 1333 454 1337 456 q 1324 453 1329 453 q 1301 479 1310 453 l 1301 481 q 1297 496 1300 487 l 1293 510 q 1286 535 1286 517 q 1301 586 1286 557 q 1338 636 1316 614 q 1380 657 1360 657 q 1406 653 1392 657 q 1428 632 1419 648 q 1436 583 1436 616 q 1427 512 1436 550 q 1400 439 1418 473 q 1359 383 1383 405 q 1306 361 1335 361 m 1095 637 l 1082 612 q 998 417 1013 469 l 997 414 q 995 408 997 411 q 991 401 993 404 q 987 399 990 399 q 987 399 987 399 q 973 409 980 406 q 964 417 966 412 l 963 419 q 962 433 962 423 q 966 501 962 465 q 901 463 928 463 q 882 471 890 463 q 862 497 869 486 l 854 507 l 848 485 q 842 464 845 475 q 836 435 839 454 q 833 420 834 427 q 831 408 831 414 q 818 375 824 375 q 816 376 817 375 q 803 385 810 381 q 791 397 796 389 q 785 428 785 405 q 802 564 785 489 q 840 706 819 639 q 878 815 862 774 q 856 816 869 816 q 802 814 835 816 q 646 745 671 808 l 643 754 q 638 776 640 762 q 676 835 638 822 q 756 848 713 848 q 824 851 793 851 q 894 857 884 851 q 907 867 901 867 q 917 854 913 867 l 918 850 q 928 831 922 837 q 929 827 929 829 l 904 770 q 833 524 846 633 q 850 572 840 547 q 943 715 903 715 q 954 711 947 715 q 967 699 962 707 q 972 673 972 690 q 962 622 972 656 q 931 558 952 588 q 878 518 911 528 l 878 517 q 889 504 882 512 q 905 496 897 496 q 934 510 920 496 q 978 570 958 534 q 1054 825 1003 685 l 1071 869 l 1072 871 q 1078 878 1074 876 q 1080 880 1078 879 q 1085 882 1082 882 q 1095 869 1090 882 q 1105 845 1101 850 q 1107 842 1107 843 l 1107 841 q 1082 785 1103 834 q 1008 522 1021 648 l 1017 547 q 1120 685 1075 685 l 1135 685 q 1155 673 1155 685 q 1147 656 1155 669 q 1105 499 1105 580 q 1154 417 1107 446 q 1192 408 1172 408 l 1195 408 l 1189 399 q 1181 393 1185 395 q 1146 387 1171 387 q 1107 395 1123 387 q 1072 437 1082 410 q 1063 478 1063 454 l 1064 489 q 1087 610 1067 541 q 1095 637 1093 631 z "},"5":{"ha":1678,"x_min":95,"x_max":1449,"o":"m 1162 488 q 1170 504 1163 488 q 1183 532 1176 515 l 1187 543 q 1208 590 1199 567 l 1230 641 q 1227 653 1230 647 l 1226 657 q 1221 667 1223 667 q 1202 640 1217 667 q 1174 574 1187 613 q 1160 498 1160 535 q 1162 488 1160 488 m 1417 758 q 1425 780 1425 768 l 1425 781 l 1424 781 q 1422 779 1423 781 q 1421 774 1421 776 q 1417 758 1418 767 m 1374 743 q 1388 749 1385 743 q 1391 764 1391 755 q 1390 772 1391 768 l 1390 774 l 1374 743 m 871 549 q 902 575 889 555 q 924 618 916 595 q 937 660 932 641 q 941 681 941 678 l 926 659 q 896 607 912 637 q 871 549 880 576 m 128 370 q 142 393 130 370 q 182 469 169 443 l 208 519 q 207 524 208 521 q 206 532 207 527 q 203 539 205 536 q 201 544 202 543 q 200 545 201 545 q 176 516 193 544 q 144 449 159 488 q 127 376 129 410 l 128 370 m 376 669 q 424 679 400 669 q 477 718 448 688 q 498 751 490 734 q 507 781 505 768 l 510 794 l 486 779 q 430 734 462 763 q 373 669 399 706 l 376 669 m 557 437 q 563 450 559 437 q 574 480 568 462 q 586 518 580 498 q 596 552 591 537 q 604 572 602 567 q 601 590 603 583 q 596 597 600 596 l 593 597 q 573 563 583 589 q 556 506 563 536 q 550 456 550 476 q 557 437 550 438 m 1318 649 l 1319 648 l 1319 648 l 1318 649 m 1318 649 l 1317 649 q 1305 661 1310 652 q 1303 675 1303 666 q 1314 709 1303 684 q 1329 747 1322 730 l 1339 768 l 1336 764 q 1328 751 1333 759 q 1323 745 1325 748 q 1318 738 1320 741 q 1309 728 1316 735 q 1302 725 1305 725 q 1298 730 1299 728 q 1296 734 1297 733 q 1293 738 1295 737 q 1296 747 1293 741 q 1272 725 1280 725 q 1269 726 1271 725 q 1267 729 1267 728 q 1266 732 1267 731 l 1266 733 l 1265 733 l 1265 734 l 1264 735 q 1259 753 1259 737 q 1264 774 1259 761 q 1274 799 1270 787 q 1285 832 1278 812 q 1272 829 1278 830 q 1261 824 1265 827 q 1256 819 1257 821 q 1253 815 1254 817 q 1251 812 1252 813 q 1250 809 1251 810 q 1249 808 1249 808 q 1246 809 1249 808 q 1244 812 1244 811 l 1244 812 l 1241 816 q 1240 818 1241 817 q 1240 823 1240 819 q 1258 839 1240 833 q 1284 844 1276 844 l 1289 845 q 1293 856 1291 850 q 1297 868 1295 861 q 1314 878 1299 874 l 1322 880 q 1323 880 1322 880 q 1324 876 1324 880 q 1319 864 1322 871 q 1311 846 1316 856 q 1374 842 1359 846 q 1390 838 1379 842 q 1411 821 1411 833 q 1330 835 1386 835 l 1305 834 q 1283 780 1293 806 q 1274 748 1274 757 q 1277 747 1275 747 q 1294 759 1282 747 q 1312 780 1305 772 l 1320 789 l 1322 790 l 1325 792 l 1326 792 l 1327 794 l 1329 794 l 1332 795 q 1333 795 1333 795 l 1330 791 q 1310 749 1310 755 l 1310 748 q 1316 754 1312 748 l 1333 777 q 1357 802 1351 802 l 1360 801 l 1361 801 q 1362 800 1361 800 q 1363 800 1362 800 l 1364 800 l 1364 798 l 1358 783 l 1356 778 q 1326 705 1341 747 q 1316 658 1316 675 q 1318 649 1316 652 m 1420 732 q 1404 750 1407 732 l 1407 767 q 1423 793 1413 791 q 1423 793 1423 793 q 1424 793 1423 793 q 1427 792 1426 793 q 1430 790 1428 791 q 1432 779 1432 785 q 1428 763 1432 771 q 1415 748 1423 754 q 1416 744 1415 747 q 1418 741 1417 741 q 1425 745 1420 741 q 1434 757 1430 749 q 1438 777 1438 765 q 1436 798 1438 791 l 1434 806 q 1447 789 1444 804 l 1448 787 q 1449 774 1449 783 q 1440 745 1449 758 q 1420 732 1432 732 m 1331 652 l 1330 652 q 1328 653 1329 653 q 1326 655 1328 653 q 1324 658 1325 656 q 1322 661 1324 659 l 1322 663 q 1341 722 1322 675 q 1347 737 1344 729 q 1373 798 1371 796 l 1375 798 q 1377 797 1375 798 q 1380 797 1379 797 q 1382 795 1381 796 q 1384 793 1384 795 l 1384 791 l 1383 789 q 1357 732 1378 785 l 1392 795 q 1400 768 1400 791 q 1387 734 1400 734 q 1373 741 1376 734 q 1331 652 1339 678 m 239 245 l 237 245 q 216 250 229 245 q 192 272 203 255 q 180 323 182 288 q 182 351 180 334 q 182 358 182 357 q 189 423 186 401 l 191 437 l 167 387 q 141 340 149 350 q 129 332 137 332 q 121 338 124 332 q 104 354 117 351 q 95 380 95 357 q 111 454 95 410 q 150 532 127 498 q 198 569 174 567 q 218 543 214 567 l 232 574 q 248 600 243 600 q 260 609 252 601 q 269 614 264 614 q 269 613 269 614 q 271 613 269 613 q 273 612 272 613 q 276 602 276 609 q 259 545 275 581 q 234 472 246 513 q 221 375 221 431 q 252 247 221 301 q 239 245 248 245 m 418 282 l 408 286 q 390 308 397 292 q 380 368 380 328 q 386 437 380 402 q 398 496 391 471 l 382 451 q 360 381 361 395 l 355 382 q 343 387 350 384 q 331 394 336 390 q 322 407 325 399 q 320 430 320 416 q 331 491 320 452 q 355 565 341 531 q 377 607 368 599 l 395 605 q 405 599 405 603 l 389 562 q 366 497 377 532 q 352 439 354 463 l 364 467 q 394 532 376 495 q 427 597 411 568 q 449 625 442 625 l 450 625 q 463 620 456 623 q 465 619 464 620 q 467 617 466 618 q 468 616 467 617 q 469 616 469 616 q 469 615 469 616 q 470 614 469 615 l 456 583 q 429 502 442 552 q 413 395 415 452 l 424 431 q 451 514 435 467 q 512 647 492 633 l 527 644 q 532 643 529 644 q 538 641 534 642 q 541 637 541 639 l 541 636 l 525 584 q 486 389 486 451 q 489 360 486 367 q 498 353 492 353 q 529 362 506 353 q 619 383 588 383 q 663 372 644 383 l 665 370 q 671 364 669 366 q 673 362 673 362 q 675 360 673 361 l 674 360 l 648 358 q 519 319 588 351 l 517 318 q 514 316 516 317 q 507 315 511 315 q 477 338 490 315 l 473 340 q 470 343 472 341 q 465 349 468 345 q 452 391 452 361 q 465 467 452 412 l 476 519 l 467 495 q 447 433 458 470 q 427 357 436 396 q 417 289 417 319 l 418 282 m 441 165 q 279 243 327 165 q 245 363 245 297 q 266 503 245 434 q 319 631 286 572 q 267 633 296 633 q 165 621 208 633 q 106 574 122 608 l 103 584 q 100 605 100 593 q 168 667 100 661 q 222 670 196 670 q 291 668 260 670 q 333 666 315 666 q 339 667 336 666 q 434 782 385 738 q 518 825 483 825 q 542 800 542 825 q 537 772 542 796 q 514 718 532 749 q 355 630 470 644 q 330 566 347 612 q 286 365 286 447 q 328 256 286 302 q 434 210 371 210 q 577 233 496 210 q 745 283 658 255 q 920 337 834 313 q 1073 360 1006 360 q 1183 344 1140 360 q 1250 307 1226 328 q 1284 267 1274 286 l 1286 254 l 1269 269 q 1209 298 1251 283 q 1095 312 1166 312 q 960 299 1026 312 q 831 268 894 287 q 709 229 768 249 q 567 183 635 202 q 441 165 500 165 m 777 333 l 770 333 q 730 350 747 333 q 713 391 713 367 q 724 465 713 409 q 755 608 741 548 q 765 648 764 643 q 770 656 767 653 q 774 661 772 659 q 777 665 776 663 q 739 650 768 657 q 719 644 728 646 l 710 642 q 711 617 711 631 q 703 527 711 576 q 682 444 694 479 q 652 408 669 408 q 646 410 648 408 q 642 415 644 412 q 636 423 640 418 q 622 433 632 427 q 609 457 612 438 q 606 494 606 476 l 607 523 l 593 471 q 557 406 572 406 q 547 414 553 406 q 543 417 547 416 q 534 421 539 418 q 521 463 521 431 q 548 577 521 523 q 597 631 575 631 q 618 602 612 631 q 631 623 626 616 q 642 631 638 631 l 646 632 q 662 628 657 632 l 665 627 q 644 586 656 618 q 631 500 631 553 q 634 465 631 485 l 635 461 q 641 449 638 452 l 644 447 q 667 507 654 458 q 680 608 680 556 q 676 650 680 630 q 650 667 659 656 q 642 689 642 678 q 648 708 642 701 q 661 718 654 715 q 673 721 669 721 q 695 706 687 721 q 707 669 703 692 q 758 684 724 671 l 762 685 q 777 692 772 688 l 785 699 q 797 705 789 705 q 808 700 803 705 q 812 686 812 694 l 812 686 l 796 631 q 757 422 757 495 q 777 333 757 371 m 1306 361 l 1305 361 q 1298 362 1303 361 q 1286 363 1293 363 q 1254 379 1272 367 q 1211 496 1211 410 q 1214 530 1211 518 q 1220 552 1216 543 q 1226 576 1223 562 l 1198 505 q 1186 477 1192 488 q 1170 451 1175 454 q 1168 450 1169 451 q 1164 450 1167 450 q 1157 456 1160 450 q 1150 465 1153 463 q 1139 470 1147 468 q 1127 502 1127 471 q 1141 577 1127 532 q 1175 656 1154 622 q 1219 690 1196 690 q 1236 673 1229 690 l 1240 656 q 1259 695 1254 693 q 1267 702 1264 696 q 1270 704 1269 703 q 1274 708 1272 705 q 1279 710 1276 710 q 1280 710 1280 710 q 1282 709 1281 709 q 1285 706 1284 709 q 1287 695 1287 703 q 1272 624 1287 672 q 1253 555 1261 592 q 1242 467 1242 513 q 1257 396 1242 418 q 1293 375 1272 375 q 1312 380 1297 375 q 1344 402 1327 385 q 1373 453 1360 419 q 1385 547 1385 488 q 1384 576 1385 554 q 1380 617 1383 597 q 1369 636 1377 636 q 1355 615 1365 636 q 1335 564 1344 595 q 1326 504 1326 534 q 1333 463 1326 481 l 1333 463 q 1334 460 1333 462 q 1337 459 1335 459 q 1339 458 1338 458 l 1337 457 q 1333 454 1337 456 q 1324 453 1329 453 q 1301 479 1310 453 l 1301 481 q 1297 496 1300 487 l 1293 510 q 1286 535 1286 517 q 1301 586 1286 557 q 1338 636 1316 614 q 1380 657 1360 657 q 1406 653 1392 657 q 1428 632 1419 648 q 1436 583 1436 616 q 1427 512 1436 550 q 1400 439 1418 473 q 1359 383 1383 405 q 1306 361 1335 361 m 1095 637 l 1082 612 q 998 417 1013 469 l 997 414 q 995 408 997 411 q 991 401 993 404 q 987 399 990 399 q 987 399 987 399 q 973 409 980 406 q 964 417 966 412 l 963 419 q 962 433 962 423 q 966 501 962 465 q 901 463 928 463 q 882 471 890 463 q 862 497 869 486 l 854 507 l 848 485 q 842 464 845 475 q 836 435 839 454 q 833 420 834 427 q 831 408 831 414 q 818 375 824 375 q 816 376 817 375 q 803 385 810 381 q 791 397 796 389 q 785 428 785 405 q 802 564 785 489 q 840 706 819 639 q 878 815 862 774 q 856 816 869 816 q 802 814 835 816 q 646 745 671 808 l 643 754 q 638 776 640 762 q 676 835 638 822 q 756 848 713 848 q 824 851 793 851 q 894 857 884 851 q 907 867 901 867 q 917 854 913 867 l 918 850 q 928 831 922 837 q 929 827 929 829 l 904 770 q 833 524 846 633 q 850 572 840 547 q 943 715 903 715 q 954 711 947 715 q 967 699 962 707 q 972 673 972 690 q 962 622 972 656 q 931 558 952 588 q 878 518 911 528 l 878 517 q 889 504 882 512 q 905 496 897 496 q 934 510 920 496 q 978 570 958 534 q 1054 825 1003 685 l 1071 869 l 1072 871 q 1078 878 1074 876 q 1080 880 1078 879 q 1085 882 1082 882 q 1095 869 1090 882 q 1105 845 1101 850 q 1107 842 1107 843 l 1107 841 q 1082 785 1103 834 q 1008 522 1021 648 l 1017 547 q 1120 685 1075 685 l 1135 685 q 1155 673 1155 685 q 1147 656 1155 669 q 1105 499 1105 580 q 1154 417 1107 446 q 1192 408 1172 408 l 1195 408 l 1189 399 q 1181 393 1185 395 q 1146 387 1171 387 q 1107 395 1123 387 q 1072 437 1082 410 q 1063 478 1063 454 l 1064 489 q 1087 610 1067 541 q 1095 637 1093 631 z "},"6":{"ha":1678,"x_min":95,"x_max":1449,"o":"m 1162 488 q 1170 504 1163 488 q 1183 532 1176 515 l 1187 543 q 1208 590 1199 567 l 1230 641 q 1227 653 1230 647 l 1226 657 q 1221 667 1223 667 q 1202 640 1217 667 q 1174 574 1187 613 q 1160 498 1160 535 q 1162 488 1160 488 m 1417 758 q 1425 780 1425 768 l 1425 781 l 1424 781 q 1422 779 1423 781 q 1421 774 1421 776 q 1417 758 1418 767 m 1374 743 q 1388 749 1385 743 q 1391 764 1391 755 q 1390 772 1391 768 l 1390 774 l 1374 743 m 871 549 q 902 575 889 555 q 924 618 916 595 q 937 660 932 641 q 941 681 941 678 l 926 659 q 896 607 912 637 q 871 549 880 576 m 128 370 q 142 393 130 370 q 182 469 169 443 l 208 519 q 207 524 208 521 q 206 532 207 527 q 203 539 205 536 q 201 544 202 543 q 200 545 201 545 q 176 516 193 544 q 144 449 159 488 q 127 376 129 410 l 128 370 m 376 669 q 424 679 400 669 q 477 718 448 688 q 498 751 490 734 q 507 781 505 768 l 510 794 l 486 779 q 430 734 462 763 q 373 669 399 706 l 376 669 m 557 437 q 563 450 559 437 q 574 480 568 462 q 586 518 580 498 q 596 552 591 537 q 604 572 602 567 q 601 590 603 583 q 596 597 600 596 l 593 597 q 573 563 583 589 q 556 506 563 536 q 550 456 550 476 q 557 437 550 438 m 1318 649 l 1319 648 l 1319 648 l 1318 649 m 1318 649 l 1317 649 q 1305 661 1310 652 q 1303 675 1303 666 q 1314 709 1303 684 q 1329 747 1322 730 l 1339 768 l 1336 764 q 1328 751 1333 759 q 1323 745 1325 748 q 1318 738 1320 741 q 1309 728 1316 735 q 1302 725 1305 725 q 1298 730 1299 728 q 1296 734 1297 733 q 1293 738 1295 737 q 1296 747 1293 741 q 1272 725 1280 725 q 1269 726 1271 725 q 1267 729 1267 728 q 1266 732 1267 731 l 1266 733 l 1265 733 l 1265 734 l 1264 735 q 1259 753 1259 737 q 1264 774 1259 761 q 1274 799 1270 787 q 1285 832 1278 812 q 1272 829 1278 830 q 1261 824 1265 827 q 1256 819 1257 821 q 1253 815 1254 817 q 1251 812 1252 813 q 1250 809 1251 810 q 1249 808 1249 808 q 1246 809 1249 808 q 1244 812 1244 811 l 1244 812 l 1241 816 q 1240 818 1241 817 q 1240 823 1240 819 q 1258 839 1240 833 q 1284 844 1276 844 l 1289 845 q 1293 856 1291 850 q 1297 868 1295 861 q 1314 878 1299 874 l 1322 880 q 1323 880 1322 880 q 1324 876 1324 880 q 1319 864 1322 871 q 1311 846 1316 856 q 1374 842 1359 846 q 1390 838 1379 842 q 1411 821 1411 833 q 1330 835 1386 835 l 1305 834 q 1283 780 1293 806 q 1274 748 1274 757 q 1277 747 1275 747 q 1294 759 1282 747 q 1312 780 1305 772 l 1320 789 l 1322 790 l 1325 792 l 1326 792 l 1327 794 l 1329 794 l 1332 795 q 1333 795 1333 795 l 1330 791 q 1310 749 1310 755 l 1310 748 q 1316 754 1312 748 l 1333 777 q 1357 802 1351 802 l 1360 801 l 1361 801 q 1362 800 1361 800 q 1363 800 1362 800 l 1364 800 l 1364 798 l 1358 783 l 1356 778 q 1326 705 1341 747 q 1316 658 1316 675 q 1318 649 1316 652 m 1420 732 q 1404 750 1407 732 l 1407 767 q 1423 793 1413 791 q 1423 793 1423 793 q 1424 793 1423 793 q 1427 792 1426 793 q 1430 790 1428 791 q 1432 779 1432 785 q 1428 763 1432 771 q 1415 748 1423 754 q 1416 744 1415 747 q 1418 741 1417 741 q 1425 745 1420 741 q 1434 757 1430 749 q 1438 777 1438 765 q 1436 798 1438 791 l 1434 806 q 1447 789 1444 804 l 1448 787 q 1449 774 1449 783 q 1440 745 1449 758 q 1420 732 1432 732 m 1331 652 l 1330 652 q 1328 653 1329 653 q 1326 655 1328 653 q 1324 658 1325 656 q 1322 661 1324 659 l 1322 663 q 1341 722 1322 675 q 1347 737 1344 729 q 1373 798 1371 796 l 1375 798 q 1377 797 1375 798 q 1380 797 1379 797 q 1382 795 1381 796 q 1384 793 1384 795 l 1384 791 l 1383 789 q 1357 732 1378 785 l 1392 795 q 1400 768 1400 791 q 1387 734 1400 734 q 1373 741 1376 734 q 1331 652 1339 678 m 239 245 l 237 245 q 216 250 229 245 q 192 272 203 255 q 180 323 182 288 q 182 351 180 334 q 182 358 182 357 q 189 423 186 401 l 191 437 l 167 387 q 141 340 149 350 q 129 332 137 332 q 121 338 124 332 q 104 354 117 351 q 95 380 95 357 q 111 454 95 410 q 150 532 127 498 q 198 569 174 567 q 218 543 214 567 l 232 574 q 248 600 243 600 q 260 609 252 601 q 269 614 264 614 q 269 613 269 614 q 271 613 269 613 q 273 612 272 613 q 276 602 276 609 q 259 545 275 581 q 234 472 246 513 q 221 375 221 431 q 252 247 221 301 q 239 245 248 245 m 418 282 l 408 286 q 390 308 397 292 q 380 368 380 328 q 386 437 380 402 q 398 496 391 471 l 382 451 q 360 381 361 395 l 355 382 q 343 387 350 384 q 331 394 336 390 q 322 407 325 399 q 320 430 320 416 q 331 491 320 452 q 355 565 341 531 q 377 607 368 599 l 395 605 q 405 599 405 603 l 389 562 q 366 497 377 532 q 352 439 354 463 l 364 467 q 394 532 376 495 q 427 597 411 568 q 449 625 442 625 l 450 625 q 463 620 456 623 q 465 619 464 620 q 467 617 466 618 q 468 616 467 617 q 469 616 469 616 q 469 615 469 616 q 470 614 469 615 l 456 583 q 429 502 442 552 q 413 395 415 452 l 424 431 q 451 514 435 467 q 512 647 492 633 l 527 644 q 532 643 529 644 q 538 641 534 642 q 541 637 541 639 l 541 636 l 525 584 q 486 389 486 451 q 489 360 486 367 q 498 353 492 353 q 529 362 506 353 q 619 383 588 383 q 663 372 644 383 l 665 370 q 671 364 669 366 q 673 362 673 362 q 675 360 673 361 l 674 360 l 648 358 q 519 319 588 351 l 517 318 q 514 316 516 317 q 507 315 511 315 q 477 338 490 315 l 473 340 q 470 343 472 341 q 465 349 468 345 q 452 391 452 361 q 465 467 452 412 l 476 519 l 467 495 q 447 433 458 470 q 427 357 436 396 q 417 289 417 319 l 418 282 m 441 165 q 279 243 327 165 q 245 363 245 297 q 266 503 245 434 q 319 631 286 572 q 267 633 296 633 q 165 621 208 633 q 106 574 122 608 l 103 584 q 100 605 100 593 q 168 667 100 661 q 222 670 196 670 q 291 668 260 670 q 333 666 315 666 q 339 667 336 666 q 434 782 385 738 q 518 825 483 825 q 542 800 542 825 q 537 772 542 796 q 514 718 532 749 q 355 630 470 644 q 330 566 347 612 q 286 365 286 447 q 328 256 286 302 q 434 210 371 210 q 577 233 496 210 q 745 283 658 255 q 920 337 834 313 q 1073 360 1006 360 q 1183 344 1140 360 q 1250 307 1226 328 q 1284 267 1274 286 l 1286 254 l 1269 269 q 1209 298 1251 283 q 1095 312 1166 312 q 960 299 1026 312 q 831 268 894 287 q 709 229 768 249 q 567 183 635 202 q 441 165 500 165 m 777 333 l 770 333 q 730 350 747 333 q 713 391 713 367 q 724 465 713 409 q 755 608 741 548 q 765 648 764 643 q 770 656 767 653 q 774 661 772 659 q 777 665 776 663 q 739 650 768 657 q 719 644 728 646 l 710 642 q 711 617 711 631 q 703 527 711 576 q 682 444 694 479 q 652 408 669 408 q 646 410 648 408 q 642 415 644 412 q 636 423 640 418 q 622 433 632 427 q 609 457 612 438 q 606 494 606 476 l 607 523 l 593 471 q 557 406 572 406 q 547 414 553 406 q 543 417 547 416 q 534 421 539 418 q 521 463 521 431 q 548 577 521 523 q 597 631 575 631 q 618 602 612 631 q 631 623 626 616 q 642 631 638 631 l 646 632 q 662 628 657 632 l 665 627 q 644 586 656 618 q 631 500 631 553 q 634 465 631 485 l 635 461 q 641 449 638 452 l 644 447 q 667 507 654 458 q 680 608 680 556 q 676 650 680 630 q 650 667 659 656 q 642 689 642 678 q 648 708 642 701 q 661 718 654 715 q 673 721 669 721 q 695 706 687 721 q 707 669 703 692 q 758 684 724 671 l 762 685 q 777 692 772 688 l 785 699 q 797 705 789 705 q 808 700 803 705 q 812 686 812 694 l 812 686 l 796 631 q 757 422 757 495 q 777 333 757 371 m 1306 361 l 1305 361 q 1298 362 1303 361 q 1286 363 1293 363 q 1254 379 1272 367 q 1211 496 1211 410 q 1214 530 1211 518 q 1220 552 1216 543 q 1226 576 1223 562 l 1198 505 q 1186 477 1192 488 q 1170 451 1175 454 q 1168 450 1169 451 q 1164 450 1167 450 q 1157 456 1160 450 q 1150 465 1153 463 q 1139 470 1147 468 q 1127 502 1127 471 q 1141 577 1127 532 q 1175 656 1154 622 q 1219 690 1196 690 q 1236 673 1229 690 l 1240 656 q 1259 695 1254 693 q 1267 702 1264 696 q 1270 704 1269 703 q 1274 708 1272 705 q 1279 710 1276 710 q 1280 710 1280 710 q 1282 709 1281 709 q 1285 706 1284 709 q 1287 695 1287 703 q 1272 624 1287 672 q 1253 555 1261 592 q 1242 467 1242 513 q 1257 396 1242 418 q 1293 375 1272 375 q 1312 380 1297 375 q 1344 402 1327 385 q 1373 453 1360 419 q 1385 547 1385 488 q 1384 576 1385 554 q 1380 617 1383 597 q 1369 636 1377 636 q 1355 615 1365 636 q 1335 564 1344 595 q 1326 504 1326 534 q 1333 463 1326 481 l 1333 463 q 1334 460 1333 462 q 1337 459 1335 459 q 1339 458 1338 458 l 1337 457 q 1333 454 1337 456 q 1324 453 1329 453 q 1301 479 1310 453 l 1301 481 q 1297 496 1300 487 l 1293 510 q 1286 535 1286 517 q 1301 586 1286 557 q 1338 636 1316 614 q 1380 657 1360 657 q 1406 653 1392 657 q 1428 632 1419 648 q 1436 583 1436 616 q 1427 512 1436 550 q 1400 439 1418 473 q 1359 383 1383 405 q 1306 361 1335 361 m 1095 637 l 1082 612 q 998 417 1013 469 l 997 414 q 995 408 997 411 q 991 401 993 404 q 987 399 990 399 q 987 399 987 399 q 973 409 980 406 q 964 417 966 412 l 963 419 q 962 433 962 423 q 966 501 962 465 q 901 463 928 463 q 882 471 890 463 q 862 497 869 486 l 854 507 l 848 485 q 842 464 845 475 q 836 435 839 454 q 833 420 834 427 q 831 408 831 414 q 818 375 824 375 q 816 376 817 375 q 803 385 810 381 q 791 397 796 389 q 785 428 785 405 q 802 564 785 489 q 840 706 819 639 q 878 815 862 774 q 856 816 869 816 q 802 814 835 816 q 646 745 671 808 l 643 754 q 638 776 640 762 q 676 835 638 822 q 756 848 713 848 q 824 851 793 851 q 894 857 884 851 q 907 867 901 867 q 917 854 913 867 l 918 850 q 928 831 922 837 q 929 827 929 829 l 904 770 q 833 524 846 633 q 850 572 840 547 q 943 715 903 715 q 954 711 947 715 q 967 699 962 707 q 972 673 972 690 q 962 622 972 656 q 931 558 952 588 q 878 518 911 528 l 878 517 q 889 504 882 512 q 905 496 897 496 q 934 510 920 496 q 978 570 958 534 q 1054 825 1003 685 l 1071 869 l 1072 871 q 1078 878 1074 876 q 1080 880 1078 879 q 1085 882 1082 882 q 1095 869 1090 882 q 1105 845 1101 850 q 1107 842 1107 843 l 1107 841 q 1082 785 1103 834 q 1008 522 1021 648 l 1017 547 q 1120 685 1075 685 l 1135 685 q 1155 673 1155 685 q 1147 656 1155 669 q 1105 499 1105 580 q 1154 417 1107 446 q 1192 408 1172 408 l 1195 408 l 1189 399 q 1181 393 1185 395 q 1146 387 1171 387 q 1107 395 1123 387 q 1072 437 1082 410 q 1063 478 1063 454 l 1064 489 q 1087 610 1067 541 q 1095 637 1093 631 z "},"7":{"ha":1678,"x_min":95,"x_max":1449,"o":"m 1162 488 q 1170 504 1163 488 q 1183 532 1176 515 l 1187 543 q 1208 590 1199 567 l 1230 641 q 1227 653 1230 647 l 1226 657 q 1221 667 1223 667 q 1202 640 1217 667 q 1174 574 1187 613 q 1160 498 1160 535 q 1162 488 1160 488 m 1417 758 q 1425 780 1425 768 l 1425 781 l 1424 781 q 1422 779 1423 781 q 1421 774 1421 776 q 1417 758 1418 767 m 1374 743 q 1388 749 1385 743 q 1391 764 1391 755 q 1390 772 1391 768 l 1390 774 l 1374 743 m 871 549 q 902 575 889 555 q 924 618 916 595 q 937 660 932 641 q 941 681 941 678 l 926 659 q 896 607 912 637 q 871 549 880 576 m 128 370 q 142 393 130 370 q 182 469 169 443 l 208 519 q 207 524 208 521 q 206 532 207 527 q 203 539 205 536 q 201 544 202 543 q 200 545 201 545 q 176 516 193 544 q 144 449 159 488 q 127 376 129 410 l 128 370 m 376 669 q 424 679 400 669 q 477 718 448 688 q 498 751 490 734 q 507 781 505 768 l 510 794 l 486 779 q 430 734 462 763 q 373 669 399 706 l 376 669 m 557 437 q 563 450 559 437 q 574 480 568 462 q 586 518 580 498 q 596 552 591 537 q 604 572 602 567 q 601 590 603 583 q 596 597 600 596 l 593 597 q 573 563 583 589 q 556 506 563 536 q 550 456 550 476 q 557 437 550 438 m 1318 649 l 1319 648 l 1319 648 l 1318 649 m 1318 649 l 1317 649 q 1305 661 1310 652 q 1303 675 1303 666 q 1314 709 1303 684 q 1329 747 1322 730 l 1339 768 l 1336 764 q 1328 751 1333 759 q 1323 745 1325 748 q 1318 738 1320 741 q 1309 728 1316 735 q 1302 725 1305 725 q 1298 730 1299 728 q 1296 734 1297 733 q 1293 738 1295 737 q 1296 747 1293 741 q 1272 725 1280 725 q 1269 726 1271 725 q 1267 729 1267 728 q 1266 732 1267 731 l 1266 733 l 1265 733 l 1265 734 l 1264 735 q 1259 753 1259 737 q 1264 774 1259 761 q 1274 799 1270 787 q 1285 832 1278 812 q 1272 829 1278 830 q 1261 824 1265 827 q 1256 819 1257 821 q 1253 815 1254 817 q 1251 812 1252 813 q 1250 809 1251 810 q 1249 808 1249 808 q 1246 809 1249 808 q 1244 812 1244 811 l 1244 812 l 1241 816 q 1240 818 1241 817 q 1240 823 1240 819 q 1258 839 1240 833 q 1284 844 1276 844 l 1289 845 q 1293 856 1291 850 q 1297 868 1295 861 q 1314 878 1299 874 l 1322 880 q 1323 880 1322 880 q 1324 876 1324 880 q 1319 864 1322 871 q 1311 846 1316 856 q 1374 842 1359 846 q 1390 838 1379 842 q 1411 821 1411 833 q 1330 835 1386 835 l 1305 834 q 1283 780 1293 806 q 1274 748 1274 757 q 1277 747 1275 747 q 1294 759 1282 747 q 1312 780 1305 772 l 1320 789 l 1322 790 l 1325 792 l 1326 792 l 1327 794 l 1329 794 l 1332 795 q 1333 795 1333 795 l 1330 791 q 1310 749 1310 755 l 1310 748 q 1316 754 1312 748 l 1333 777 q 1357 802 1351 802 l 1360 801 l 1361 801 q 1362 800 1361 800 q 1363 800 1362 800 l 1364 800 l 1364 798 l 1358 783 l 1356 778 q 1326 705 1341 747 q 1316 658 1316 675 q 1318 649 1316 652 m 1420 732 q 1404 750 1407 732 l 1407 767 q 1423 793 1413 791 q 1423 793 1423 793 q 1424 793 1423 793 q 1427 792 1426 793 q 1430 790 1428 791 q 1432 779 1432 785 q 1428 763 1432 771 q 1415 748 1423 754 q 1416 744 1415 747 q 1418 741 1417 741 q 1425 745 1420 741 q 1434 757 1430 749 q 1438 777 1438 765 q 1436 798 1438 791 l 1434 806 q 1447 789 1444 804 l 1448 787 q 1449 774 1449 783 q 1440 745 1449 758 q 1420 732 1432 732 m 1331 652 l 1330 652 q 1328 653 1329 653 q 1326 655 1328 653 q 1324 658 1325 656 q 1322 661 1324 659 l 1322 663 q 1341 722 1322 675 q 1347 737 1344 729 q 1373 798 1371 796 l 1375 798 q 1377 797 1375 798 q 1380 797 1379 797 q 1382 795 1381 796 q 1384 793 1384 795 l 1384 791 l 1383 789 q 1357 732 1378 785 l 1392 795 q 1400 768 1400 791 q 1387 734 1400 734 q 1373 741 1376 734 q 1331 652 1339 678 m 239 245 l 237 245 q 216 250 229 245 q 192 272 203 255 q 180 323 182 288 q 182 351 180 334 q 182 358 182 357 q 189 423 186 401 l 191 437 l 167 387 q 141 340 149 350 q 129 332 137 332 q 121 338 124 332 q 104 354 117 351 q 95 380 95 357 q 111 454 95 410 q 150 532 127 498 q 198 569 174 567 q 218 543 214 567 l 232 574 q 248 600 243 600 q 260 609 252 601 q 269 614 264 614 q 269 613 269 614 q 271 613 269 613 q 273 612 272 613 q 276 602 276 609 q 259 545 275 581 q 234 472 246 513 q 221 375 221 431 q 252 247 221 301 q 239 245 248 245 m 418 282 l 408 286 q 390 308 397 292 q 380 368 380 328 q 386 437 380 402 q 398 496 391 471 l 382 451 q 360 381 361 395 l 355 382 q 343 387 350 384 q 331 394 336 390 q 322 407 325 399 q 320 430 320 416 q 331 491 320 452 q 355 565 341 531 q 377 607 368 599 l 395 605 q 405 599 405 603 l 389 562 q 366 497 377 532 q 352 439 354 463 l 364 467 q 394 532 376 495 q 427 597 411 568 q 449 625 442 625 l 450 625 q 463 620 456 623 q 465 619 464 620 q 467 617 466 618 q 468 616 467 617 q 469 616 469 616 q 469 615 469 616 q 470 614 469 615 l 456 583 q 429 502 442 552 q 413 395 415 452 l 424 431 q 451 514 435 467 q 512 647 492 633 l 527 644 q 532 643 529 644 q 538 641 534 642 q 541 637 541 639 l 541 636 l 525 584 q 486 389 486 451 q 489 360 486 367 q 498 353 492 353 q 529 362 506 353 q 619 383 588 383 q 663 372 644 383 l 665 370 q 671 364 669 366 q 673 362 673 362 q 675 360 673 361 l 674 360 l 648 358 q 519 319 588 351 l 517 318 q 514 316 516 317 q 507 315 511 315 q 477 338 490 315 l 473 340 q 470 343 472 341 q 465 349 468 345 q 452 391 452 361 q 465 467 452 412 l 476 519 l 467 495 q 447 433 458 470 q 427 357 436 396 q 417 289 417 319 l 418 282 m 441 165 q 279 243 327 165 q 245 363 245 297 q 266 503 245 434 q 319 631 286 572 q 267 633 296 633 q 165 621 208 633 q 106 574 122 608 l 103 584 q 100 605 100 593 q 168 667 100 661 q 222 670 196 670 q 291 668 260 670 q 333 666 315 666 q 339 667 336 666 q 434 782 385 738 q 518 825 483 825 q 542 800 542 825 q 537 772 542 796 q 514 718 532 749 q 355 630 470 644 q 330 566 347 612 q 286 365 286 447 q 328 256 286 302 q 434 210 371 210 q 577 233 496 210 q 745 283 658 255 q 920 337 834 313 q 1073 360 1006 360 q 1183 344 1140 360 q 1250 307 1226 328 q 1284 267 1274 286 l 1286 254 l 1269 269 q 1209 298 1251 283 q 1095 312 1166 312 q 960 299 1026 312 q 831 268 894 287 q 709 229 768 249 q 567 183 635 202 q 441 165 500 165 m 777 333 l 770 333 q 730 350 747 333 q 713 391 713 367 q 724 465 713 409 q 755 608 741 548 q 765 648 764 643 q 770 656 767 653 q 774 661 772 659 q 777 665 776 663 q 739 650 768 657 q 719 644 728 646 l 710 642 q 711 617 711 631 q 703 527 711 576 q 682 444 694 479 q 652 408 669 408 q 646 410 648 408 q 642 415 644 412 q 636 423 640 418 q 622 433 632 427 q 609 457 612 438 q 606 494 606 476 l 607 523 l 593 471 q 557 406 572 406 q 547 414 553 406 q 543 417 547 416 q 534 421 539 418 q 521 463 521 431 q 548 577 521 523 q 597 631 575 631 q 618 602 612 631 q 631 623 626 616 q 642 631 638 631 l 646 632 q 662 628 657 632 l 665 627 q 644 586 656 618 q 631 500 631 553 q 634 465 631 485 l 635 461 q 641 449 638 452 l 644 447 q 667 507 654 458 q 680 608 680 556 q 676 650 680 630 q 650 667 659 656 q 642 689 642 678 q 648 708 642 701 q 661 718 654 715 q 673 721 669 721 q 695 706 687 721 q 707 669 703 692 q 758 684 724 671 l 762 685 q 777 692 772 688 l 785 699 q 797 705 789 705 q 808 700 803 705 q 812 686 812 694 l 812 686 l 796 631 q 757 422 757 495 q 777 333 757 371 m 1306 361 l 1305 361 q 1298 362 1303 361 q 1286 363 1293 363 q 1254 379 1272 367 q 1211 496 1211 410 q 1214 530 1211 518 q 1220 552 1216 543 q 1226 576 1223 562 l 1198 505 q 1186 477 1192 488 q 1170 451 1175 454 q 1168 450 1169 451 q 1164 450 1167 450 q 1157 456 1160 450 q 1150 465 1153 463 q 1139 470 1147 468 q 1127 502 1127 471 q 1141 577 1127 532 q 1175 656 1154 622 q 1219 690 1196 690 q 1236 673 1229 690 l 1240 656 q 1259 695 1254 693 q 1267 702 1264 696 q 1270 704 1269 703 q 1274 708 1272 705 q 1279 710 1276 710 q 1280 710 1280 710 q 1282 709 1281 709 q 1285 706 1284 709 q 1287 695 1287 703 q 1272 624 1287 672 q 1253 555 1261 592 q 1242 467 1242 513 q 1257 396 1242 418 q 1293 375 1272 375 q 1312 380 1297 375 q 1344 402 1327 385 q 1373 453 1360 419 q 1385 547 1385 488 q 1384 576 1385 554 q 1380 617 1383 597 q 1369 636 1377 636 q 1355 615 1365 636 q 1335 564 1344 595 q 1326 504 1326 534 q 1333 463 1326 481 l 1333 463 q 1334 460 1333 462 q 1337 459 1335 459 q 1339 458 1338 458 l 1337 457 q 1333 454 1337 456 q 1324 453 1329 453 q 1301 479 1310 453 l 1301 481 q 1297 496 1300 487 l 1293 510 q 1286 535 1286 517 q 1301 586 1286 557 q 1338 636 1316 614 q 1380 657 1360 657 q 1406 653 1392 657 q 1428 632 1419 648 q 1436 583 1436 616 q 1427 512 1436 550 q 1400 439 1418 473 q 1359 383 1383 405 q 1306 361 1335 361 m 1095 637 l 1082 612 q 998 417 1013 469 l 997 414 q 995 408 997 411 q 991 401 993 404 q 987 399 990 399 q 987 399 987 399 q 973 409 980 406 q 964 417 966 412 l 963 419 q 962 433 962 423 q 966 501 962 465 q 901 463 928 463 q 882 471 890 463 q 862 497 869 486 l 854 507 l 848 485 q 842 464 845 475 q 836 435 839 454 q 833 420 834 427 q 831 408 831 414 q 818 375 824 375 q 816 376 817 375 q 803 385 810 381 q 791 397 796 389 q 785 428 785 405 q 802 564 785 489 q 840 706 819 639 q 878 815 862 774 q 856 816 869 816 q 802 814 835 816 q 646 745 671 808 l 643 754 q 638 776 640 762 q 676 835 638 822 q 756 848 713 848 q 824 851 793 851 q 894 857 884 851 q 907 867 901 867 q 917 854 913 867 l 918 850 q 928 831 922 837 q 929 827 929 829 l 904 770 q 833 524 846 633 q 850 572 840 547 q 943 715 903 715 q 954 711 947 715 q 967 699 962 707 q 972 673 972 690 q 962 622 972 656 q 931 558 952 588 q 878 518 911 528 l 878 517 q 889 504 882 512 q 905 496 897 496 q 934 510 920 496 q 978 570 958 534 q 1054 825 1003 685 l 1071 869 l 1072 871 q 1078 878 1074 876 q 1080 880 1078 879 q 1085 882 1082 882 q 1095 869 1090 882 q 1105 845 1101 850 q 1107 842 1107 843 l 1107 841 q 1082 785 1103 834 q 1008 522 1021 648 l 1017 547 q 1120 685 1075 685 l 1135 685 q 1155 673 1155 685 q 1147 656 1155 669 q 1105 499 1105 580 q 1154 417 1107 446 q 1192 408 1172 408 l 1195 408 l 1189 399 q 1181 393 1185 395 q 1146 387 1171 387 q 1107 395 1123 387 q 1072 437 1082 410 q 1063 478 1063 454 l 1064 489 q 1087 610 1067 541 q 1095 637 1093 631 z "},"8":{"ha":1678,"x_min":95,"x_max":1449,"o":"m 1162 488 q 1170 504 1163 488 q 1183 532 1176 515 l 1187 543 q 1208 590 1199 567 l 1230 641 q 1227 653 1230 647 l 1226 657 q 1221 667 1223 667 q 1202 640 1217 667 q 1174 574 1187 613 q 1160 498 1160 535 q 1162 488 1160 488 m 1417 758 q 1425 780 1425 768 l 1425 781 l 1424 781 q 1422 779 1423 781 q 1421 774 1421 776 q 1417 758 1418 767 m 1374 743 q 1388 749 1385 743 q 1391 764 1391 755 q 1390 772 1391 768 l 1390 774 l 1374 743 m 871 549 q 902 575 889 555 q 924 618 916 595 q 937 660 932 641 q 941 681 941 678 l 926 659 q 896 607 912 637 q 871 549 880 576 m 128 370 q 142 393 130 370 q 182 469 169 443 l 208 519 q 207 524 208 521 q 206 532 207 527 q 203 539 205 536 q 201 544 202 543 q 200 545 201 545 q 176 516 193 544 q 144 449 159 488 q 127 376 129 410 l 128 370 m 376 669 q 424 679 400 669 q 477 718 448 688 q 498 751 490 734 q 507 781 505 768 l 510 794 l 486 779 q 430 734 462 763 q 373 669 399 706 l 376 669 m 557 437 q 563 450 559 437 q 574 480 568 462 q 586 518 580 498 q 596 552 591 537 q 604 572 602 567 q 601 590 603 583 q 596 597 600 596 l 593 597 q 573 563 583 589 q 556 506 563 536 q 550 456 550 476 q 557 437 550 438 m 1318 649 l 1319 648 l 1319 648 l 1318 649 m 1318 649 l 1317 649 q 1305 661 1310 652 q 1303 675 1303 666 q 1314 709 1303 684 q 1329 747 1322 730 l 1339 768 l 1336 764 q 1328 751 1333 759 q 1323 745 1325 748 q 1318 738 1320 741 q 1309 728 1316 735 q 1302 725 1305 725 q 1298 730 1299 728 q 1296 734 1297 733 q 1293 738 1295 737 q 1296 747 1293 741 q 1272 725 1280 725 q 1269 726 1271 725 q 1267 729 1267 728 q 1266 732 1267 731 l 1266 733 l 1265 733 l 1265 734 l 1264 735 q 1259 753 1259 737 q 1264 774 1259 761 q 1274 799 1270 787 q 1285 832 1278 812 q 1272 829 1278 830 q 1261 824 1265 827 q 1256 819 1257 821 q 1253 815 1254 817 q 1251 812 1252 813 q 1250 809 1251 810 q 1249 808 1249 808 q 1246 809 1249 808 q 1244 812 1244 811 l 1244 812 l 1241 816 q 1240 818 1241 817 q 1240 823 1240 819 q 1258 839 1240 833 q 1284 844 1276 844 l 1289 845 q 1293 856 1291 850 q 1297 868 1295 861 q 1314 878 1299 874 l 1322 880 q 1323 880 1322 880 q 1324 876 1324 880 q 1319 864 1322 871 q 1311 846 1316 856 q 1374 842 1359 846 q 1390 838 1379 842 q 1411 821 1411 833 q 1330 835 1386 835 l 1305 834 q 1283 780 1293 806 q 1274 748 1274 757 q 1277 747 1275 747 q 1294 759 1282 747 q 1312 780 1305 772 l 1320 789 l 1322 790 l 1325 792 l 1326 792 l 1327 794 l 1329 794 l 1332 795 q 1333 795 1333 795 l 1330 791 q 1310 749 1310 755 l 1310 748 q 1316 754 1312 748 l 1333 777 q 1357 802 1351 802 l 1360 801 l 1361 801 q 1362 800 1361 800 q 1363 800 1362 800 l 1364 800 l 1364 798 l 1358 783 l 1356 778 q 1326 705 1341 747 q 1316 658 1316 675 q 1318 649 1316 652 m 1420 732 q 1404 750 1407 732 l 1407 767 q 1423 793 1413 791 q 1423 793 1423 793 q 1424 793 1423 793 q 1427 792 1426 793 q 1430 790 1428 791 q 1432 779 1432 785 q 1428 763 1432 771 q 1415 748 1423 754 q 1416 744 1415 747 q 1418 741 1417 741 q 1425 745 1420 741 q 1434 757 1430 749 q 1438 777 1438 765 q 1436 798 1438 791 l 1434 806 q 1447 789 1444 804 l 1448 787 q 1449 774 1449 783 q 1440 745 1449 758 q 1420 732 1432 732 m 1331 652 l 1330 652 q 1328 653 1329 653 q 1326 655 1328 653 q 1324 658 1325 656 q 1322 661 1324 659 l 1322 663 q 1341 722 1322 675 q 1347 737 1344 729 q 1373 798 1371 796 l 1375 798 q 1377 797 1375 798 q 1380 797 1379 797 q 1382 795 1381 796 q 1384 793 1384 795 l 1384 791 l 1383 789 q 1357 732 1378 785 l 1392 795 q 1400 768 1400 791 q 1387 734 1400 734 q 1373 741 1376 734 q 1331 652 1339 678 m 239 245 l 237 245 q 216 250 229 245 q 192 272 203 255 q 180 323 182 288 q 182 351 180 334 q 182 358 182 357 q 189 423 186 401 l 191 437 l 167 387 q 141 340 149 350 q 129 332 137 332 q 121 338 124 332 q 104 354 117 351 q 95 380 95 357 q 111 454 95 410 q 150 532 127 498 q 198 569 174 567 q 218 543 214 567 l 232 574 q 248 600 243 600 q 260 609 252 601 q 269 614 264 614 q 269 613 269 614 q 271 613 269 613 q 273 612 272 613 q 276 602 276 609 q 259 545 275 581 q 234 472 246 513 q 221 375 221 431 q 252 247 221 301 q 239 245 248 245 m 418 282 l 408 286 q 390 308 397 292 q 380 368 380 328 q 386 437 380 402 q 398 496 391 471 l 382 451 q 360 381 361 395 l 355 382 q 343 387 350 384 q 331 394 336 390 q 322 407 325 399 q 320 430 320 416 q 331 491 320 452 q 355 565 341 531 q 377 607 368 599 l 395 605 q 405 599 405 603 l 389 562 q 366 497 377 532 q 352 439 354 463 l 364 467 q 394 532 376 495 q 427 597 411 568 q 449 625 442 625 l 450 625 q 463 620 456 623 q 465 619 464 620 q 467 617 466 618 q 468 616 467 617 q 469 616 469 616 q 469 615 469 616 q 470 614 469 615 l 456 583 q 429 502 442 552 q 413 395 415 452 l 424 431 q 451 514 435 467 q 512 647 492 633 l 527 644 q 532 643 529 644 q 538 641 534 642 q 541 637 541 639 l 541 636 l 525 584 q 486 389 486 451 q 489 360 486 367 q 498 353 492 353 q 529 362 506 353 q 619 383 588 383 q 663 372 644 383 l 665 370 q 671 364 669 366 q 673 362 673 362 q 675 360 673 361 l 674 360 l 648 358 q 519 319 588 351 l 517 318 q 514 316 516 317 q 507 315 511 315 q 477 338 490 315 l 473 340 q 470 343 472 341 q 465 349 468 345 q 452 391 452 361 q 465 467 452 412 l 476 519 l 467 495 q 447 433 458 470 q 427 357 436 396 q 417 289 417 319 l 418 282 m 441 165 q 279 243 327 165 q 245 363 245 297 q 266 503 245 434 q 319 631 286 572 q 267 633 296 633 q 165 621 208 633 q 106 574 122 608 l 103 584 q 100 605 100 593 q 168 667 100 661 q 222 670 196 670 q 291 668 260 670 q 333 666 315 666 q 339 667 336 666 q 434 782 385 738 q 518 825 483 825 q 542 800 542 825 q 537 772 542 796 q 514 718 532 749 q 355 630 470 644 q 330 566 347 612 q 286 365 286 447 q 328 256 286 302 q 434 210 371 210 q 577 233 496 210 q 745 283 658 255 q 920 337 834 313 q 1073 360 1006 360 q 1183 344 1140 360 q 1250 307 1226 328 q 1284 267 1274 286 l 1286 254 l 1269 269 q 1209 298 1251 283 q 1095 312 1166 312 q 960 299 1026 312 q 831 268 894 287 q 709 229 768 249 q 567 183 635 202 q 441 165 500 165 m 777 333 l 770 333 q 730 350 747 333 q 713 391 713 367 q 724 465 713 409 q 755 608 741 548 q 765 648 764 643 q 770 656 767 653 q 774 661 772 659 q 777 665 776 663 q 739 650 768 657 q 719 644 728 646 l 710 642 q 711 617 711 631 q 703 527 711 576 q 682 444 694 479 q 652 408 669 408 q 646 410 648 408 q 642 415 644 412 q 636 423 640 418 q 622 433 632 427 q 609 457 612 438 q 606 494 606 476 l 607 523 l 593 471 q 557 406 572 406 q 547 414 553 406 q 543 417 547 416 q 534 421 539 418 q 521 463 521 431 q 548 577 521 523 q 597 631 575 631 q 618 602 612 631 q 631 623 626 616 q 642 631 638 631 l 646 632 q 662 628 657 632 l 665 627 q 644 586 656 618 q 631 500 631 553 q 634 465 631 485 l 635 461 q 641 449 638 452 l 644 447 q 667 507 654 458 q 680 608 680 556 q 676 650 680 630 q 650 667 659 656 q 642 689 642 678 q 648 708 642 701 q 661 718 654 715 q 673 721 669 721 q 695 706 687 721 q 707 669 703 692 q 758 684 724 671 l 762 685 q 777 692 772 688 l 785 699 q 797 705 789 705 q 808 700 803 705 q 812 686 812 694 l 812 686 l 796 631 q 757 422 757 495 q 777 333 757 371 m 1306 361 l 1305 361 q 1298 362 1303 361 q 1286 363 1293 363 q 1254 379 1272 367 q 1211 496 1211 410 q 1214 530 1211 518 q 1220 552 1216 543 q 1226 576 1223 562 l 1198 505 q 1186 477 1192 488 q 1170 451 1175 454 q 1168 450 1169 451 q 1164 450 1167 450 q 1157 456 1160 450 q 1150 465 1153 463 q 1139 470 1147 468 q 1127 502 1127 471 q 1141 577 1127 532 q 1175 656 1154 622 q 1219 690 1196 690 q 1236 673 1229 690 l 1240 656 q 1259 695 1254 693 q 1267 702 1264 696 q 1270 704 1269 703 q 1274 708 1272 705 q 1279 710 1276 710 q 1280 710 1280 710 q 1282 709 1281 709 q 1285 706 1284 709 q 1287 695 1287 703 q 1272 624 1287 672 q 1253 555 1261 592 q 1242 467 1242 513 q 1257 396 1242 418 q 1293 375 1272 375 q 1312 380 1297 375 q 1344 402 1327 385 q 1373 453 1360 419 q 1385 547 1385 488 q 1384 576 1385 554 q 1380 617 1383 597 q 1369 636 1377 636 q 1355 615 1365 636 q 1335 564 1344 595 q 1326 504 1326 534 q 1333 463 1326 481 l 1333 463 q 1334 460 1333 462 q 1337 459 1335 459 q 1339 458 1338 458 l 1337 457 q 1333 454 1337 456 q 1324 453 1329 453 q 1301 479 1310 453 l 1301 481 q 1297 496 1300 487 l 1293 510 q 1286 535 1286 517 q 1301 586 1286 557 q 1338 636 1316 614 q 1380 657 1360 657 q 1406 653 1392 657 q 1428 632 1419 648 q 1436 583 1436 616 q 1427 512 1436 550 q 1400 439 1418 473 q 1359 383 1383 405 q 1306 361 1335 361 m 1095 637 l 1082 612 q 998 417 1013 469 l 997 414 q 995 408 997 411 q 991 401 993 404 q 987 399 990 399 q 987 399 987 399 q 973 409 980 406 q 964 417 966 412 l 963 419 q 962 433 962 423 q 966 501 962 465 q 901 463 928 463 q 882 471 890 463 q 862 497 869 486 l 854 507 l 848 485 q 842 464 845 475 q 836 435 839 454 q 833 420 834 427 q 831 408 831 414 q 818 375 824 375 q 816 376 817 375 q 803 385 810 381 q 791 397 796 389 q 785 428 785 405 q 802 564 785 489 q 840 706 819 639 q 878 815 862 774 q 856 816 869 816 q 802 814 835 816 q 646 745 671 808 l 643 754 q 638 776 640 762 q 676 835 638 822 q 756 848 713 848 q 824 851 793 851 q 894 857 884 851 q 907 867 901 867 q 917 854 913 867 l 918 850 q 928 831 922 837 q 929 827 929 829 l 904 770 q 833 524 846 633 q 850 572 840 547 q 943 715 903 715 q 954 711 947 715 q 967 699 962 707 q 972 673 972 690 q 962 622 972 656 q 931 558 952 588 q 878 518 911 528 l 878 517 q 889 504 882 512 q 905 496 897 496 q 934 510 920 496 q 978 570 958 534 q 1054 825 1003 685 l 1071 869 l 1072 871 q 1078 878 1074 876 q 1080 880 1078 879 q 1085 882 1082 882 q 1095 869 1090 882 q 1105 845 1101 850 q 1107 842 1107 843 l 1107 841 q 1082 785 1103 834 q 1008 522 1021 648 l 1017 547 q 1120 685 1075 685 l 1135 685 q 1155 673 1155 685 q 1147 656 1155 669 q 1105 499 1105 580 q 1154 417 1107 446 q 1192 408 1172 408 l 1195 408 l 1189 399 q 1181 393 1185 395 q 1146 387 1171 387 q 1107 395 1123 387 q 1072 437 1082 410 q 1063 478 1063 454 l 1064 489 q 1087 610 1067 541 q 1095 637 1093 631 z "},"9":{"ha":1678,"x_min":95,"x_max":1449,"o":"m 1162 488 q 1170 504 1163 488 q 1183 532 1176 515 l 1187 543 q 1208 590 1199 567 l 1230 641 q 1227 653 1230 647 l 1226 657 q 1221 667 1223 667 q 1202 640 1217 667 q 1174 574 1187 613 q 1160 498 1160 535 q 1162 488 1160 488 m 1417 758 q 1425 780 1425 768 l 1425 781 l 1424 781 q 1422 779 1423 781 q 1421 774 1421 776 q 1417 758 1418 767 m 1374 743 q 1388 749 1385 743 q 1391 764 1391 755 q 1390 772 1391 768 l 1390 774 l 1374 743 m 871 549 q 902 575 889 555 q 924 618 916 595 q 937 660 932 641 q 941 681 941 678 l 926 659 q 896 607 912 637 q 871 549 880 576 m 128 370 q 142 393 130 370 q 182 469 169 443 l 208 519 q 207 524 208 521 q 206 532 207 527 q 203 539 205 536 q 201 544 202 543 q 200 545 201 545 q 176 516 193 544 q 144 449 159 488 q 127 376 129 410 l 128 370 m 376 669 q 424 679 400 669 q 477 718 448 688 q 498 751 490 734 q 507 781 505 768 l 510 794 l 486 779 q 430 734 462 763 q 373 669 399 706 l 376 669 m 557 437 q 563 450 559 437 q 574 480 568 462 q 586 518 580 498 q 596 552 591 537 q 604 572 602 567 q 601 590 603 583 q 596 597 600 596 l 593 597 q 573 563 583 589 q 556 506 563 536 q 550 456 550 476 q 557 437 550 438 m 1318 649 l 1319 648 l 1319 648 l 1318 649 m 1318 649 l 1317 649 q 1305 661 1310 652 q 1303 675 1303 666 q 1314 709 1303 684 q 1329 747 1322 730 l 1339 768 l 1336 764 q 1328 751 1333 759 q 1323 745 1325 748 q 1318 738 1320 741 q 1309 728 1316 735 q 1302 725 1305 725 q 1298 730 1299 728 q 1296 734 1297 733 q 1293 738 1295 737 q 1296 747 1293 741 q 1272 725 1280 725 q 1269 726 1271 725 q 1267 729 1267 728 q 1266 732 1267 731 l 1266 733 l 1265 733 l 1265 734 l 1264 735 q 1259 753 1259 737 q 1264 774 1259 761 q 1274 799 1270 787 q 1285 832 1278 812 q 1272 829 1278 830 q 1261 824 1265 827 q 1256 819 1257 821 q 1253 815 1254 817 q 1251 812 1252 813 q 1250 809 1251 810 q 1249 808 1249 808 q 1246 809 1249 808 q 1244 812 1244 811 l 1244 812 l 1241 816 q 1240 818 1241 817 q 1240 823 1240 819 q 1258 839 1240 833 q 1284 844 1276 844 l 1289 845 q 1293 856 1291 850 q 1297 868 1295 861 q 1314 878 1299 874 l 1322 880 q 1323 880 1322 880 q 1324 876 1324 880 q 1319 864 1322 871 q 1311 846 1316 856 q 1374 842 1359 846 q 1390 838 1379 842 q 1411 821 1411 833 q 1330 835 1386 835 l 1305 834 q 1283 780 1293 806 q 1274 748 1274 757 q 1277 747 1275 747 q 1294 759 1282 747 q 1312 780 1305 772 l 1320 789 l 1322 790 l 1325 792 l 1326 792 l 1327 794 l 1329 794 l 1332 795 q 1333 795 1333 795 l 1330 791 q 1310 749 1310 755 l 1310 748 q 1316 754 1312 748 l 1333 777 q 1357 802 1351 802 l 1360 801 l 1361 801 q 1362 800 1361 800 q 1363 800 1362 800 l 1364 800 l 1364 798 l 1358 783 l 1356 778 q 1326 705 1341 747 q 1316 658 1316 675 q 1318 649 1316 652 m 1420 732 q 1404 750 1407 732 l 1407 767 q 1423 793 1413 791 q 1423 793 1423 793 q 1424 793 1423 793 q 1427 792 1426 793 q 1430 790 1428 791 q 1432 779 1432 785 q 1428 763 1432 771 q 1415 748 1423 754 q 1416 744 1415 747 q 1418 741 1417 741 q 1425 745 1420 741 q 1434 757 1430 749 q 1438 777 1438 765 q 1436 798 1438 791 l 1434 806 q 1447 789 1444 804 l 1448 787 q 1449 774 1449 783 q 1440 745 1449 758 q 1420 732 1432 732 m 1331 652 l 1330 652 q 1328 653 1329 653 q 1326 655 1328 653 q 1324 658 1325 656 q 1322 661 1324 659 l 1322 663 q 1341 722 1322 675 q 1347 737 1344 729 q 1373 798 1371 796 l 1375 798 q 1377 797 1375 798 q 1380 797 1379 797 q 1382 795 1381 796 q 1384 793 1384 795 l 1384 791 l 1383 789 q 1357 732 1378 785 l 1392 795 q 1400 768 1400 791 q 1387 734 1400 734 q 1373 741 1376 734 q 1331 652 1339 678 m 239 245 l 237 245 q 216 250 229 245 q 192 272 203 255 q 180 323 182 288 q 182 351 180 334 q 182 358 182 357 q 189 423 186 401 l 191 437 l 167 387 q 141 340 149 350 q 129 332 137 332 q 121 338 124 332 q 104 354 117 351 q 95 380 95 357 q 111 454 95 410 q 150 532 127 498 q 198 569 174 567 q 218 543 214 567 l 232 574 q 248 600 243 600 q 260 609 252 601 q 269 614 264 614 q 269 613 269 614 q 271 613 269 613 q 273 612 272 613 q 276 602 276 609 q 259 545 275 581 q 234 472 246 513 q 221 375 221 431 q 252 247 221 301 q 239 245 248 245 m 418 282 l 408 286 q 390 308 397 292 q 380 368 380 328 q 386 437 380 402 q 398 496 391 471 l 382 451 q 360 381 361 395 l 355 382 q 343 387 350 384 q 331 394 336 390 q 322 407 325 399 q 320 430 320 416 q 331 491 320 452 q 355 565 341 531 q 377 607 368 599 l 395 605 q 405 599 405 603 l 389 562 q 366 497 377 532 q 352 439 354 463 l 364 467 q 394 532 376 495 q 427 597 411 568 q 449 625 442 625 l 450 625 q 463 620 456 623 q 465 619 464 620 q 467 617 466 618 q 468 616 467 617 q 469 616 469 616 q 469 615 469 616 q 470 614 469 615 l 456 583 q 429 502 442 552 q 413 395 415 452 l 424 431 q 451 514 435 467 q 512 647 492 633 l 527 644 q 532 643 529 644 q 538 641 534 642 q 541 637 541 639 l 541 636 l 525 584 q 486 389 486 451 q 489 360 486 367 q 498 353 492 353 q 529 362 506 353 q 619 383 588 383 q 663 372 644 383 l 665 370 q 671 364 669 366 q 673 362 673 362 q 675 360 673 361 l 674 360 l 648 358 q 519 319 588 351 l 517 318 q 514 316 516 317 q 507 315 511 315 q 477 338 490 315 l 473 340 q 470 343 472 341 q 465 349 468 345 q 452 391 452 361 q 465 467 452 412 l 476 519 l 467 495 q 447 433 458 470 q 427 357 436 396 q 417 289 417 319 l 418 282 m 441 165 q 279 243 327 165 q 245 363 245 297 q 266 503 245 434 q 319 631 286 572 q 267 633 296 633 q 165 621 208 633 q 106 574 122 608 l 103 584 q 100 605 100 593 q 168 667 100 661 q 222 670 196 670 q 291 668 260 670 q 333 666 315 666 q 339 667 336 666 q 434 782 385 738 q 518 825 483 825 q 542 800 542 825 q 537 772 542 796 q 514 718 532 749 q 355 630 470 644 q 330 566 347 612 q 286 365 286 447 q 328 256 286 302 q 434 210 371 210 q 577 233 496 210 q 745 283 658 255 q 920 337 834 313 q 1073 360 1006 360 q 1183 344 1140 360 q 1250 307 1226 328 q 1284 267 1274 286 l 1286 254 l 1269 269 q 1209 298 1251 283 q 1095 312 1166 312 q 960 299 1026 312 q 831 268 894 287 q 709 229 768 249 q 567 183 635 202 q 441 165 500 165 m 777 333 l 770 333 q 730 350 747 333 q 713 391 713 367 q 724 465 713 409 q 755 608 741 548 q 765 648 764 643 q 770 656 767 653 q 774 661 772 659 q 777 665 776 663 q 739 650 768 657 q 719 644 728 646 l 710 642 q 711 617 711 631 q 703 527 711 576 q 682 444 694 479 q 652 408 669 408 q 646 410 648 408 q 642 415 644 412 q 636 423 640 418 q 622 433 632 427 q 609 457 612 438 q 606 494 606 476 l 607 523 l 593 471 q 557 406 572 406 q 547 414 553 406 q 543 417 547 416 q 534 421 539 418 q 521 463 521 431 q 548 577 521 523 q 597 631 575 631 q 618 602 612 631 q 631 623 626 616 q 642 631 638 631 l 646 632 q 662 628 657 632 l 665 627 q 644 586 656 618 q 631 500 631 553 q 634 465 631 485 l 635 461 q 641 449 638 452 l 644 447 q 667 507 654 458 q 680 608 680 556 q 676 650 680 630 q 650 667 659 656 q 642 689 642 678 q 648 708 642 701 q 661 718 654 715 q 673 721 669 721 q 695 706 687 721 q 707 669 703 692 q 758 684 724 671 l 762 685 q 777 692 772 688 l 785 699 q 797 705 789 705 q 808 700 803 705 q 812 686 812 694 l 812 686 l 796 631 q 757 422 757 495 q 777 333 757 371 m 1306 361 l 1305 361 q 1298 362 1303 361 q 1286 363 1293 363 q 1254 379 1272 367 q 1211 496 1211 410 q 1214 530 1211 518 q 1220 552 1216 543 q 1226 576 1223 562 l 1198 505 q 1186 477 1192 488 q 1170 451 1175 454 q 1168 450 1169 451 q 1164 450 1167 450 q 1157 456 1160 450 q 1150 465 1153 463 q 1139 470 1147 468 q 1127 502 1127 471 q 1141 577 1127 532 q 1175 656 1154 622 q 1219 690 1196 690 q 1236 673 1229 690 l 1240 656 q 1259 695 1254 693 q 1267 702 1264 696 q 1270 704 1269 703 q 1274 708 1272 705 q 1279 710 1276 710 q 1280 710 1280 710 q 1282 709 1281 709 q 1285 706 1284 709 q 1287 695 1287 703 q 1272 624 1287 672 q 1253 555 1261 592 q 1242 467 1242 513 q 1257 396 1242 418 q 1293 375 1272 375 q 1312 380 1297 375 q 1344 402 1327 385 q 1373 453 1360 419 q 1385 547 1385 488 q 1384 576 1385 554 q 1380 617 1383 597 q 1369 636 1377 636 q 1355 615 1365 636 q 1335 564 1344 595 q 1326 504 1326 534 q 1333 463 1326 481 l 1333 463 q 1334 460 1333 462 q 1337 459 1335 459 q 1339 458 1338 458 l 1337 457 q 1333 454 1337 456 q 1324 453 1329 453 q 1301 479 1310 453 l 1301 481 q 1297 496 1300 487 l 1293 510 q 1286 535 1286 517 q 1301 586 1286 557 q 1338 636 1316 614 q 1380 657 1360 657 q 1406 653 1392 657 q 1428 632 1419 648 q 1436 583 1436 616 q 1427 512 1436 550 q 1400 439 1418 473 q 1359 383 1383 405 q 1306 361 1335 361 m 1095 637 l 1082 612 q 998 417 1013 469 l 997 414 q 995 408 997 411 q 991 401 993 404 q 987 399 990 399 q 987 399 987 399 q 973 409 980 406 q 964 417 966 412 l 963 419 q 962 433 962 423 q 966 501 962 465 q 901 463 928 463 q 882 471 890 463 q 862 497 869 486 l 854 507 l 848 485 q 842 464 845 475 q 836 435 839 454 q 833 420 834 427 q 831 408 831 414 q 818 375 824 375 q 816 376 817 375 q 803 385 810 381 q 791 397 796 389 q 785 428 785 405 q 802 564 785 489 q 840 706 819 639 q 878 815 862 774 q 856 816 869 816 q 802 814 835 816 q 646 745 671 808 l 643 754 q 638 776 640 762 q 676 835 638 822 q 756 848 713 848 q 824 851 793 851 q 894 857 884 851 q 907 867 901 867 q 917 854 913 867 l 918 850 q 928 831 922 837 q 929 827 929 829 l 904 770 q 833 524 846 633 q 850 572 840 547 q 943 715 903 715 q 954 711 947 715 q 967 699 962 707 q 972 673 972 690 q 962 622 972 656 q 931 558 952 588 q 878 518 911 528 l 878 517 q 889 504 882 512 q 905 496 897 496 q 934 510 920 496 q 978 570 958 534 q 1054 825 1003 685 l 1071 869 l 1072 871 q 1078 878 1074 876 q 1080 880 1078 879 q 1085 882 1082 882 q 1095 869 1090 882 q 1105 845 1101 850 q 1107 842 1107 843 l 1107 841 q 1082 785 1103 834 q 1008 522 1021 648 l 1017 547 q 1120 685 1075 685 l 1135 685 q 1155 673 1155 685 q 1147 656 1155 669 q 1105 499 1105 580 q 1154 417 1107 446 q 1192 408 1172 408 l 1195 408 l 1189 399 q 1181 393 1185 395 q 1146 387 1171 387 q 1107 395 1123 387 q 1072 437 1082 410 q 1063 478 1063 454 l 1064 489 q 1087 610 1067 541 q 1095 637 1093 631 z "},"\u0000":{"ha":0,"x_min":0,"x_max":0,"o":""}," ":{"ha":195,"x_min":0,"x_max":0,"o":""},"!":{"ha":281,"x_min":47,"x_max":234,"o":"m 117 192 q 98 193 104 192 q 67 219 76 197 q 58 284 60 237 q 52 512 55 324 l 50 631 q 47 926 47 711 l 49 928 q 61 942 56 939 q 81 947 67 945 q 144 952 115 952 q 161 951 156 952 q 200 915 194 949 q 203 802 201 901 q 213 460 204 664 q 218 303 218 356 q 211 232 218 243 q 117 192 190 192 m 155 -27 q 132 -26 136 -27 q 90 -3 107 -19 q 69 32 77 11 q 61 72 61 53 q 75 125 61 100 q 108 157 88 150 q 149 161 125 161 q 222 119 200 161 q 232 96 229 106 q 234 72 234 86 q 184 -20 234 11 q 170 -25 176 -24 q 155 -27 164 -26 z "},"\"":{"ha":362,"x_min":47,"x_max":315,"o":"m 85 814 q 67 818 75 814 q 53 830 58 823 q 47 854 49 840 q 68 974 47 890 q 82 1020 77 1006 q 119 1046 95 1044 q 148 1040 136 1046 q 168 1023 165 1028 q 174 1003 170 1019 q 172 987 174 996 l 149 901 q 139 869 144 884 q 85 814 121 821 m 227 814 l 226 814 q 209 819 217 814 q 192 838 195 825 l 189 854 q 195 907 189 872 q 224 1020 213 996 q 264 1046 237 1046 q 296 1036 279 1046 q 304 1029 300 1032 q 310 1023 308 1027 q 315 1003 312 1020 q 313 984 315 996 l 294 913 q 286 883 288 891 l 279 865 q 242 819 264 830 q 238 818 241 819 q 233 816 236 817 q 227 814 229 815 z "},"#":{"ha":636,"x_min":47,"x_max":589,"o":"m 241 -12 q 222 -1 227 -12 q 213 144 216 9 q 211 188 212 188 q 159 180 207 188 q 107 171 112 172 q 98 170 102 170 q 77 191 80 170 q 98 216 77 211 l 155 228 q 208 238 207 238 q 210 258 210 238 q 207 334 208 281 q 205 511 206 359 l 204 666 l 87 663 q 68 664 78 663 q 53 672 59 665 q 47 686 47 678 q 55 704 47 698 q 83 709 60 708 q 203 717 136 711 q 198 926 198 796 q 199 979 198 970 q 217 991 204 991 q 230 988 226 991 q 236 972 234 984 q 243 829 239 951 q 248 737 245 766 l 248 720 l 341 726 l 345 911 q 349 972 347 960 q 358 987 351 984 q 369 994 364 990 l 378 996 q 418 1000 393 1000 q 465 972 454 1000 l 471 960 q 478 731 475 747 l 491 730 l 518 731 q 566 729 553 731 q 584 720 578 727 q 588 714 587 717 q 589 704 589 711 q 588 694 589 697 q 577 680 587 691 l 530 680 q 482 678 485 680 l 485 590 l 487 332 q 489 288 488 299 q 492 280 490 280 q 546 284 496 282 q 571 283 567 284 q 576 281 574 283 q 589 260 589 274 q 585 248 589 254 q 578 239 582 242 q 537 233 570 235 q 493 229 504 232 l 494 115 q 492 64 494 81 q 461 4 488 20 q 452 1 457 2 q 421 -1 447 -1 q 388 1 393 -1 q 355 41 362 9 q 344 162 349 71 l 341 209 q 257 195 299 203 l 260 100 q 265 16 262 45 q 261 1 265 9 q 251 -9 256 -7 q 241 -12 246 -12 m 256 246 l 339 260 q 340 675 340 331 l 270 671 q 251 668 252 669 q 254 326 251 584 l 256 246 z "},"$":{"ha":367,"x_min":46,"x_max":318,"o":"m 176 -9 q 168 -6 174 -9 q 160 -1 163 -4 q 156 9 157 3 q 155 42 155 16 q 157 94 155 83 q 154 95 155 94 q 114 110 138 96 q 82 131 94 120 q 64 160 71 142 q 54 208 54 185 q 86 276 54 250 q 102 283 95 283 q 117 274 114 283 q 120 266 120 270 q 105 245 120 257 q 90 214 91 233 q 95 180 90 195 q 109 156 100 164 q 120 148 112 153 q 151 132 139 136 q 182 130 160 130 q 200 132 197 130 q 212 172 208 138 q 201 246 208 221 q 171 328 193 283 q 141 384 152 365 q 119 426 132 399 q 75 520 85 492 q 46 668 46 600 q 47 696 46 684 q 109 843 59 781 q 168 884 136 875 q 168 977 168 968 q 171 989 168 986 q 190 1000 179 1000 q 202 995 197 1000 l 208 989 l 209 936 q 208 884 209 901 q 245 866 228 879 q 289 806 279 843 q 294 762 294 787 q 267 650 294 708 q 250 619 257 631 q 228 603 238 603 q 217 608 222 603 q 212 618 212 613 q 218 632 212 625 q 232 656 224 639 q 245 688 240 673 q 255 725 252 709 q 258 761 258 742 q 257 787 258 780 q 218 841 249 823 q 188 850 204 850 q 149 831 167 850 q 131 803 136 819 q 125 764 125 788 q 163 633 125 707 q 227 517 191 577 q 307 337 288 413 q 318 252 318 290 q 296 160 318 199 q 197 94 266 100 l 198 59 l 197 29 q 195 4 197 9 q 176 -9 193 -5 z "},"%":{"ha":503,"x_min":48,"x_max":457,"o":"m 134 -41 l 120 -41 l 104 -37 q 75 -28 81 -31 q 65 -25 69 -25 q 56 -22 61 -24 q 48 -7 48 -17 q 65 78 48 7 q 87 173 79 140 q 101 231 92 193 l 140 387 l 159 465 q 269 854 196 610 q 297 956 290 926 l 300 967 q 307 990 306 988 q 345 1002 313 1000 q 385 1001 368 1002 q 432 995 424 998 q 441 979 441 989 l 431 928 q 398 795 420 873 q 239 165 351 627 q 207 33 217 69 q 186 -19 197 -3 q 159 -39 176 -35 q 134 -41 151 -41 m 131 805 q 102 808 110 805 q 76 827 88 814 q 60 856 64 841 q 58 880 58 866 q 60 905 58 895 q 121 969 76 954 q 140 972 130 972 q 191 951 172 972 q 212 896 212 926 q 197 845 212 869 q 155 809 182 821 q 145 806 149 806 q 131 805 142 805 m 380 -25 q 319 5 338 -25 q 308 27 311 17 q 306 52 306 37 q 310 80 307 69 q 321 104 313 92 q 386 140 347 140 q 399 139 395 140 q 412 134 404 138 q 457 68 452 117 q 455 44 457 57 q 427 -6 450 14 q 380 -25 405 -25 z "},"&":{"ha":490,"x_min":47,"x_max":442,"o":"m 172 14 q 130 17 142 14 q 74 56 96 28 q 52 120 52 83 q 81 209 52 160 q 161 309 110 258 q 103 413 125 366 q 65 524 81 459 q 47 656 47 597 q 84 806 47 743 q 208 925 134 888 q 244 939 229 935 q 284 942 260 942 q 312 941 304 942 q 364 919 336 938 q 427 819 406 890 q 440 728 440 774 q 322 418 440 584 q 309 395 309 400 q 326 366 316 387 q 337 326 336 345 q 329 298 337 311 q 302 262 320 285 l 285 239 l 296 228 q 319 208 315 210 q 351 265 323 208 q 376 311 372 306 q 388 315 381 315 q 406 309 397 315 q 414 290 414 302 q 407 264 414 281 q 385 217 399 248 l 363 173 l 411 143 q 436 125 429 132 q 442 111 442 119 q 436 94 441 100 q 421 87 430 87 q 361 116 411 87 q 340 126 345 126 q 287 61 314 87 q 220 22 260 35 q 198 16 208 17 q 172 14 189 14 m 283 454 l 287 458 q 311 495 293 466 q 389 729 389 627 q 329 880 382 849 q 294 890 309 890 q 258 851 269 890 q 229 672 229 774 q 239 566 229 612 q 277 467 250 519 l 283 454 m 234 87 q 254 102 237 87 q 286 140 271 117 q 298 159 298 157 l 288 167 q 258 189 262 189 q 250 169 255 185 q 240 139 244 153 q 235 112 237 125 q 233 92 233 98 q 234 87 233 87 z "},"'":{"ha":220,"x_min":47,"x_max":174,"o":"m 85 814 q 67 818 75 814 q 53 830 58 823 q 47 854 49 840 q 68 974 47 890 q 82 1020 77 1006 q 119 1046 95 1044 q 148 1040 136 1046 q 168 1023 165 1028 q 174 1003 170 1019 q 172 987 174 996 l 149 901 q 139 869 144 884 q 85 814 121 821 z "},"(":{"ha":342,"x_min":47,"x_max":295,"o":"m 239 -81 q 208 -59 227 -81 q 106 116 145 10 q 72 225 84 175 q 51 332 59 275 q 47 421 47 359 q 51 517 47 483 q 119 821 72 709 q 135 859 128 840 q 172 928 149 892 q 254 1015 214 987 q 275 1022 267 1022 q 292 1012 287 1022 q 295 1004 295 1008 q 290 988 295 998 q 275 957 286 978 q 249 899 258 925 q 226 826 239 872 q 173 387 176 656 l 173 345 q 179 215 173 265 q 185 175 181 199 q 192 131 189 152 q 199 100 196 110 q 223 34 208 71 q 252 -28 239 -4 q 258 -42 256 -37 q 260 -55 260 -47 q 259 -67 260 -63 q 251 -77 258 -71 q 239 -81 245 -81 z "},")":{"ha":342,"x_min":47,"x_max":295,"o":"m 103 -81 q 91 -77 96 -81 q 83 -67 84 -71 q 82 -55 82 -63 q 84 -42 82 -47 q 90 -28 85 -37 q 119 34 103 -4 q 143 100 134 71 q 150 131 146 110 q 157 175 153 152 q 163 215 161 199 q 170 345 170 265 l 169 387 q 94 899 166 707 q 67 957 83 925 q 47 1004 47 994 q 50 1012 47 1008 q 67 1022 56 1022 q 87 1015 77 1022 q 170 928 129 987 q 190 893 179 914 q 207 859 201 872 q 222 821 214 840 q 291 517 270 709 q 295 421 295 486 q 294 368 295 393 q 270 225 292 310 q 134 -59 223 39 q 103 -81 115 -81 z "},"*":{"ha":390,"x_min":61,"x_max":290,"o":"m 125 703 q 121 703 121 703 l 119 703 l 92 722 l 91 722 q 86 726 88 726 q 84 729 85 728 q 79 739 79 734 l 80 743 l 110 784 l 123 800 q 75 803 100 800 q 61 837 61 812 q 62 846 61 844 q 63 852 62 850 q 144 862 75 862 q 149 933 144 896 q 183 942 157 942 q 192 941 190 942 l 194 941 q 205 922 203 941 q 208 881 208 907 l 208 861 q 280 860 240 860 l 285 857 q 290 826 290 854 l 290 820 l 288 809 q 274 800 284 801 q 256 799 264 800 l 233 799 l 271 755 l 281 745 l 281 742 q 280 740 280 741 q 277 736 280 739 q 260 718 271 726 l 256 714 q 255 713 255 714 q 251 710 252 711 q 248 707 249 708 q 244 706 246 707 q 239 705 242 705 q 234 707 237 705 l 220 721 q 180 764 195 745 l 177 768 l 174 764 q 146 729 161 746 l 138 719 q 126 703 131 710 l 125 703 z "},"+":{"ha":603,"x_min":47,"x_max":555,"o":"m 299 164 l 283 164 q 254 168 261 164 q 230 200 233 172 l 230 349 q 79 357 160 351 q 47 433 47 375 q 52 467 47 458 q 234 488 81 488 q 244 641 237 563 q 315 671 262 671 q 355 666 345 671 q 373 510 373 640 l 373 486 l 410 485 q 507 483 471 483 q 534 484 525 483 l 538 481 q 545 476 542 478 q 549 470 547 474 q 555 409 554 455 q 553 381 555 389 q 552 376 553 379 q 550 370 552 374 l 549 367 q 519 349 541 352 l 369 347 l 367 308 q 363 212 364 247 q 364 183 363 193 q 351 168 357 172 q 299 164 338 164 z "},",":{"ha":243,"x_min":27,"x_max":195,"o":"m 58 -91 l 47 -90 q 34 -70 34 -85 q 39 -40 34 -58 q 46 10 46 -17 q 34 58 46 34 q 27 87 27 73 q 54 139 27 119 q 113 158 81 158 q 163 142 140 158 q 195 77 191 122 q 173 6 195 45 q 119 -62 151 -34 q 58 -91 87 -91 z "},"-":{"ha":603,"x_min":47,"x_max":555,"o":"m 327 347 q 79 357 219 347 q 47 433 47 375 q 52 467 47 459 q 241 488 81 488 q 410 485 326 488 q 507 483 471 483 q 534 484 525 483 l 537 481 q 549 470 547 475 q 554 445 552 464 q 555 409 555 427 q 552 374 554 379 q 519 349 545 353 l 431 348 q 327 347 378 347 z "},".":{"ha":250,"x_min":28,"x_max":202,"o":"m 109 -26 q 90 -23 99 -26 q 44 7 61 -15 q 28 60 28 30 l 28 67 q 58 137 33 115 q 114 159 83 159 q 165 142 142 159 q 199 90 189 124 q 202 73 202 82 q 186 20 202 46 q 146 -17 171 -5 q 109 -26 127 -26 z "},"/":{"ha":503,"x_min":48,"x_max":441,"o":"m 134 -41 l 120 -41 l 104 -37 q 75 -28 81 -31 q 65 -25 69 -25 q 56 -22 61 -24 q 48 -7 48 -17 q 65 78 48 7 q 87 173 79 140 q 101 231 92 193 l 140 387 l 159 465 q 269 854 196 610 q 297 956 290 926 l 300 967 q 307 990 306 988 q 345 1002 313 1000 q 385 1001 368 1002 q 432 995 424 998 q 441 979 441 989 l 431 928 q 398 795 420 873 q 239 165 351 627 q 207 33 217 69 q 186 -19 197 -3 q 159 -39 176 -35 q 134 -41 151 -41 z "},":":{"ha":268,"x_min":47,"x_max":222,"o":"m 129 165 q 109 168 119 165 q 64 198 81 176 q 47 250 47 220 l 47 258 q 78 328 53 305 q 134 350 103 350 q 185 332 161 350 q 219 281 209 315 q 222 263 222 273 q 206 211 222 237 q 166 174 191 185 q 129 165 147 165 m 129 500 q 109 503 119 500 q 64 533 81 511 q 47 586 47 555 l 47 593 q 78 663 53 640 q 134 686 103 686 q 185 668 161 686 q 219 616 210 650 q 222 599 222 608 q 206 547 222 572 q 166 509 191 522 q 129 500 147 500 z "},";":{"ha":268,"x_min":47,"x_max":222,"o":"m 129 500 q 109 503 119 500 q 64 533 81 511 q 47 586 47 555 l 47 593 q 78 663 53 640 q 134 686 103 686 q 185 668 161 686 q 219 616 210 650 q 222 599 222 608 q 206 547 222 572 q 166 509 191 522 q 129 500 147 500 m 83 97 l 73 98 q 60 118 60 104 q 64 149 60 130 q 72 198 72 172 q 60 245 72 222 q 53 276 53 262 q 80 327 53 307 q 138 346 106 346 q 189 330 165 346 q 221 265 216 311 q 199 194 221 233 q 145 125 177 154 q 83 97 113 97 z "},"<":{"ha":387,"x_min":47,"x_max":340,"o":"m 267 142 q 258 144 263 142 q 207 216 248 152 q 77 411 164 283 q 53 446 60 435 q 47 466 47 457 q 48 475 47 470 l 48 477 q 98 564 48 483 l 173 685 q 222 759 206 739 q 261 785 242 785 q 295 764 273 785 q 336 715 329 732 q 340 695 340 705 q 335 672 340 683 q 273 566 322 643 q 170 414 224 489 q 153 386 153 390 q 183 339 154 384 q 235 256 212 295 q 272 197 251 230 q 287 172 284 178 l 288 164 q 282 149 288 155 q 267 142 275 142 z "},"=":{"ha":603,"x_min":47,"x_max":555,"o":"m 327 540 q 79 550 219 540 q 47 625 47 568 q 52 660 47 653 q 210 681 77 679 q 405 677 321 681 q 504 675 467 675 q 534 677 524 675 q 549 663 547 669 q 554 638 552 657 q 555 602 555 620 q 552 566 554 572 q 519 543 545 545 q 327 540 375 540 m 330 329 q 79 340 220 329 q 47 415 47 357 q 52 450 47 441 q 210 470 77 468 q 405 467 321 470 q 504 465 467 465 q 534 466 524 465 q 549 452 547 458 q 554 428 552 446 q 555 391 555 409 q 552 356 554 361 q 519 332 545 334 q 330 329 378 329 z "},">":{"ha":387,"x_min":47,"x_max":340,"o":"m 126 142 q 114 146 121 142 q 93 163 106 151 q 67 191 79 176 q 51 213 55 205 q 47 233 47 222 q 52 256 47 244 q 114 361 65 284 q 217 514 163 438 q 230 533 227 528 q 233 544 233 539 l 203 589 q 152 671 178 627 q 115 730 131 707 q 101 755 102 751 q 99 763 100 760 q 105 779 99 772 q 119 785 111 785 q 130 783 125 785 q 180 711 139 776 q 292 545 219 650 q 334 481 330 488 q 340 461 340 470 q 340 451 340 456 q 289 363 340 445 l 214 243 q 165 169 181 189 q 126 142 145 142 z "},"?":{"ha":452,"x_min":46,"x_max":404,"o":"m 208 208 l 170 208 q 157 212 162 208 q 141 233 146 218 q 131 332 135 258 q 127 470 127 407 q 132 547 127 527 q 138 562 134 555 q 187 607 148 574 q 248 746 248 654 q 231 823 248 785 q 215 852 224 837 q 194 879 206 868 q 168 890 182 890 q 138 873 154 890 q 90 762 94 827 l 90 753 q 102 713 90 724 q 109 697 109 705 q 107 688 109 693 q 89 677 101 677 q 75 682 82 677 q 54 712 61 691 q 46 760 46 733 q 49 792 46 776 q 109 909 60 860 q 203 951 152 951 l 207 951 q 339 880 280 951 q 389 790 372 839 q 404 704 404 747 q 398 654 404 675 q 303 517 382 585 q 285 496 287 503 q 278 416 281 478 q 275 290 275 353 l 275 229 q 257 213 267 217 q 249 210 254 211 q 208 208 242 208 m 197 -20 q 178 -18 187 -20 q 133 13 149 -9 q 116 64 116 35 l 117 73 q 133 123 119 99 q 169 156 148 146 q 204 166 189 166 q 217 164 211 166 q 235 155 222 162 q 290 79 290 129 q 274 26 290 52 q 235 -12 259 0 q 197 -20 216 -20 z "},"@":{"ha":1678,"x_min":95,"x_max":1449,"o":"m 1162 488 q 1170 504 1163 488 q 1183 532 1176 515 l 1187 543 q 1208 590 1199 567 l 1230 641 q 1227 653 1230 647 l 1226 657 q 1221 667 1223 667 q 1202 640 1217 667 q 1174 574 1187 613 q 1160 498 1160 535 q 1162 488 1160 488 m 1417 758 q 1425 780 1425 768 l 1425 781 l 1424 781 q 1422 779 1423 781 q 1421 774 1421 776 q 1417 758 1418 767 m 1374 743 q 1388 749 1385 743 q 1391 764 1391 755 q 1390 772 1391 768 l 1390 774 l 1374 743 m 871 549 q 902 575 889 555 q 924 618 916 595 q 937 660 932 641 q 941 681 941 678 l 926 659 q 896 607 912 637 q 871 549 880 576 m 128 370 q 142 393 130 370 q 182 469 169 443 l 208 519 q 207 524 208 521 q 206 532 207 527 q 203 539 205 536 q 201 544 202 543 q 200 545 201 545 q 176 516 193 544 q 144 449 159 488 q 127 376 129 410 l 128 370 m 376 669 q 424 679 400 669 q 477 718 448 688 q 498 751 490 734 q 507 781 505 768 l 510 794 l 486 779 q 430 734 462 763 q 373 669 399 706 l 376 669 m 557 437 q 563 450 559 437 q 574 480 568 462 q 586 518 580 498 q 596 552 591 537 q 604 572 602 567 q 601 590 603 583 q 596 597 600 596 l 593 597 q 573 563 583 589 q 556 506 563 536 q 550 456 550 476 q 557 437 550 438 m 1318 649 l 1319 648 l 1319 648 l 1318 649 m 1318 649 l 1317 649 q 1305 661 1310 652 q 1303 675 1303 666 q 1314 709 1303 684 q 1329 747 1322 730 l 1339 768 l 1336 764 q 1328 751 1333 759 q 1323 745 1325 748 q 1318 738 1320 741 q 1309 728 1316 735 q 1302 725 1305 725 q 1298 730 1299 728 q 1296 734 1297 733 q 1293 738 1295 737 q 1296 747 1293 741 q 1272 725 1280 725 q 1269 726 1271 725 q 1267 729 1267 728 q 1266 732 1267 731 l 1266 733 l 1265 733 l 1265 734 l 1264 735 q 1259 753 1259 737 q 1264 774 1259 761 q 1274 799 1270 787 q 1285 832 1278 812 q 1272 829 1278 830 q 1261 824 1265 827 q 1256 819 1257 821 q 1253 815 1254 817 q 1251 812 1252 813 q 1250 809 1251 810 q 1249 808 1249 808 q 1246 809 1249 808 q 1244 812 1244 811 l 1244 812 l 1241 816 q 1240 818 1241 817 q 1240 823 1240 819 q 1258 839 1240 833 q 1284 844 1276 844 l 1289 845 q 1293 856 1291 850 q 1297 868 1295 861 q 1314 878 1299 874 l 1322 880 q 1323 880 1322 880 q 1324 876 1324 880 q 1319 864 1322 871 q 1311 846 1316 856 q 1374 842 1359 846 q 1390 838 1379 842 q 1411 821 1411 833 q 1330 835 1386 835 l 1305 834 q 1283 780 1293 806 q 1274 748 1274 757 q 1277 747 1275 747 q 1294 759 1282 747 q 1312 780 1305 772 l 1320 789 l 1322 790 l 1325 792 l 1326 792 l 1327 794 l 1329 794 l 1332 795 q 1333 795 1333 795 l 1330 791 q 1310 749 1310 755 l 1310 748 q 1316 754 1312 748 l 1333 777 q 1357 802 1351 802 l 1360 801 l 1361 801 q 1362 800 1361 800 q 1363 800 1362 800 l 1364 800 l 1364 798 l 1358 783 l 1356 778 q 1326 705 1341 747 q 1316 658 1316 675 q 1318 649 1316 652 m 1420 732 q 1404 750 1407 732 l 1407 767 q 1423 793 1413 791 q 1423 793 1423 793 q 1424 793 1423 793 q 1427 792 1426 793 q 1430 790 1428 791 q 1432 779 1432 785 q 1428 763 1432 771 q 1415 748 1423 754 q 1416 744 1415 747 q 1418 741 1417 741 q 1425 745 1420 741 q 1434 757 1430 749 q 1438 777 1438 765 q 1436 798 1438 791 l 1434 806 q 1447 789 1444 804 l 1448 787 q 1449 774 1449 783 q 1440 745 1449 758 q 1420 732 1432 732 m 1331 652 l 1330 652 q 1328 653 1329 653 q 1326 655 1328 653 q 1324 658 1325 656 q 1322 661 1324 659 l 1322 663 q 1341 722 1322 675 q 1347 737 1344 729 q 1373 798 1371 796 l 1375 798 q 1377 797 1375 798 q 1380 797 1379 797 q 1382 795 1381 796 q 1384 793 1384 795 l 1384 791 l 1383 789 q 1357 732 1378 785 l 1392 795 q 1400 768 1400 791 q 1387 734 1400 734 q 1373 741 1376 734 q 1331 652 1339 678 m 239 245 l 237 245 q 216 250 229 245 q 192 272 203 255 q 180 323 182 288 q 182 351 180 334 q 182 358 182 357 q 189 423 186 401 l 191 437 l 167 387 q 141 340 149 350 q 129 332 137 332 q 121 338 124 332 q 104 354 117 351 q 95 380 95 357 q 111 454 95 410 q 150 532 127 498 q 198 569 174 567 q 218 543 214 567 l 232 574 q 248 600 243 600 q 260 609 252 601 q 269 614 264 614 q 269 613 269 614 q 271 613 269 613 q 273 612 272 613 q 276 602 276 609 q 259 545 275 581 q 234 472 246 513 q 221 375 221 431 q 252 247 221 301 q 239 245 248 245 m 418 282 l 408 286 q 390 308 397 292 q 380 368 380 328 q 386 437 380 402 q 398 496 391 471 l 382 451 q 360 381 361 395 l 355 382 q 343 387 350 384 q 331 394 336 390 q 322 407 325 399 q 320 430 320 416 q 331 491 320 452 q 355 565 341 531 q 377 607 368 599 l 395 605 q 405 599 405 603 l 389 562 q 366 497 377 532 q 352 439 354 463 l 364 467 q 394 532 376 495 q 427 597 411 568 q 449 625 442 625 l 450 625 q 463 620 456 623 q 465 619 464 620 q 467 617 466 618 q 468 616 467 617 q 469 616 469 616 q 469 615 469 616 q 470 614 469 615 l 456 583 q 429 502 442 552 q 413 395 415 452 l 424 431 q 451 514 435 467 q 512 647 492 633 l 527 644 q 532 643 529 644 q 538 641 534 642 q 541 637 541 639 l 541 636 l 525 584 q 486 389 486 451 q 489 360 486 367 q 498 353 492 353 q 529 362 506 353 q 619 383 588 383 q 663 372 644 383 l 665 370 q 671 364 669 366 q 673 362 673 362 q 675 360 673 361 l 674 360 l 648 358 q 519 319 588 351 l 517 318 q 514 316 516 317 q 507 315 511 315 q 477 338 490 315 l 473 340 q 470 343 472 341 q 465 349 468 345 q 452 391 452 361 q 465 467 452 412 l 476 519 l 467 495 q 447 433 458 470 q 427 357 436 396 q 417 289 417 319 l 418 282 m 441 165 q 279 243 327 165 q 245 363 245 297 q 266 503 245 434 q 319 631 286 572 q 267 633 296 633 q 165 621 208 633 q 106 574 122 608 l 103 584 q 100 605 100 593 q 168 667 100 661 q 222 670 196 670 q 291 668 260 670 q 333 666 315 666 q 339 667 336 666 q 434 782 385 738 q 518 825 483 825 q 542 800 542 825 q 537 772 542 796 q 514 718 532 749 q 355 630 470 644 q 330 566 347 612 q 286 365 286 447 q 328 256 286 302 q 434 210 371 210 q 577 233 496 210 q 745 283 658 255 q 920 337 834 313 q 1073 360 1006 360 q 1183 344 1140 360 q 1250 307 1226 328 q 1284 267 1274 286 l 1286 254 l 1269 269 q 1209 298 1251 283 q 1095 312 1166 312 q 960 299 1026 312 q 831 268 894 287 q 709 229 768 249 q 567 183 635 202 q 441 165 500 165 m 777 333 l 770 333 q 730 350 747 333 q 713 391 713 367 q 724 465 713 409 q 755 608 741 548 q 765 648 764 643 q 770 656 767 653 q 774 661 772 659 q 777 665 776 663 q 739 650 768 657 q 719 644 728 646 l 710 642 q 711 617 711 631 q 703 527 711 576 q 682 444 694 479 q 652 408 669 408 q 646 410 648 408 q 642 415 644 412 q 636 423 640 418 q 622 433 632 427 q 609 457 612 438 q 606 494 606 476 l 607 523 l 593 471 q 557 406 572 406 q 547 414 553 406 q 543 417 547 416 q 534 421 539 418 q 521 463 521 431 q 548 577 521 523 q 597 631 575 631 q 618 602 612 631 q 631 623 626 616 q 642 631 638 631 l 646 632 q 662 628 657 632 l 665 627 q 644 586 656 618 q 631 500 631 553 q 634 465 631 485 l 635 461 q 641 449 638 452 l 644 447 q 667 507 654 458 q 680 608 680 556 q 676 650 680 630 q 650 667 659 656 q 642 689 642 678 q 648 708 642 701 q 661 718 654 715 q 673 721 669 721 q 695 706 687 721 q 707 669 703 692 q 758 684 724 671 l 762 685 q 777 692 772 688 l 785 699 q 797 705 789 705 q 808 700 803 705 q 812 686 812 694 l 812 686 l 796 631 q 757 422 757 495 q 777 333 757 371 m 1306 361 l 1305 361 q 1298 362 1303 361 q 1286 363 1293 363 q 1254 379 1272 367 q 1211 496 1211 410 q 1214 530 1211 518 q 1220 552 1216 543 q 1226 576 1223 562 l 1198 505 q 1186 477 1192 488 q 1170 451 1175 454 q 1168 450 1169 451 q 1164 450 1167 450 q 1157 456 1160 450 q 1150 465 1153 463 q 1139 470 1147 468 q 1127 502 1127 471 q 1141 577 1127 532 q 1175 656 1154 622 q 1219 690 1196 690 q 1236 673 1229 690 l 1240 656 q 1259 695 1254 693 q 1267 702 1264 696 q 1270 704 1269 703 q 1274 708 1272 705 q 1279 710 1276 710 q 1280 710 1280 710 q 1282 709 1281 709 q 1285 706 1284 709 q 1287 695 1287 703 q 1272 624 1287 672 q 1253 555 1261 592 q 1242 467 1242 513 q 1257 396 1242 418 q 1293 375 1272 375 q 1312 380 1297 375 q 1344 402 1327 385 q 1373 453 1360 419 q 1385 547 1385 488 q 1384 576 1385 554 q 1380 617 1383 597 q 1369 636 1377 636 q 1355 615 1365 636 q 1335 564 1344 595 q 1326 504 1326 534 q 1333 463 1326 481 l 1333 463 q 1334 460 1333 462 q 1337 459 1335 459 q 1339 458 1338 458 l 1337 457 q 1333 454 1337 456 q 1324 453 1329 453 q 1301 479 1310 453 l 1301 481 q 1297 496 1300 487 l 1293 510 q 1286 535 1286 517 q 1301 586 1286 557 q 1338 636 1316 614 q 1380 657 1360 657 q 1406 653 1392 657 q 1428 632 1419 648 q 1436 583 1436 616 q 1427 512 1436 550 q 1400 439 1418 473 q 1359 383 1383 405 q 1306 361 1335 361 m 1095 637 l 1082 612 q 998 417 1013 469 l 997 414 q 995 408 997 411 q 991 401 993 404 q 987 399 990 399 q 987 399 987 399 q 973 409 980 406 q 964 417 966 412 l 963 419 q 962 433 962 423 q 966 501 962 465 q 901 463 928 463 q 882 471 890 463 q 862 497 869 486 l 854 507 l 848 485 q 842 464 845 475 q 836 435 839 454 q 833 420 834 427 q 831 408 831 414 q 818 375 824 375 q 816 376 817 375 q 803 385 810 381 q 791 397 796 389 q 785 428 785 405 q 802 564 785 489 q 840 706 819 639 q 878 815 862 774 q 856 816 869 816 q 802 814 835 816 q 646 745 671 808 l 643 754 q 638 776 640 762 q 676 835 638 822 q 756 848 713 848 q 824 851 793 851 q 894 857 884 851 q 907 867 901 867 q 917 854 913 867 l 918 850 q 928 831 922 837 q 929 827 929 829 l 904 770 q 833 524 846 633 q 850 572 840 547 q 943 715 903 715 q 954 711 947 715 q 967 699 962 707 q 972 673 972 690 q 962 622 972 656 q 931 558 952 588 q 878 518 911 528 l 878 517 q 889 504 882 512 q 905 496 897 496 q 934 510 920 496 q 978 570 958 534 q 1054 825 1003 685 l 1071 869 l 1072 871 q 1078 878 1074 876 q 1080 880 1078 879 q 1085 882 1082 882 q 1095 869 1090 882 q 1105 845 1101 850 q 1107 842 1107 843 l 1107 841 q 1082 785 1103 834 q 1008 522 1021 648 l 1017 547 q 1120 685 1075 685 l 1135 685 q 1155 673 1155 685 q 1147 656 1155 669 q 1105 499 1105 580 q 1154 417 1107 446 q 1192 408 1172 408 l 1195 408 l 1189 399 q 1181 393 1185 395 q 1146 387 1171 387 q 1107 395 1123 387 q 1072 437 1082 410 q 1063 478 1063 454 l 1064 489 q 1087 610 1067 541 q 1095 637 1093 631 z "},"A":{"ha":447,"x_min":46,"x_max":398,"o":"m 134 -27 q 116 -23 125 -27 q 96 -10 107 -19 q 77 7 84 -1 q 47 90 54 37 q 46 119 46 100 q 58 330 46 186 q 86 610 69 473 q 112 778 98 695 q 139 906 127 861 q 174 963 152 952 q 199 966 184 966 q 249 954 224 965 q 273 934 260 947 q 309 859 298 909 q 321 783 315 831 l 341 574 q 371 321 350 490 q 390 151 382 232 q 398 26 397 69 l 398 -3 l 394 -7 q 387 -13 390 -11 q 378 -16 384 -16 q 365 -9 371 -16 q 359 1 361 -5 l 349 114 l 334 252 l 328 253 q 265 250 311 253 q 216 245 219 247 q 212 197 215 242 q 181 10 199 47 q 134 -27 164 -27 m 221 291 l 222 292 q 273 297 226 294 l 297 299 q 325 302 324 302 q 326 306 326 302 l 325 321 q 283 692 301 508 q 271 807 274 802 q 271 808 271 808 q 270 809 271 809 l 262 748 q 227 396 239 582 q 220 298 220 313 q 221 291 220 291 z "},"B":{"ha":433,"x_min":48,"x_max":387,"o":"m 134 -14 l 121 -14 q 99 -12 106 -14 q 75 5 83 -5 q 65 33 67 15 q 60 105 63 48 l 58 153 q 49 666 50 287 l 48 919 q 101 966 48 957 q 174 973 134 973 q 295 943 242 971 q 330 918 314 933 q 384 806 382 869 l 384 797 q 351 680 384 743 q 250 547 317 614 l 228 526 l 238 516 q 267 490 249 507 q 334 421 301 461 q 384 304 374 370 q 387 256 387 283 q 384 205 387 230 q 346 89 374 133 q 258 16 317 45 q 134 -14 205 -10 m 204 567 l 225 586 q 273 642 250 610 q 339 798 339 730 q 297 888 339 849 l 283 899 q 238 918 270 908 q 203 927 220 924 q 202 923 202 924 q 201 915 201 922 q 201 848 201 907 l 204 567 m 210 44 l 213 45 q 231 52 220 47 q 312 120 286 77 q 340 220 330 153 q 341 248 341 233 q 340 282 341 265 q 336 309 338 299 q 309 377 329 347 q 243 450 289 407 l 205 487 q 201 274 201 343 q 203 142 201 201 q 208 53 204 102 q 210 44 208 44 z "},"C":{"ha":481,"x_min":47,"x_max":432,"o":"m 258 -5 q 239 -3 248 -5 q 106 85 159 12 q 56 252 68 144 q 47 439 47 338 q 58 652 47 557 q 94 802 69 727 q 231 979 142 948 q 258 983 245 983 q 321 954 294 983 q 357 841 357 913 l 355 814 q 350 774 354 798 q 343 731 347 751 q 337 707 339 711 q 330 700 335 703 q 319 696 325 696 q 306 703 311 698 q 300 714 300 709 q 305 758 300 723 q 311 836 311 802 q 301 901 311 880 l 298 907 l 292 899 q 277 872 283 886 q 248 747 255 817 q 241 565 242 688 q 239 381 239 460 q 245 168 239 240 q 256 82 249 106 q 281 51 263 58 q 288 47 286 47 q 296 50 292 47 q 353 108 332 62 q 380 220 370 141 q 385 286 382 239 q 389 335 387 327 q 393 346 390 342 q 410 353 401 353 q 430 340 422 353 q 432 326 432 335 q 425 212 429 243 q 416 157 422 186 q 407 120 411 133 q 395 90 404 107 q 363 40 380 58 q 318 9 345 21 q 258 -5 288 -5 z "},"D":{"ha":517,"x_min":47,"x_max":469,"o":"m 174 0 q 137 1 140 0 q 81 43 94 9 q 75 73 77 53 q 72 136 73 93 q 66 311 70 239 q 58 603 60 431 q 54 767 57 687 q 51 867 52 804 q 47 938 50 913 q 54 954 47 947 q 85 965 63 965 q 98 964 92 965 q 138 952 103 964 q 281 873 220 926 q 392 732 350 817 q 466 482 450 616 q 469 395 469 451 q 467 334 469 358 q 395 117 452 201 q 333 57 372 87 q 257 14 294 26 q 218 4 236 7 q 174 0 199 1 m 243 55 q 256 60 245 55 q 335 115 294 77 q 417 294 393 174 q 427 403 427 347 q 414 528 427 465 q 267 828 372 730 q 210 873 241 851 q 209 869 210 869 q 208 864 208 868 q 208 852 208 860 l 210 799 q 212 612 212 755 q 214 349 212 409 q 231 111 220 205 q 243 55 238 55 z "},"E":{"ha":421,"x_min":47,"x_max":373,"o":"m 158 2 q 123 4 135 2 q 61 64 76 11 q 57 93 58 74 q 56 185 56 112 q 52 343 54 298 q 47 564 47 469 q 51 945 48 755 q 55 961 51 956 q 72 968 58 966 q 115 971 85 970 q 227 975 161 975 q 283 974 273 975 q 298 971 294 974 q 307 964 302 969 q 310 951 310 959 q 307 941 310 945 q 301 933 304 936 q 292 930 298 931 q 273 930 286 930 l 208 931 q 192 930 195 931 q 189 925 190 929 q 193 864 189 912 q 197 731 197 810 q 198 585 197 675 q 203 415 200 481 q 267 419 258 419 q 279 416 275 419 q 290 397 290 409 q 283 380 290 387 q 273 376 279 377 q 233 371 262 374 q 204 370 222 370 l 222 64 q 224 52 223 53 q 311 60 245 52 q 349 65 340 65 q 358 63 353 65 q 373 41 373 55 q 363 24 373 31 q 323 16 356 21 q 158 2 228 2 z "},"F":{"ha":385,"x_min":47,"x_max":337,"o":"m 144 0 l 98 0 q 82 14 89 3 q 79 31 79 18 q 75 83 79 51 q 66 189 71 116 q 53 435 56 327 q 47 785 47 649 q 52 933 47 897 q 70 958 54 950 l 78 964 q 261 962 224 964 q 299 956 291 960 q 316 932 316 947 q 294 911 315 911 q 219 916 235 916 l 207 916 q 214 691 210 804 l 222 430 l 233 430 q 285 435 259 431 q 315 439 307 439 q 327 436 323 439 q 337 418 337 428 q 322 395 337 405 q 224 382 306 387 q 235 107 231 184 q 239 49 239 66 q 238 35 239 40 q 235 26 237 30 q 210 6 229 12 q 144 0 191 1 z "},"G":{"ha":518,"x_min":47,"x_max":469,"o":"m 254 -1 q 227 1 238 -1 q 181 20 205 6 q 139 52 157 34 q 76 164 102 87 q 47 390 47 260 q 62 578 47 483 q 127 810 85 716 q 248 957 176 922 q 273 967 262 964 q 302 970 285 970 q 323 968 317 969 q 338 963 330 966 q 412 876 393 939 q 419 846 417 860 q 422 798 420 838 q 417 767 422 776 q 401 759 412 759 q 388 763 392 759 q 383 773 384 768 q 380 802 382 778 q 364 877 378 852 q 346 904 359 890 q 338 909 340 909 q 322 875 333 907 q 276 713 295 798 q 250 519 260 635 q 240 287 240 402 q 241 204 240 235 q 252 104 244 153 q 264 44 261 49 l 272 45 q 315 58 300 50 q 421 255 404 105 q 423 302 423 275 q 415 384 423 347 q 405 425 408 421 q 382 426 404 426 q 273 420 363 426 q 269 423 272 421 q 263 428 266 425 q 259 434 260 431 q 258 443 258 437 q 263 458 258 453 q 286 467 269 464 q 375 472 332 472 q 425 468 414 472 q 443 452 437 465 q 458 407 450 439 q 469 305 469 360 q 447 156 469 229 q 431 120 441 140 q 412 85 421 100 q 254 -1 351 -1 z "},"H":{"ha":440,"x_min":47,"x_max":392,"o":"m 110 3 q 68 33 78 3 q 58 273 58 70 q 52 739 58 541 l 47 884 q 53 951 47 937 q 76 966 57 962 q 138 970 94 970 q 174 969 163 970 q 221 946 210 966 q 232 893 229 932 q 233 673 233 870 l 235 517 q 237 385 235 443 q 336 395 254 386 q 338 640 336 511 q 350 965 342 942 q 359 975 353 970 q 370 979 366 979 q 390 966 382 979 q 392 951 392 962 l 391 908 q 383 652 385 779 q 381 307 381 525 q 380 115 381 165 q 376 37 379 65 q 354 5 376 5 q 338 14 342 5 q 336 181 336 16 q 334 345 336 328 l 304 344 l 237 339 l 237 267 q 228 45 235 68 q 206 18 222 26 q 143 5 191 9 q 110 3 122 3 z "},"I":{"ha":254,"x_min":48,"x_max":207,"o":"m 139 -5 l 129 -4 q 72 20 87 3 q 56 53 61 32 q 50 119 52 73 q 48 488 48 185 q 50 845 48 797 q 58 927 53 893 q 67 968 62 961 q 127 981 82 981 q 185 974 172 979 q 205 952 199 968 q 207 922 207 947 q 204 844 207 899 q 202 559 202 791 q 204 247 202 328 l 207 101 q 206 37 207 48 q 202 20 205 26 q 187 1 196 6 q 155 -4 178 -4 l 139 -5 z "},"J":{"ha":441,"x_min":47,"x_max":393,"o":"m 180 -3 q 110 30 143 -3 q 72 87 85 54 q 54 178 59 121 q 50 259 52 201 q 47 393 47 318 l 50 396 q 58 405 54 402 q 70 408 62 408 q 80 406 75 408 q 87 400 85 403 q 90 389 90 397 q 94 316 92 377 q 98 198 96 221 q 106 137 100 163 q 135 70 115 95 q 181 44 156 44 q 193 45 189 44 q 201 50 197 46 q 223 82 217 60 q 229 169 229 105 l 229 220 q 224 781 224 676 q 224 842 224 813 q 227 897 224 852 q 223 912 227 905 q 220 925 220 918 q 224 939 220 932 q 242 954 229 949 q 292 962 256 959 q 321 964 309 964 q 373 946 363 964 q 379 932 377 941 q 384 905 382 924 q 387 849 385 886 q 393 541 393 678 q 348 107 393 203 q 314 57 334 80 q 273 23 294 34 q 215 1 237 4 q 180 -3 193 -3 z "},"K":{"ha":510,"x_min":48,"x_max":463,"o":"m 105 -7 q 100 -6 102 -7 q 96 -4 98 -5 q 81 8 86 -1 q 64 56 70 29 q 55 194 58 87 q 50 357 54 264 q 48 562 48 446 q 55 953 48 943 q 62 960 57 957 q 71 964 68 964 q 79 968 75 964 q 96 973 84 972 l 145 976 q 163 973 154 976 q 198 907 197 959 q 199 800 199 890 q 206 486 199 634 l 420 935 q 441 947 429 947 q 451 944 446 947 q 459 935 456 941 q 463 922 463 928 q 448 887 463 918 q 404 793 429 848 q 258 491 301 572 l 230 433 q 279 393 259 419 q 310 311 298 366 q 328 164 318 272 l 335 104 q 363 66 340 66 q 399 100 389 66 q 405 168 405 121 q 403 229 405 196 l 401 262 q 402 272 401 269 q 405 279 404 275 q 426 294 414 294 q 443 281 436 294 q 448 239 446 273 q 450 170 450 206 q 447 104 450 127 q 394 22 434 39 q 362 17 384 17 l 348 17 q 332 22 339 18 q 293 81 304 38 q 284 147 291 90 q 268 285 275 243 q 252 347 261 328 q 222 385 240 375 l 210 391 l 210 379 q 212 313 210 362 q 215 159 215 210 q 210 45 215 73 q 193 16 205 25 q 165 5 187 12 q 105 -7 142 -1 z "},"L":{"ha":456,"x_min":47,"x_max":429,"o":"m 279 -12 q 121 18 165 -12 q 64 104 79 47 q 47 248 48 162 l 48 921 l 47 941 q 52 961 47 952 q 71 975 56 969 q 106 976 89 975 q 139 977 123 977 q 185 967 167 977 q 204 922 204 957 l 197 106 q 213 65 199 79 q 250 46 227 51 q 301 42 273 42 q 340 43 319 42 q 408 43 361 43 q 424 36 419 43 q 429 19 429 28 q 424 1 429 9 q 406 -7 418 -7 l 389 -8 q 279 -12 334 -12 z "},"M":{"ha":707,"x_min":47,"x_max":656,"o":"m 181 -5 l 112 -3 q 73 -2 80 -3 q 64 1 66 -1 q 47 293 47 20 l 47 385 q 54 748 49 514 q 58 930 57 922 q 60 942 58 938 q 69 952 66 950 q 85 954 73 954 q 140 957 115 957 q 153 956 149 957 q 160 954 156 956 q 180 941 170 952 q 189 925 186 933 q 203 874 194 913 q 248 677 215 829 q 269 580 262 615 q 295 473 281 529 q 324 373 313 404 q 335 347 333 351 q 389 499 346 347 q 416 596 406 555 l 473 835 q 497 911 486 890 q 533 941 508 931 q 570 955 549 949 q 601 960 591 960 q 618 957 609 960 q 632 949 627 954 q 642 934 637 944 q 648 913 646 924 q 654 814 654 883 q 648 651 654 744 q 642 429 642 539 q 644 220 642 325 q 653 43 648 58 q 656 35 656 39 q 633 14 656 20 q 587 11 625 11 q 523 15 534 11 q 498 47 505 22 q 487 186 490 71 q 481 552 484 302 l 480 677 l 468 626 q 416 441 453 564 q 382 339 392 360 q 334 297 360 297 q 313 305 324 297 q 264 422 292 322 q 245 493 256 449 q 225 581 233 544 l 224 574 q 222 490 223 559 q 219 372 222 427 l 215 61 q 210 12 214 20 q 204 3 208 7 q 196 -3 201 -1 q 181 -5 191 -5 z "},"N":{"ha":517,"x_min":47,"x_max":469,"o":"m 150 3 q 104 6 121 3 q 52 39 62 13 q 50 110 50 43 l 49 479 q 47 923 49 900 l 47 928 q 68 950 47 949 q 95 955 75 950 q 132 959 118 959 q 144 958 141 959 q 151 954 147 957 q 168 934 160 949 q 186 887 176 920 q 232 723 196 855 l 258 625 l 266 599 q 306 457 282 538 q 378 214 366 254 l 399 151 q 405 138 404 138 q 410 210 406 138 q 421 485 418 369 q 425 787 424 584 q 427 899 426 876 q 432 931 428 926 q 436 934 434 933 q 438 935 437 935 q 448 938 444 938 q 458 935 454 938 l 459 934 q 468 918 466 930 q 469 855 469 906 l 469 751 q 446 81 467 370 q 437 26 442 36 q 428 19 433 22 q 416 15 418 15 q 405 19 411 15 q 396 28 399 23 q 382 66 393 34 q 350 161 370 98 q 303 311 336 199 l 258 466 l 212 626 l 186 720 q 184 729 185 729 l 184 666 q 189 517 186 621 q 197 293 193 388 q 202 168 199 234 q 205 84 205 116 q 200 31 205 39 q 178 7 194 14 q 169 4 174 5 q 150 3 165 3 z "},"O":{"ha":510,"x_min":48,"x_max":463,"o":"m 220 -1 q 203 1 210 -1 q 181 9 193 3 q 159 22 168 16 q 100 113 127 47 q 48 420 48 241 l 48 442 q 86 723 50 577 q 132 857 105 800 q 142 876 140 871 q 153 895 144 880 q 184 939 176 931 q 224 962 199 954 q 270 970 248 970 q 286 969 281 970 q 385 907 342 959 q 442 783 421 866 q 463 607 463 708 q 439 357 463 498 q 265 5 391 41 q 220 -1 248 -1 m 245 47 l 249 47 q 264 52 256 49 q 344 147 308 68 q 413 454 388 241 q 420 522 418 495 q 423 612 421 540 q 394 804 423 722 q 372 852 383 834 q 344 887 361 870 q 313 911 327 905 q 308 913 310 913 q 290 895 302 913 q 237 755 262 848 q 191 382 191 586 q 210 141 191 249 q 221 89 216 107 q 237 56 227 71 q 245 47 242 47 z "},"P":{"ha":492,"x_min":48,"x_max":444,"o":"m 119 -11 l 109 -10 q 90 -3 101 -9 q 64 33 71 6 q 53 123 56 84 q 50 298 51 158 q 48 586 48 439 q 49 773 48 692 q 52 875 50 854 q 54 916 54 895 l 53 931 q 57 947 53 937 q 65 960 61 956 q 76 964 70 964 q 87 962 82 964 q 131 957 92 960 l 176 954 q 442 718 421 933 q 444 680 444 703 q 439 596 444 637 q 377 434 425 503 q 262 324 330 365 q 220 304 252 318 l 220 236 q 215 79 217 126 q 203 20 213 37 q 119 -11 184 -11 m 224 355 l 240 363 q 376 533 334 420 q 398 674 398 589 q 396 723 398 706 q 317 865 385 821 q 272 888 299 876 q 226 904 245 899 q 222 905 223 904 q 221 904 222 905 q 221 903 221 904 l 225 840 q 227 749 227 802 q 224 589 227 679 q 223 526 223 565 q 222 450 222 488 q 223 383 222 411 q 224 355 223 355 z "},"Q":{"ha":573,"x_min":47,"x_max":547,"o":"m 449 -150 q 427 -147 439 -150 q 365 -102 387 -137 q 340 24 342 -64 q 299 7 321 12 q 248 1 280 1 q 227 3 235 1 q 201 11 216 5 q 176 23 186 17 q 108 114 138 49 q 47 415 47 238 l 47 438 q 91 715 49 571 q 145 846 113 791 l 156 866 q 168 884 158 870 q 190 911 178 897 q 205 928 201 924 q 251 950 222 942 q 307 959 279 959 q 323 958 317 959 q 438 897 387 947 q 505 774 481 855 q 528 600 528 701 q 502 354 528 493 q 418 103 471 186 q 387 62 403 80 q 391 -42 387 -20 q 424 -98 401 -86 q 449 -104 433 -104 q 488 -74 473 -104 q 500 -6 499 -52 q 504 29 502 24 q 522 39 511 39 q 539 33 532 39 q 544 27 542 30 q 546 6 545 24 l 547 -1 q 528 -96 547 -60 q 449 -150 499 -150 m 388 143 q 391 147 390 145 q 471 450 441 239 q 479 517 477 491 q 482 606 480 534 q 468 735 482 684 q 449 795 461 766 q 424 843 436 825 q 391 878 411 861 q 355 901 371 895 q 349 903 352 903 q 340 898 345 903 q 328 884 336 894 q 266 747 295 837 q 224 558 237 656 q 215 468 217 505 q 213 378 213 432 q 218 256 213 313 q 267 269 239 263 q 310 275 294 275 q 357 262 340 275 q 381 225 374 248 q 389 158 389 203 l 388 143 m 276 48 l 280 49 q 341 80 313 54 l 341 86 q 343 161 343 134 q 341 197 343 185 q 309 232 336 232 q 278 228 301 232 q 238 218 255 223 l 222 215 q 235 141 227 178 q 248 89 241 108 q 267 56 255 71 q 276 48 273 48 z "},"R":{"ha":519,"x_min":47,"x_max":479,"o":"m 155 0 q 123 2 130 0 q 93 16 105 7 q 79 38 84 24 q 71 81 75 52 q 58 256 64 129 q 47 695 47 468 q 52 946 47 928 q 71 957 58 957 l 81 957 q 129 962 95 958 l 136 962 q 153 963 145 963 q 189 955 179 963 q 203 950 197 950 q 222 949 208 950 q 269 939 250 945 q 316 917 290 932 q 361 886 342 901 q 400 842 379 869 q 433 793 421 815 q 468 701 454 750 q 479 610 479 658 q 445 451 479 524 q 319 326 404 360 q 279 312 297 316 l 275 311 q 267 308 267 310 q 271 301 267 306 l 274 296 q 299 240 290 273 q 315 158 309 207 q 335 68 322 79 q 342 62 339 63 q 350 60 345 60 q 365 65 359 60 q 376 82 370 70 q 385 110 382 94 q 389 162 388 126 l 390 204 q 402 215 400 214 q 412 216 404 216 q 435 177 435 216 l 435 171 q 429 99 433 120 q 397 33 422 56 q 351 14 378 14 q 283 71 304 14 q 271 141 276 92 q 245 258 261 224 q 221 288 234 283 l 213 290 q 209 285 210 290 q 208 267 208 280 q 212 178 208 235 q 219 83 215 121 q 222 46 222 60 q 211 12 222 20 q 193 2 203 5 q 155 0 186 0 m 206 350 l 235 352 q 427 541 389 366 q 434 612 434 579 q 431 648 434 630 q 304 870 408 798 q 215 906 261 901 l 208 907 l 206 350 z "},"S":{"ha":440,"x_min":47,"x_max":393,"o":"m 208 3 q 184 4 193 3 q 134 22 164 7 q 94 49 108 35 q 70 84 79 62 q 57 142 57 114 q 98 225 57 193 q 118 233 110 233 q 138 222 134 233 q 142 212 142 218 q 124 188 142 201 q 102 149 104 173 q 110 107 102 127 q 126 79 117 88 q 141 68 131 75 q 180 51 165 54 q 221 47 195 47 q 243 49 240 47 q 250 62 247 52 q 257 98 255 74 q 245 189 254 155 q 205 288 234 231 q 168 357 181 336 q 140 408 157 374 q 85 522 98 488 l 75 547 q 55 624 62 582 q 47 704 47 667 q 49 736 47 722 q 127 914 64 840 q 229 968 176 968 l 244 966 q 296 945 270 962 q 338 907 323 928 q 356 869 350 888 q 362 825 361 850 l 363 812 q 345 720 363 767 q 327 681 339 705 q 306 643 315 656 q 277 622 292 622 q 264 628 271 622 q 258 641 258 634 q 267 659 258 649 q 283 688 273 667 q 300 726 294 709 q 313 772 309 752 q 317 815 317 792 q 315 846 317 838 q 267 912 304 890 q 227 924 247 924 q 178 901 201 924 q 155 866 162 885 q 148 819 148 848 q 195 659 148 749 q 277 517 231 591 q 378 299 354 393 q 393 194 393 242 q 366 83 393 131 q 335 43 351 58 q 262 6 305 16 q 208 3 249 3 z "},"T":{"ha":529,"x_min":47,"x_max":480,"o":"m 315 0 l 290 0 q 270 7 281 1 q 237 39 249 16 q 220 111 226 61 q 212 254 215 161 l 209 356 q 203 569 205 431 q 201 814 201 708 q 201 907 201 892 q 117 902 175 907 q 69 899 83 899 q 52 905 58 899 q 47 918 47 911 q 56 935 47 927 q 95 943 58 938 q 239 958 172 954 q 414 967 277 961 l 464 968 q 480 947 480 963 q 473 928 480 932 q 440 922 465 924 q 340 916 426 921 l 345 737 q 360 388 351 526 l 367 294 q 371 121 371 235 q 370 65 371 82 q 315 0 366 0 z "},"U":{"ha":475,"x_min":48,"x_max":428,"o":"m 242 0 q 82 92 134 0 q 65 139 72 108 q 56 247 59 171 q 48 887 50 374 q 49 934 48 922 q 53 950 50 945 q 62 958 56 956 q 82 962 67 961 q 115 964 98 964 q 170 959 154 964 q 210 876 205 953 q 213 755 213 829 q 210 627 213 694 q 207 437 207 543 q 208 319 207 365 q 214 181 210 273 l 217 125 q 222 49 220 53 q 237 46 225 46 q 269 50 256 46 q 361 140 335 71 q 377 219 372 172 q 382 347 382 266 q 375 678 382 488 l 372 882 q 372 899 372 893 q 373 906 372 904 q 375 911 374 909 q 394 921 383 921 q 412 911 406 921 l 414 905 q 419 730 416 893 l 422 622 q 428 339 428 425 q 422 212 428 268 q 380 76 414 125 q 357 50 372 64 q 275 3 321 14 q 242 0 262 0 z "},"V":{"ha":538,"x_min":47,"x_max":498,"o":"m 232 9 q 198 11 216 9 q 138 52 148 14 q 113 203 128 79 q 101 332 105 271 q 89 521 96 393 q 81 638 85 595 q 66 798 78 681 q 50 928 54 915 q 47 941 47 937 l 47 946 q 58 969 52 964 q 81 974 65 974 l 99 973 l 106 972 q 170 958 152 967 q 197 930 188 949 q 214 862 205 910 l 224 800 q 247 614 231 752 q 269 433 258 519 q 295 226 286 317 q 307 129 305 136 q 316 165 308 129 q 332 248 323 201 l 349 332 q 401 621 359 380 q 433 804 420 728 l 454 938 q 476 953 462 953 q 486 950 481 953 q 494 941 491 947 q 498 929 498 935 q 490 879 498 924 q 454 660 471 758 q 394 324 419 459 q 356 134 365 172 q 315 31 336 52 q 232 9 290 9 z "},"W":{"ha":807,"x_min":48,"x_max":760,"o":"m 262 1 q 151 64 173 1 q 132 135 140 91 q 96 429 121 199 q 71 633 83 543 q 48 907 48 803 q 51 943 48 936 q 62 957 54 949 q 76 967 70 965 q 106 971 85 969 q 143 972 127 972 q 201 960 180 972 q 224 930 218 951 q 240 833 231 907 q 258 658 250 760 l 289 295 l 297 193 q 304 227 298 193 q 351 621 340 458 q 358 691 355 682 q 370 707 360 701 q 381 711 376 711 q 394 707 388 711 q 404 697 401 703 q 424 637 411 688 q 467 458 437 586 l 474 428 l 503 288 q 524 196 523 196 q 536 315 524 204 q 569 652 544 379 q 596 884 584 822 q 631 937 605 931 q 675 938 640 938 q 731 936 715 938 q 751 930 747 935 q 760 904 760 922 q 758 878 760 894 q 725 621 743 774 q 675 230 696 366 l 662 138 q 652 82 656 102 q 641 53 648 62 q 625 38 635 43 q 606 33 614 33 q 519 59 545 36 q 504 86 511 66 q 486 150 496 106 q 451 315 476 194 q 414 481 433 396 q 393 570 395 566 q 392 556 393 570 q 362 311 385 473 q 327 89 342 170 q 310 29 319 48 q 283 4 300 10 q 262 1 277 1 z "},"X":{"ha":486,"x_min":48,"x_max":439,"o":"m 339 15 l 330 16 q 271 68 292 18 q 253 120 266 80 q 226 208 240 161 q 204 286 212 254 q 195 317 197 317 l 194 317 l 132 144 q 93 45 103 68 q 79 18 83 22 q 67 15 76 15 q 59 16 62 15 q 54 21 56 17 q 48 35 48 26 q 61 81 48 49 l 168 380 q 174 401 174 399 q 156 476 174 406 q 76 818 96 710 q 70 846 71 841 q 65 853 68 852 q 60 857 63 854 q 52 866 53 862 q 50 877 50 870 q 55 895 50 888 q 71 908 59 902 q 143 925 100 925 l 159 925 q 176 920 169 924 q 201 883 189 913 q 233 782 214 852 q 269 659 263 669 l 280 688 q 353 882 303 752 l 368 920 q 394 971 385 965 q 407 975 399 975 q 420 968 414 975 q 427 954 427 963 q 401 876 427 939 q 377 815 384 831 q 351 745 366 788 q 290 580 290 585 q 320 476 290 574 l 345 397 q 382 281 368 323 q 419 165 404 220 q 437 87 434 111 l 439 72 q 403 26 439 37 q 372 18 390 22 q 339 15 354 15 z "},"Y":{"ha":489,"x_min":47,"x_max":441,"o":"m 239 0 q 234 2 237 0 q 221 15 232 3 l 221 307 q 178 313 196 309 q 140 326 159 316 q 64 414 83 352 q 51 500 55 445 q 47 614 48 532 l 47 954 q 54 961 51 958 q 60 965 57 964 q 77 967 62 967 q 123 970 92 967 q 153 971 140 971 q 194 964 183 971 q 210 939 205 957 q 215 879 215 922 l 214 821 q 210 606 210 710 q 220 353 210 441 q 284 364 256 355 q 334 393 313 372 q 387 510 372 428 q 394 553 392 532 q 396 615 396 575 l 395 668 q 388 884 393 797 l 387 911 q 389 929 387 924 q 396 938 391 935 q 408 941 401 941 q 429 930 423 941 q 441 684 436 906 l 441 622 q 335 336 441 398 q 265 311 304 319 q 264 305 264 307 q 263 292 263 302 l 264 254 q 266 78 266 182 l 265 13 l 262 9 q 255 3 258 5 q 239 0 252 1 z "},"Z":{"ha":591,"x_min":48,"x_max":544,"o":"m 439 0 l 351 1 l 155 6 l 68 14 q 48 34 48 16 q 50 45 48 38 q 57 71 54 65 q 90 164 59 72 q 113 234 100 196 l 131 285 q 182 419 150 338 q 262 633 242 573 l 317 793 q 338 852 331 835 q 357 910 357 907 l 354 910 q 248 913 286 913 l 195 912 q 126 916 140 912 q 113 935 113 920 q 120 951 113 948 q 155 955 127 955 q 216 957 189 955 l 358 956 q 425 962 421 961 q 485 966 463 965 l 522 968 q 530 962 526 965 q 537 957 534 960 q 543 948 541 954 q 543 946 543 947 q 544 941 544 944 q 510 832 544 932 q 380 492 461 692 l 351 418 q 301 289 334 378 q 280 232 298 280 l 264 191 q 212 51 241 127 q 287 49 212 50 l 388 46 q 452 43 445 45 q 469 20 469 39 q 468 13 469 16 q 460 1 467 10 l 439 0 z "},"[":{"ha":479,"x_min":5,"x_max":410,"o":"m 384 665 l 373 665 l 359 667 q 291 707 342 673 q 210 760 239 741 q 170 789 182 779 q 155 827 155 806 q 170 865 155 849 q 192 882 186 881 q 214 880 210 882 q 258 853 228 874 l 268 846 q 323 806 296 827 q 358 778 353 783 q 371 768 363 773 q 375 765 372 766 q 408 711 404 738 l 409 701 q 384 665 409 676 m 195 135 q 169 144 181 135 q 153 172 157 153 q 149 193 149 190 q 159 220 149 201 q 173 233 161 225 q 185 243 178 237 q 205 257 193 249 q 216 265 210 260 q 269 300 235 279 l 325 336 q 370 349 351 349 q 386 346 379 349 q 393 343 392 343 q 408 323 403 338 q 410 307 410 315 q 410 304 410 306 q 408 299 409 302 q 406 294 407 296 q 398 280 405 292 q 334 227 385 265 l 325 219 q 256 168 281 187 q 214 140 229 147 q 195 135 204 135 m 68 449 q 43 450 52 449 q 7 481 16 456 q 5 500 5 490 q 6 514 5 507 l 12 532 q 26 547 16 543 l 36 553 q 91 556 48 556 l 116 556 q 164 555 136 556 l 216 552 q 228 551 222 552 q 281 526 265 545 q 288 517 285 522 q 291 511 290 512 l 292 510 q 293 500 293 506 q 284 472 293 485 q 275 466 276 466 q 273 465 274 465 q 272 464 273 464 q 271 463 271 463 l 262 459 q 184 452 245 453 l 68 449 z "},"\\":{"ha":503,"x_min":48,"x_max":441,"o":"m 356 -41 l 342 -41 q 304 -19 317 -39 q 283 33 293 -3 q 250 165 273 69 q 92 795 139 627 q 72 867 79 840 q 48 979 64 897 q 58 995 48 989 q 105 1001 66 998 q 144 1002 122 1002 q 182 990 176 1000 q 189 967 184 988 l 193 956 q 221 854 200 926 q 283 640 254 744 q 349 387 317 519 l 403 173 l 410 142 q 441 -7 441 7 q 440 -15 441 -12 q 433 -21 438 -18 q 424 -25 429 -24 q 420 -26 422 -25 q 415 -28 417 -26 q 404 -32 412 -29 q 386 -37 396 -34 q 370 -40 376 -39 q 356 -41 363 -41 z "},"]":{"ha":479,"x_min":74,"x_max":479,"o":"m 111 675 l 100 675 q 85 686 92 679 q 75 709 75 696 q 76 717 75 714 q 109 775 76 743 l 125 787 q 161 816 130 793 q 216 857 188 838 l 227 863 q 272 891 260 887 q 292 892 281 892 q 305 883 300 890 q 330 837 329 867 q 314 800 330 817 q 274 770 302 789 q 194 717 245 751 q 125 677 142 683 l 111 675 m 290 145 q 269 150 280 145 q 228 178 256 157 q 149 237 210 192 q 86 290 98 275 l 79 302 l 77 307 q 74 318 74 313 q 85 350 74 337 q 87 351 86 351 q 90 353 88 352 q 99 356 92 353 q 115 359 105 359 q 159 346 134 359 q 164 343 163 343 l 216 311 q 268 275 225 306 q 279 267 274 271 q 311 243 301 250 q 324 231 321 237 q 331 221 326 230 q 336 205 336 212 q 334 196 336 199 q 317 157 332 171 q 290 145 305 145 m 416 459 q 393 460 406 459 q 364 460 380 460 l 299 463 q 221 469 239 463 l 209 475 q 192 511 192 486 q 193 522 192 518 l 197 528 q 256 561 210 554 q 261 562 258 562 q 268 562 264 562 q 319 565 271 562 q 368 566 348 566 q 420 566 407 566 q 448 564 441 566 q 458 557 450 563 q 467 552 465 555 q 473 543 469 549 l 475 536 q 479 511 479 519 q 477 496 479 503 l 477 492 q 441 460 467 467 q 416 459 431 459 z "},"^":{"ha":406,"x_min":48,"x_max":358,"o":"m 79 834 q 75 836 78 836 q 56 850 64 838 q 48 875 48 863 q 104 975 48 895 q 154 1035 138 1023 q 182 1048 170 1046 q 203 1050 189 1050 q 223 1049 216 1050 q 239 1044 230 1048 q 281 1013 262 1033 q 324 954 300 992 q 357 880 355 905 l 358 878 q 338 848 358 860 q 324 845 332 845 q 263 883 301 845 q 226 915 239 907 q 202 924 214 924 q 183 919 191 924 q 138 878 175 915 q 90 837 100 840 q 82 835 84 836 q 79 834 79 834 z "},"_":{"ha":605,"x_min":0,"x_max":605,"o":"m 332 -128 q 37 -117 204 -128 q 0 -42 0 -100 q 5 -7 0 -16 q 230 13 39 13 q 431 9 331 13 q 547 7 504 7 q 580 9 569 7 l 584 7 q 597 -5 594 1 q 603 -30 601 -11 q 605 -66 605 -48 q 601 -101 604 -96 q 562 -125 591 -122 q 332 -128 389 -128 z "},"`":{"ha":323,"x_min":47,"x_max":276,"o":"m 233 882 l 228 882 q 177 894 210 885 q 115 913 145 903 q 71 930 84 923 q 47 969 47 946 q 56 997 47 983 q 74 1015 69 1013 q 85 1018 79 1017 q 90 1019 87 1018 q 95 1019 92 1019 q 196 986 106 1019 q 228 972 213 980 q 272 931 262 955 q 276 916 276 919 q 271 898 276 907 q 257 886 265 890 q 233 882 250 882 z "},"a":{"ha":447,"x_min":46,"x_max":398,"o":"m 134 -27 q 116 -23 125 -27 q 96 -10 107 -19 q 77 7 84 -1 q 47 90 54 37 q 46 119 46 100 q 58 330 46 186 q 86 610 69 473 q 112 778 98 695 q 139 906 127 861 q 174 963 152 952 q 199 966 184 966 q 249 954 224 965 q 273 934 260 947 q 309 859 298 909 q 321 783 315 831 l 341 574 q 371 321 350 490 q 390 151 382 232 q 398 26 397 69 l 398 -3 l 394 -7 q 387 -13 390 -11 q 378 -16 384 -16 q 365 -9 371 -16 q 359 1 361 -5 l 349 114 l 334 252 l 328 253 q 265 250 311 253 q 216 245 219 247 q 212 197 215 242 q 181 10 199 47 q 134 -27 164 -27 m 221 291 l 222 292 q 273 297 226 294 l 297 299 q 325 302 324 302 q 326 306 326 302 l 325 321 q 283 692 301 508 q 271 807 274 802 q 271 808 271 808 q 270 809 271 809 l 262 748 q 227 396 239 582 q 220 298 220 313 q 221 291 220 291 z "},"b":{"ha":433,"x_min":48,"x_max":387,"o":"m 134 -14 l 121 -14 q 99 -12 106 -14 q 75 5 83 -5 q 65 33 67 15 q 60 105 63 48 l 58 153 q 49 666 50 287 l 48 919 q 101 966 48 957 q 174 973 134 973 q 295 943 242 971 q 330 918 314 933 q 384 806 382 869 l 384 797 q 351 680 384 743 q 250 547 317 614 l 228 526 l 238 516 q 267 490 249 507 q 334 421 301 461 q 384 304 374 370 q 387 256 387 283 q 384 205 387 230 q 346 89 374 133 q 258 16 317 45 q 134 -14 205 -10 m 204 567 l 225 586 q 273 642 250 610 q 339 798 339 730 q 297 888 339 849 l 283 899 q 238 918 270 908 q 203 927 220 924 q 202 923 202 924 q 201 915 201 922 q 201 848 201 907 l 204 567 m 210 44 l 213 45 q 231 52 220 47 q 312 120 286 77 q 340 220 330 153 q 341 248 341 233 q 340 282 341 265 q 336 309 338 299 q 309 377 329 347 q 243 450 289 407 l 205 487 q 201 274 201 343 q 203 142 201 201 q 208 53 204 102 q 210 44 208 44 z "},"c":{"ha":481,"x_min":47,"x_max":432,"o":"m 258 -5 q 239 -3 248 -5 q 106 85 159 12 q 56 252 68 144 q 47 439 47 338 q 58 652 47 557 q 94 802 69 727 q 231 979 142 948 q 258 983 245 983 q 321 954 294 983 q 357 841 357 913 l 355 814 q 350 774 354 798 q 343 731 347 751 q 337 707 339 711 q 330 700 335 703 q 319 696 325 696 q 306 703 311 698 q 300 714 300 709 q 305 758 300 723 q 311 836 311 802 q 301 901 311 880 l 298 907 l 292 899 q 277 872 283 886 q 248 747 255 817 q 241 565 242 688 q 239 381 239 460 q 245 168 239 240 q 256 82 249 106 q 281 51 263 58 q 288 47 286 47 q 296 50 292 47 q 353 108 332 62 q 380 220 370 141 q 385 286 382 239 q 389 335 387 327 q 393 346 390 342 q 410 353 401 353 q 430 340 422 353 q 432 326 432 335 q 425 212 429 243 q 416 157 422 186 q 407 120 411 133 q 395 90 404 107 q 363 40 380 58 q 318 9 345 21 q 258 -5 288 -5 z "},"d":{"ha":517,"x_min":47,"x_max":469,"o":"m 174 0 q 137 1 140 0 q 81 43 94 9 q 75 73 77 53 q 72 136 73 93 q 66 311 70 239 q 58 603 60 431 q 54 767 57 687 q 51 867 52 804 q 47 938 50 913 q 54 954 47 947 q 85 965 63 965 q 98 964 92 965 q 138 952 103 964 q 281 873 220 926 q 392 732 350 817 q 466 482 450 616 q 469 395 469 451 q 467 334 469 358 q 395 117 452 201 q 333 57 372 87 q 257 14 294 26 q 218 4 236 7 q 174 0 199 1 m 243 55 q 256 60 245 55 q 335 115 294 77 q 417 294 393 174 q 427 403 427 347 q 414 528 427 465 q 267 828 372 730 q 210 873 241 851 q 209 869 210 869 q 208 864 208 868 q 208 852 208 860 l 210 799 q 212 612 212 755 q 214 349 212 409 q 231 111 220 205 q 243 55 238 55 z "},"e":{"ha":421,"x_min":47,"x_max":373,"o":"m 158 2 q 123 4 135 2 q 61 64 76 11 q 57 93 58 74 q 56 185 56 112 q 52 343 54 298 q 47 564 47 469 q 51 945 48 755 q 55 961 51 956 q 72 968 58 966 q 115 971 85 970 q 227 975 161 975 q 283 974 273 975 q 298 971 294 974 q 307 964 302 969 q 310 951 310 959 q 307 941 310 945 q 301 933 304 936 q 292 930 298 931 q 273 930 286 930 l 208 931 q 192 930 195 931 q 189 925 190 929 q 193 864 189 912 q 197 731 197 810 q 198 585 197 675 q 203 415 200 481 q 267 419 258 419 q 279 416 275 419 q 290 397 290 409 q 283 380 290 387 q 273 376 279 377 q 233 371 262 374 q 204 370 222 370 l 222 64 q 224 52 223 53 q 311 60 245 52 q 349 65 340 65 q 358 63 353 65 q 373 41 373 55 q 363 24 373 31 q 323 16 356 21 q 158 2 228 2 z "},"f":{"ha":385,"x_min":47,"x_max":337,"o":"m 144 0 l 98 0 q 82 14 89 3 q 79 31 79 18 q 75 83 79 51 q 66 189 71 116 q 53 435 56 327 q 47 785 47 649 q 52 933 47 897 q 70 958 54 950 l 78 964 q 261 962 224 964 q 299 956 291 960 q 316 932 316 947 q 294 911 315 911 q 219 916 235 916 l 207 916 q 214 691 210 804 l 222 430 l 233 430 q 285 435 259 431 q 315 439 307 439 q 327 436 323 439 q 337 418 337 428 q 322 395 337 405 q 224 382 306 387 q 235 107 231 184 q 239 49 239 66 q 238 35 239 40 q 235 26 237 30 q 210 6 229 12 q 144 0 191 1 z "},"g":{"ha":518,"x_min":47,"x_max":469,"o":"m 254 -1 q 227 1 238 -1 q 181 20 205 6 q 139 52 157 34 q 76 164 102 87 q 47 390 47 260 q 62 578 47 483 q 127 810 85 716 q 248 957 176 922 q 273 967 262 964 q 302 970 285 970 q 323 968 317 969 q 338 963 330 966 q 412 876 393 939 q 419 846 417 860 q 422 798 420 838 q 417 767 422 776 q 401 759 412 759 q 388 763 392 759 q 383 773 384 768 q 380 802 382 778 q 364 877 378 852 q 346 904 359 890 q 338 909 340 909 q 322 875 333 907 q 276 713 295 798 q 250 519 260 635 q 240 287 240 402 q 241 204 240 235 q 252 104 244 153 q 264 44 261 49 l 272 45 q 315 58 300 50 q 421 255 404 105 q 423 302 423 275 q 415 384 423 347 q 405 425 408 421 q 382 426 404 426 q 273 420 363 426 q 269 423 272 421 q 263 428 266 425 q 259 434 260 431 q 258 443 258 437 q 263 458 258 453 q 286 467 269 464 q 375 472 332 472 q 425 468 414 472 q 443 452 437 465 q 458 407 450 439 q 469 305 469 360 q 447 156 469 229 q 431 120 441 140 q 412 85 421 100 q 254 -1 351 -1 z "},"h":{"ha":440,"x_min":47,"x_max":392,"o":"m 110 3 q 68 33 78 3 q 58 273 58 70 q 52 739 58 541 l 47 884 q 53 951 47 937 q 76 966 57 962 q 138 970 94 970 q 174 969 163 970 q 221 946 210 966 q 232 893 229 932 q 233 673 233 870 l 235 517 q 237 385 235 443 q 336 395 254 386 q 338 640 336 511 q 350 965 342 942 q 359 975 353 970 q 370 979 366 979 q 390 966 382 979 q 392 951 392 962 l 391 908 q 383 652 385 779 q 381 307 381 525 q 380 115 381 165 q 376 37 379 65 q 354 5 376 5 q 338 14 342 5 q 336 181 336 16 q 334 345 336 328 l 304 344 l 237 339 l 237 267 q 228 45 235 68 q 206 18 222 26 q 143 5 191 9 q 110 3 122 3 z "},"i":{"ha":254,"x_min":48,"x_max":207,"o":"m 139 -5 l 129 -4 q 72 20 87 3 q 56 53 61 32 q 50 119 52 73 q 48 488 48 185 q 50 845 48 797 q 58 927 53 893 q 67 968 62 961 q 127 981 82 981 q 185 974 172 979 q 205 952 199 968 q 207 922 207 947 q 204 844 207 899 q 202 559 202 791 q 204 247 202 328 l 207 101 q 206 37 207 48 q 202 20 205 26 q 187 1 196 6 q 155 -4 178 -4 l 139 -5 z "},"j":{"ha":441,"x_min":47,"x_max":393,"o":"m 180 -3 q 110 30 143 -3 q 72 87 85 54 q 54 178 59 121 q 50 259 52 201 q 47 393 47 318 l 50 396 q 58 405 54 402 q 70 408 62 408 q 80 406 75 408 q 87 400 85 403 q 90 389 90 397 q 94 316 92 377 q 98 198 96 221 q 106 137 100 163 q 135 70 115 95 q 181 44 156 44 q 193 45 189 44 q 201 50 197 46 q 223 82 217 60 q 229 169 229 105 l 229 220 q 224 781 224 676 q 224 842 224 813 q 227 897 224 852 q 223 912 227 905 q 220 925 220 918 q 224 939 220 932 q 242 954 229 949 q 292 962 256 959 q 321 964 309 964 q 373 946 363 964 q 379 932 377 941 q 384 905 382 924 q 387 849 385 886 q 393 541 393 678 q 348 107 393 203 q 314 57 334 80 q 273 23 294 34 q 215 1 237 4 q 180 -3 193 -3 z "},"k":{"ha":510,"x_min":48,"x_max":463,"o":"m 105 -7 q 100 -6 102 -7 q 96 -4 98 -5 q 81 8 86 -1 q 64 56 70 29 q 55 194 58 87 q 50 357 54 264 q 48 562 48 446 q 55 953 48 943 q 62 960 57 957 q 71 964 68 964 q 79 968 75 964 q 96 973 84 972 l 145 976 q 163 973 154 976 q 198 907 197 959 q 199 800 199 890 q 206 486 199 634 l 420 935 q 441 947 429 947 q 451 944 446 947 q 459 935 456 941 q 463 922 463 928 q 448 887 463 918 q 404 793 429 848 q 258 491 301 572 l 230 433 q 279 393 259 419 q 310 311 298 366 q 328 164 318 272 l 335 104 q 363 66 340 66 q 399 100 389 66 q 405 168 405 121 q 403 229 405 196 l 401 262 q 402 272 401 269 q 405 279 404 275 q 426 294 414 294 q 443 281 436 294 q 448 239 446 273 q 450 170 450 206 q 447 104 450 127 q 394 22 434 39 q 362 17 384 17 l 348 17 q 332 22 339 18 q 293 81 304 38 q 284 147 291 90 q 268 285 275 243 q 252 347 261 328 q 222 385 240 375 l 210 391 l 210 379 q 212 313 210 362 q 215 159 215 210 q 210 45 215 73 q 193 16 205 25 q 165 5 187 12 q 105 -7 142 -1 z "},"l":{"ha":456,"x_min":47,"x_max":429,"o":"m 279 -12 q 121 18 165 -12 q 64 104 79 47 q 47 248 48 162 l 48 921 l 47 941 q 52 961 47 952 q 71 975 56 969 q 106 976 89 975 q 139 977 123 977 q 185 967 167 977 q 204 922 204 957 l 197 106 q 213 65 199 79 q 250 46 227 51 q 301 42 273 42 q 340 43 319 42 q 408 43 361 43 q 424 36 419 43 q 429 19 429 28 q 424 1 429 9 q 406 -7 418 -7 l 389 -8 q 279 -12 334 -12 z "},"m":{"ha":707,"x_min":47,"x_max":656,"o":"m 181 -5 l 112 -3 q 73 -2 80 -3 q 64 1 66 -1 q 47 293 47 20 l 47 385 q 54 748 49 514 q 58 930 57 922 q 60 942 58 938 q 69 952 66 950 q 85 954 73 954 q 140 957 115 957 q 153 956 149 957 q 160 954 156 956 q 180 941 170 952 q 189 925 186 933 q 203 874 194 913 q 248 677 215 829 q 269 580 262 615 q 295 473 281 529 q 324 373 313 404 q 335 347 333 351 q 389 499 346 347 q 416 596 406 555 l 473 835 q 497 911 486 890 q 533 941 508 931 q 570 955 549 949 q 601 960 591 960 q 618 957 609 960 q 632 949 627 954 q 642 934 637 944 q 648 913 646 924 q 654 814 654 883 q 648 651 654 744 q 642 429 642 539 q 644 220 642 325 q 653 43 648 58 q 656 35 656 39 q 633 14 656 20 q 587 11 625 11 q 523 15 534 11 q 498 47 505 22 q 487 186 490 71 q 481 552 484 302 l 480 677 l 468 626 q 416 441 453 564 q 382 339 392 360 q 334 297 360 297 q 313 305 324 297 q 264 422 292 322 q 245 493 256 449 q 225 581 233 544 l 224 574 q 222 490 223 559 q 219 372 222 427 l 215 61 q 210 12 214 20 q 204 3 208 7 q 196 -3 201 -1 q 181 -5 191 -5 z "},"n":{"ha":517,"x_min":47,"x_max":469,"o":"m 150 3 q 104 6 121 3 q 52 39 62 13 q 50 110 50 43 l 49 479 q 47 923 49 900 l 47 928 q 68 950 47 949 q 95 955 75 950 q 132 959 118 959 q 144 958 141 959 q 151 954 147 957 q 168 934 160 949 q 186 887 176 920 q 232 723 196 855 l 258 625 l 266 599 q 306 457 282 538 q 378 214 366 254 l 399 151 q 405 138 404 138 q 410 210 406 138 q 421 485 418 369 q 425 787 424 584 q 427 899 426 876 q 432 931 428 926 q 436 934 434 933 q 438 935 437 935 q 448 938 444 938 q 458 935 454 938 l 459 934 q 468 918 466 930 q 469 855 469 906 l 469 751 q 446 81 467 370 q 437 26 442 36 q 428 19 433 22 q 416 15 418 15 q 405 19 411 15 q 396 28 399 23 q 382 66 393 34 q 350 161 370 98 q 303 311 336 199 l 258 466 l 212 626 l 186 720 q 184 729 185 729 l 184 666 q 189 517 186 621 q 197 293 193 388 q 202 168 199 234 q 205 84 205 116 q 200 31 205 39 q 178 7 194 14 q 169 4 174 5 q 150 3 165 3 z "},"o":{"ha":510,"x_min":48,"x_max":463,"o":"m 220 -1 q 203 1 210 -1 q 181 9 193 3 q 159 22 168 16 q 100 113 127 47 q 48 420 48 241 l 48 442 q 86 723 50 577 q 132 857 105 800 q 142 876 140 871 q 153 895 144 880 q 184 939 176 931 q 224 962 199 954 q 270 970 248 970 q 286 969 281 970 q 385 907 342 959 q 442 783 421 866 q 463 607 463 708 q 439 357 463 498 q 265 5 391 41 q 220 -1 248 -1 m 245 47 l 249 47 q 264 52 256 49 q 344 147 308 68 q 413 454 388 241 q 420 522 418 495 q 423 612 421 540 q 394 804 423 722 q 372 852 383 834 q 344 887 361 870 q 313 911 327 905 q 308 913 310 913 q 290 895 302 913 q 237 755 262 848 q 191 382 191 586 q 210 141 191 249 q 221 89 216 107 q 237 56 227 71 q 245 47 242 47 z "},"p":{"ha":492,"x_min":48,"x_max":444,"o":"m 119 -11 l 109 -10 q 90 -3 101 -9 q 64 33 71 6 q 53 123 56 84 q 50 298 51 158 q 48 586 48 439 q 49 773 48 692 q 52 875 50 854 q 54 916 54 895 l 53 931 q 57 947 53 937 q 65 960 61 956 q 76 964 70 964 q 87 962 82 964 q 131 957 92 960 l 176 954 q 442 718 421 933 q 444 680 444 703 q 439 596 444 637 q 377 434 425 503 q 262 324 330 365 q 220 304 252 318 l 220 236 q 215 79 217 126 q 203 20 213 37 q 119 -11 184 -11 m 224 355 l 240 363 q 376 533 334 420 q 398 674 398 589 q 396 723 398 706 q 317 865 385 821 q 272 888 299 876 q 226 904 245 899 q 222 905 223 904 q 221 904 222 905 q 221 903 221 904 l 225 840 q 227 749 227 802 q 224 589 227 679 q 223 526 223 565 q 222 450 222 488 q 223 383 222 411 q 224 355 223 355 z "},"q":{"ha":573,"x_min":47,"x_max":547,"o":"m 449 -150 q 427 -147 439 -150 q 365 -102 387 -137 q 340 24 342 -64 q 299 7 321 12 q 248 1 280 1 q 227 3 235 1 q 201 11 216 5 q 176 23 186 17 q 108 114 138 49 q 47 415 47 238 l 47 438 q 91 715 49 571 q 145 846 113 791 l 156 866 q 168 884 158 870 q 190 911 178 897 q 205 928 201 924 q 251 950 222 942 q 307 959 279 959 q 323 958 317 959 q 438 897 387 947 q 505 774 481 855 q 528 600 528 701 q 502 354 528 493 q 418 103 471 186 q 387 62 403 80 q 391 -42 387 -20 q 424 -98 401 -86 q 449 -104 433 -104 q 488 -74 473 -104 q 500 -6 499 -52 q 504 29 502 24 q 522 39 511 39 q 539 33 532 39 q 544 27 542 30 q 546 6 545 24 l 547 -1 q 528 -96 547 -60 q 449 -150 499 -150 m 388 143 q 391 147 390 145 q 471 450 441 239 q 479 517 477 491 q 482 606 480 534 q 468 735 482 684 q 449 795 461 766 q 424 843 436 825 q 391 878 411 861 q 355 901 371 895 q 349 903 352 903 q 340 898 345 903 q 328 884 336 894 q 266 747 295 837 q 224 558 237 656 q 215 468 217 505 q 213 378 213 432 q 218 256 213 313 q 267 269 239 263 q 310 275 294 275 q 357 262 340 275 q 381 225 374 248 q 389 158 389 203 l 388 143 m 276 48 l 280 49 q 341 80 313 54 l 341 86 q 343 161 343 134 q 341 197 343 185 q 309 232 336 232 q 278 228 301 232 q 238 218 255 223 l 222 215 q 235 141 227 178 q 248 89 241 108 q 267 56 255 71 q 276 48 273 48 z "},"r":{"ha":519,"x_min":47,"x_max":479,"o":"m 155 0 q 123 2 130 0 q 93 16 105 7 q 79 38 84 24 q 71 81 75 52 q 58 256 64 129 q 47 695 47 468 q 52 946 47 928 q 71 957 58 957 l 81 957 q 129 962 95 958 l 136 962 q 153 963 145 963 q 189 955 179 963 q 203 950 197 950 q 222 949 208 950 q 269 939 250 945 q 316 917 290 932 q 361 886 342 901 q 400 842 379 869 q 433 793 421 815 q 468 701 454 750 q 479 610 479 658 q 445 451 479 524 q 319 326 404 360 q 279 312 297 316 l 275 311 q 267 308 267 310 q 271 301 267 306 l 274 296 q 299 240 290 273 q 315 158 309 207 q 335 68 322 79 q 342 62 339 63 q 350 60 345 60 q 365 65 359 60 q 376 82 370 70 q 385 110 382 94 q 389 162 388 126 l 390 204 q 402 215 400 214 q 412 216 404 216 q 435 177 435 216 l 435 171 q 429 99 433 120 q 397 33 422 56 q 351 14 378 14 q 283 71 304 14 q 271 141 276 92 q 245 258 261 224 q 221 288 234 283 l 213 290 q 209 285 210 290 q 208 267 208 280 q 212 178 208 235 q 219 83 215 121 q 222 46 222 60 q 211 12 222 20 q 193 2 203 5 q 155 0 186 0 m 206 350 l 235 352 q 427 541 389 366 q 434 612 434 579 q 431 648 434 630 q 304 870 408 798 q 215 906 261 901 l 208 907 l 206 350 z "},"s":{"ha":440,"x_min":47,"x_max":393,"o":"m 208 3 q 184 4 193 3 q 134 22 164 7 q 94 49 108 35 q 70 84 79 62 q 57 142 57 114 q 98 225 57 193 q 118 233 110 233 q 138 222 134 233 q 142 212 142 218 q 124 188 142 201 q 102 149 104 173 q 110 107 102 127 q 126 79 117 88 q 141 68 131 75 q 180 51 165 54 q 221 47 195 47 q 243 49 240 47 q 250 62 247 52 q 257 98 255 74 q 245 189 254 155 q 205 288 234 231 q 168 357 181 336 q 140 408 157 374 q 85 522 98 488 l 75 547 q 55 624 62 582 q 47 704 47 667 q 49 736 47 722 q 127 914 64 840 q 229 968 176 968 l 244 966 q 296 945 270 962 q 338 907 323 928 q 356 869 350 888 q 362 825 361 850 l 363 812 q 345 720 363 767 q 327 681 339 705 q 306 643 315 656 q 277 622 292 622 q 264 628 271 622 q 258 641 258 634 q 267 659 258 649 q 283 688 273 667 q 300 726 294 709 q 313 772 309 752 q 317 815 317 792 q 315 846 317 838 q 267 912 304 890 q 227 924 247 924 q 178 901 201 924 q 155 866 162 885 q 148 819 148 848 q 195 659 148 749 q 277 517 231 591 q 378 299 354 393 q 393 194 393 242 q 366 83 393 131 q 335 43 351 58 q 262 6 305 16 q 208 3 249 3 z "},"t":{"ha":529,"x_min":47,"x_max":480,"o":"m 315 0 l 290 0 q 270 7 281 1 q 237 39 249 16 q 220 111 226 61 q 212 254 215 161 l 209 356 q 203 569 205 431 q 201 814 201 708 q 201 907 201 892 q 117 902 175 907 q 69 899 83 899 q 52 905 58 899 q 47 918 47 911 q 56 935 47 927 q 95 943 58 938 q 239 958 172 954 q 414 967 277 961 l 464 968 q 480 947 480 963 q 473 928 480 932 q 440 922 465 924 q 340 916 426 921 l 345 737 q 360 388 351 526 l 367 294 q 371 121 371 235 q 370 65 371 82 q 315 0 366 0 z "},"u":{"ha":475,"x_min":48,"x_max":428,"o":"m 242 0 q 82 92 134 0 q 65 139 72 108 q 56 247 59 171 q 48 887 50 374 q 49 934 48 922 q 53 950 50 945 q 62 958 56 956 q 82 962 67 961 q 115 964 98 964 q 170 959 154 964 q 210 876 205 953 q 213 755 213 829 q 210 627 213 694 q 207 437 207 543 q 208 319 207 365 q 214 181 210 273 l 217 125 q 222 49 220 53 q 237 46 225 46 q 269 50 256 46 q 361 140 335 71 q 377 219 372 172 q 382 347 382 266 q 375 678 382 488 l 372 882 q 372 899 372 893 q 373 906 372 904 q 375 911 374 909 q 394 921 383 921 q 412 911 406 921 l 414 905 q 419 730 416 893 l 422 622 q 428 339 428 425 q 422 212 428 268 q 380 76 414 125 q 357 50 372 64 q 275 3 321 14 q 242 0 262 0 z "},"v":{"ha":538,"x_min":47,"x_max":498,"o":"m 232 9 q 198 11 216 9 q 138 52 148 14 q 113 203 128 79 q 101 332 105 271 q 89 521 96 393 q 81 638 85 595 q 66 798 78 681 q 50 928 54 915 q 47 941 47 937 l 47 946 q 58 969 52 964 q 81 974 65 974 l 99 973 l 106 972 q 170 958 152 967 q 197 930 188 949 q 214 862 205 910 l 224 800 q 247 614 231 752 q 269 433 258 519 q 295 226 286 317 q 307 129 305 136 q 316 165 308 129 q 332 248 323 201 l 349 332 q 401 621 359 380 q 433 804 420 728 l 454 938 q 476 953 462 953 q 486 950 481 953 q 494 941 491 947 q 498 929 498 935 q 490 879 498 924 q 454 660 471 758 q 394 324 419 459 q 356 134 365 172 q 315 31 336 52 q 232 9 290 9 z "},"w":{"ha":807,"x_min":48,"x_max":760,"o":"m 262 1 q 151 64 173 1 q 132 135 140 91 q 96 429 121 199 q 71 633 83 543 q 48 907 48 803 q 51 943 48 936 q 62 957 54 949 q 76 967 70 965 q 106 971 85 969 q 143 972 127 972 q 201 960 180 972 q 224 930 218 951 q 240 833 231 907 q 258 658 250 760 l 289 295 l 297 193 q 304 227 298 193 q 351 621 340 458 q 358 691 355 682 q 370 707 360 701 q 381 711 376 711 q 394 707 388 711 q 404 697 401 703 q 424 637 411 688 q 467 458 437 586 l 474 428 l 503 288 q 524 196 523 196 q 536 315 524 204 q 569 652 544 379 q 596 884 584 822 q 631 937 605 931 q 675 938 640 938 q 731 936 715 938 q 751 930 747 935 q 760 904 760 922 q 758 878 760 894 q 725 621 743 774 q 675 230 696 366 l 662 138 q 652 82 656 102 q 641 53 648 62 q 625 38 635 43 q 606 33 614 33 q 519 59 545 36 q 504 86 511 66 q 486 150 496 106 q 451 315 476 194 q 414 481 433 396 q 393 570 395 566 q 392 556 393 570 q 362 311 385 473 q 327 89 342 170 q 310 29 319 48 q 283 4 300 10 q 262 1 277 1 z "},"x":{"ha":486,"x_min":48,"x_max":439,"o":"m 339 15 l 330 16 q 271 68 292 18 q 253 120 266 80 q 226 208 240 161 q 204 286 212 254 q 195 317 197 317 l 194 317 l 132 144 q 93 45 103 68 q 79 18 83 22 q 67 15 76 15 q 59 16 62 15 q 54 21 56 17 q 48 35 48 26 q 61 81 48 49 l 168 380 q 174 401 174 399 q 156 476 174 406 q 76 818 96 710 q 70 846 71 841 q 65 853 68 852 q 60 857 63 854 q 52 866 53 862 q 50 877 50 870 q 55 895 50 888 q 71 908 59 902 q 143 925 100 925 l 159 925 q 176 920 169 924 q 201 883 189 913 q 233 782 214 852 q 269 659 263 669 l 280 688 q 353 882 303 752 l 368 920 q 394 971 385 965 q 407 975 399 975 q 420 968 414 975 q 427 954 427 963 q 401 876 427 939 q 377 815 384 831 q 351 745 366 788 q 290 580 290 585 q 320 476 290 574 l 345 397 q 382 281 368 323 q 419 165 404 220 q 437 87 434 111 l 439 72 q 403 26 439 37 q 372 18 390 22 q 339 15 354 15 z "},"y":{"ha":489,"x_min":47,"x_max":441,"o":"m 239 0 q 234 2 237 0 q 221 15 232 3 l 221 307 q 178 313 196 309 q 140 326 159 316 q 64 414 83 352 q 51 500 55 445 q 47 614 48 532 l 47 954 q 54 961 51 958 q 60 965 57 964 q 77 967 62 967 q 123 970 92 967 q 153 971 140 971 q 194 964 183 971 q 210 939 205 957 q 215 879 215 922 l 214 821 q 210 606 210 710 q 220 353 210 441 q 284 364 256 355 q 334 393 313 372 q 387 510 372 428 q 394 553 392 532 q 396 615 396 575 l 395 668 q 388 884 393 797 l 387 911 q 389 929 387 924 q 396 938 391 935 q 408 941 401 941 q 429 930 423 941 q 441 684 436 906 l 441 622 q 335 336 441 398 q 265 311 304 319 q 264 305 264 307 q 263 292 263 302 l 264 254 q 266 78 266 182 l 265 13 l 262 9 q 255 3 258 5 q 239 0 252 1 z "},"z":{"ha":503,"x_min":54,"x_max":441,"o":"m 151 11 l 73 14 q 54 33 56 15 q 55 45 54 37 q 60 69 57 64 q 83 163 60 70 q 114 286 93 206 q 153 427 128 345 q 209 628 197 582 q 231 718 220 673 q 242 766 239 749 q 248 788 243 772 q 256 820 252 804 q 262 846 260 837 q 277 904 277 897 l 259 904 q 132 899 207 904 l 92 898 q 70 899 76 898 q 57 917 57 903 l 56 922 q 63 934 56 930 q 95 939 69 937 q 147 943 120 940 l 275 949 l 336 958 q 387 964 366 963 l 420 969 l 425 966 q 439 950 435 959 l 440 949 l 441 941 q 423 859 441 932 q 395 749 414 820 q 302 428 360 617 q 258 273 281 360 l 249 237 q 231 170 237 200 l 199 58 l 406 62 q 418 60 416 62 q 430 37 430 55 q 429 32 430 35 q 423 20 428 28 l 405 18 l 326 16 l 151 11 z "},"{":{"ha":410,"x_min":47,"x_max":363,"o":"m 242 -88 q 136 -20 169 -88 q 131 -7 133 -14 q 127 39 127 6 l 130 216 l 129 258 q 62 475 124 425 q 51 486 54 481 q 47 498 47 492 q 53 516 47 510 q 75 532 59 522 q 142 593 129 562 q 155 633 151 611 q 159 696 159 656 q 157 829 157 800 q 172 964 157 925 q 189 1000 180 987 q 203 1016 194 1007 q 288 1053 237 1050 q 332 1048 314 1053 q 357 1036 350 1043 q 363 1022 363 1030 q 345 1003 363 1003 q 328 1006 338 1003 q 311 1009 317 1009 q 299 998 304 1009 q 291 971 294 987 q 289 913 289 956 q 292 789 289 859 q 297 649 296 719 q 294 603 297 619 q 285 567 292 586 q 271 534 279 547 q 249 509 262 522 q 233 494 240 499 q 192 473 227 490 q 242 354 229 442 q 252 226 252 295 q 250 172 252 199 q 247 59 248 137 l 247 -8 q 250 -24 248 -18 q 254 -37 254 -33 q 256 -41 254 -41 q 269 -37 260 -41 q 285 -33 278 -33 q 300 -39 293 -33 q 304 -46 303 -43 q 305 -54 305 -49 q 304 -63 305 -60 q 300 -69 303 -66 q 287 -77 296 -73 q 268 -85 278 -82 q 242 -88 258 -88 z "},"|":{"ha":281,"x_min":47,"x_max":218,"o":"m 117 -20 q 88 -15 97 -20 q 67 14 75 -9 q 58 98 60 37 q 52 389 55 149 l 50 542 q 47 918 47 644 l 50 924 q 62 940 56 936 q 81 946 67 943 q 144 952 115 952 q 161 951 156 952 q 179 945 170 951 q 200 905 196 935 q 203 760 201 886 q 213 322 204 583 q 218 122 218 191 q 211 31 218 45 q 117 -20 190 -20 z "},"}":{"ha":410,"x_min":47,"x_max":363,"o":"m 168 -88 q 143 -85 154 -88 q 123 -77 133 -82 q 110 -69 114 -73 q 105 -63 106 -66 q 104 -54 104 -60 q 111 -39 104 -45 q 126 -33 117 -33 q 142 -37 134 -33 q 154 -41 151 -41 q 156 -38 156 -41 q 160 -24 156 -35 q 163 -7 163 -18 l 163 59 q 160 172 162 137 q 159 227 159 199 q 210 464 159 401 l 218 473 l 203 479 q 182 490 190 485 q 160 508 174 495 q 139 534 147 522 q 125 566 132 547 q 116 602 119 585 q 113 646 113 618 q 118 789 115 748 q 121 916 121 861 q 119 972 121 957 q 116 985 118 978 q 111 998 113 993 q 105 1006 108 1004 q 99 1009 103 1009 q 86 1007 94 1009 q 65 1003 70 1003 q 47 1022 48 1003 q 48 1030 47 1027 q 79 1048 52 1040 q 116 1053 97 1053 q 206 1016 170 1053 q 221 1000 216 1007 q 239 964 230 987 q 254 828 254 924 q 251 693 254 803 q 255 633 251 654 q 269 593 259 611 q 335 532 281 562 q 357 516 351 522 q 363 503 362 511 q 360 486 363 492 q 349 475 357 481 q 281 258 287 425 q 283 40 281 208 q 283 11 283 21 q 273 -20 281 -5 q 168 -88 241 -88 z "},"~":{"ha":435,"x_min":48,"x_max":389,"o":"m 302 375 q 276 380 290 375 q 250 397 262 385 q 212 441 237 410 q 162 472 190 472 q 140 468 152 472 q 97 423 117 459 q 72 400 85 400 q 59 405 66 400 q 48 425 48 410 q 50 434 48 429 l 50 436 q 95 528 58 494 q 188 570 139 570 q 235 560 212 570 q 285 505 267 545 q 300 473 296 480 q 307 465 304 465 q 310 467 309 465 q 312 469 311 468 q 325 488 318 475 q 335 513 332 501 q 342 531 338 524 q 355 539 347 537 l 362 541 q 379 535 372 541 q 389 519 387 529 l 389 507 l 389 488 q 351 399 385 435 q 302 375 330 375 z "},"":{"ha":281,"x_min":47,"x_max":234,"o":"m 137 -27 q 120 -26 126 -27 q 81 10 87 -24 q 79 123 80 24 q 68 465 78 262 q 64 622 64 569 q 71 693 64 682 q 165 733 92 733 q 183 732 177 733 q 214 706 205 728 q 224 641 221 688 q 229 413 227 601 l 232 294 q 234 -1 234 214 l 233 -3 q 220 -17 226 -14 q 200 -22 214 -20 q 137 -27 167 -27 m 132 764 q 59 806 81 764 q 50 829 52 819 q 47 853 47 839 q 98 945 47 914 q 112 950 106 949 q 127 952 117 951 q 150 951 145 952 q 191 928 174 944 q 212 893 204 914 q 220 853 220 873 q 207 800 220 825 q 174 768 193 775 q 132 764 161 764 z "},"":{"ha":436,"x_min":46,"x_max":388,"o":"m 217 -24 q 209 -21 215 -24 q 198 -5 199 -16 q 197 27 197 1 q 197 58 197 52 q 99 130 137 77 q 54 274 65 181 q 46 437 46 349 q 56 619 46 538 q 87 749 66 684 q 209 901 130 874 q 209 983 209 975 q 212 996 210 992 q 231 1006 220 1006 q 244 1000 238 1006 l 250 995 l 250 903 q 289 880 272 897 q 321 784 321 845 q 315 724 321 761 q 304 667 307 676 q 297 660 302 663 q 288 658 292 658 q 276 663 281 658 q 271 673 271 668 q 275 711 271 677 q 281 778 281 749 q 271 833 281 814 l 269 839 l 262 829 q 253 814 257 823 q 224 701 231 772 q 216 391 217 627 q 231 127 216 177 q 253 100 238 107 q 260 98 258 98 l 267 100 q 334 207 317 116 q 345 288 342 245 q 349 346 348 340 q 353 355 351 352 l 354 355 q 368 361 361 361 q 386 349 380 361 q 388 338 388 346 q 381 239 385 268 q 373 192 378 218 q 366 161 369 172 q 286 64 342 87 q 239 53 262 54 l 239 44 l 239 14 q 237 -11 239 -6 q 217 -24 234 -20 z "},"":{"ha":529,"x_min":47,"x_max":482,"o":"m 95 -28 q 85 -25 90 -28 q 76 -9 76 -19 q 92 21 76 5 q 116 39 100 28 q 153 59 134 50 l 152 67 q 149 138 151 87 q 141 248 145 204 q 133 358 136 295 l 74 356 q 57 358 62 356 q 47 376 47 364 q 62 395 47 392 q 106 399 72 397 q 132 401 120 401 l 131 447 l 131 508 q 139 709 131 605 q 162 862 146 813 q 313 1000 205 991 l 320 1000 q 355 993 342 1000 q 371 988 365 989 q 389 981 378 987 q 414 962 404 974 q 434 906 434 938 q 408 813 434 867 q 374 772 389 773 l 370 772 q 353 781 359 772 l 352 782 q 350 790 350 786 q 358 809 350 798 q 379 855 371 829 q 388 901 388 881 q 357 943 388 943 q 272 712 291 943 q 268 599 269 673 l 267 410 q 330 412 319 412 q 344 410 340 412 q 355 391 355 402 q 348 374 355 382 l 342 368 q 267 363 286 366 q 272 248 269 311 q 287 73 280 94 q 321 54 289 71 q 364 35 353 38 q 385 33 374 33 q 403 35 395 33 q 435 67 420 39 q 447 84 442 81 q 459 87 452 87 q 472 85 468 87 q 482 67 482 79 q 475 45 482 58 q 425 -5 456 9 q 406 -11 415 -10 q 379 -12 397 -12 q 346 -7 361 -12 q 303 13 331 -2 q 261 32 275 27 q 233 36 247 36 l 224 36 q 161 14 201 35 q 114 -16 123 -4 q 95 -28 105 -28 z "},"":{"ha":519,"x_min":48,"x_max":473,"o":"m 93 -16 q 80 -10 85 -16 q 74 3 74 -4 q 90 41 74 14 q 136 123 120 97 q 99 184 117 146 q 48 457 48 298 q 85 726 48 589 q 131 844 104 794 l 137 855 l 136 855 q 99 890 130 859 q 64 927 68 920 q 59 940 59 933 q 69 959 59 952 q 78 962 74 962 q 94 954 84 962 q 125 926 104 947 q 161 892 153 901 q 173 908 168 901 q 182 918 179 916 q 221 937 196 930 q 269 945 245 945 q 281 943 276 945 q 376 891 333 934 l 379 897 l 410 943 q 437 978 431 974 q 450 982 443 982 q 463 978 457 981 q 473 960 473 971 q 465 943 473 951 q 443 911 461 939 q 401 857 414 869 q 434 779 420 827 q 454 620 454 711 q 432 401 454 524 q 361 175 406 250 q 347 153 354 163 q 363 137 353 149 q 393 108 374 125 q 450 58 439 64 q 462 37 462 51 l 461 32 q 454 15 460 21 q 439 9 448 9 q 428 12 435 9 q 346 94 410 26 q 322 124 323 117 q 260 88 296 98 q 218 83 243 83 q 200 85 208 83 q 172 95 188 87 q 157 68 165 84 q 106 -11 111 -7 q 93 -16 101 -16 m 245 126 l 260 130 q 338 215 302 145 q 406 487 380 298 q 412 547 410 524 q 415 612 414 571 q 413 686 415 658 q 404 742 410 713 q 387 798 397 771 q 366 840 376 825 q 338 871 355 856 q 308 892 321 886 l 302 894 q 286 878 296 894 q 233 754 257 836 q 188 422 188 605 q 206 209 188 300 q 218 163 212 179 q 245 126 231 126 z "},"":{"ha":500,"x_min":47,"x_max":453,"o":"m 271 -9 q 252 -9 261 -9 q 182 33 189 -2 q 178 111 181 43 q 157 112 165 112 q 141 114 146 113 q 131 121 136 115 q 126 134 126 127 q 129 142 126 138 q 133 149 131 146 q 141 152 136 151 q 157 153 146 153 q 176 154 167 153 l 177 227 l 138 224 q 127 235 129 233 q 126 243 126 237 q 138 262 126 254 q 146 265 140 264 q 159 267 151 266 q 174 269 166 268 l 173 320 q 163 572 170 532 q 135 666 157 606 q 72 865 92 788 q 47 968 47 957 q 52 983 47 977 q 64 989 57 988 q 79 991 72 991 q 102 992 90 992 q 186 970 155 992 q 218 926 200 959 q 292 709 249 864 l 306 657 l 307 656 q 311 667 308 656 l 389 909 q 404 965 404 958 q 406 978 404 972 q 415 987 408 983 q 431 991 422 991 q 441 988 437 991 q 450 979 446 985 q 453 966 453 972 q 424 870 453 958 l 370 706 q 338 573 338 603 q 337 279 337 559 l 359 280 q 387 262 387 280 l 387 259 q 355 235 387 237 q 341 234 343 235 q 338 228 338 233 q 337 166 337 223 l 353 166 q 365 164 361 166 q 373 156 370 162 q 376 145 376 151 q 347 122 376 125 l 335 121 q 328 22 335 54 q 305 -5 322 3 q 271 -9 293 -9 z "},"":{"ha":187,"x_min":0,"x_max":0,"o":""},"":{"ha":446,"x_min":0,"x_max":0,"o":""},"":{"ha":347,"x_min":47,"x_max":300,"o":"m 250 876 q 233 880 241 876 q 195 924 207 892 q 191 950 191 932 l 193 972 q 211 1002 196 987 q 227 1011 219 1010 q 245 1013 235 1013 q 256 1012 252 1013 q 268 1006 260 1011 q 300 941 300 983 q 286 894 300 912 q 250 876 271 876 m 106 875 q 92 877 100 875 q 78 883 83 880 q 66 893 72 887 q 47 945 47 917 q 55 979 47 963 q 107 1013 71 1013 q 147 994 132 1013 q 164 943 164 979 q 136 884 164 904 q 106 875 122 875 z "},"":{"ha":446,"x_min":31,"x_max":399,"o":"m 246 629 l 240 629 q 199 657 216 634 q 184 709 188 675 q 181 766 181 735 q 184 832 181 802 q 195 878 188 855 q 238 933 211 924 q 246 935 242 935 q 266 925 258 935 q 277 890 277 913 q 274 862 277 873 l 273 857 q 270 849 271 850 q 268 847 269 848 q 265 846 267 846 q 260 849 261 847 q 259 851 260 850 l 261 865 q 263 888 263 878 q 258 911 263 904 l 254 903 q 253 901 253 902 q 252 898 252 899 q 243 861 245 882 q 241 748 241 834 q 245 656 241 672 q 254 646 248 648 l 255 646 l 256 646 q 258 646 257 646 q 276 664 269 650 q 277 668 277 666 q 278 672 278 670 q 280 676 279 674 q 281 685 281 679 q 283 694 282 690 q 286 716 284 698 q 286 729 286 726 q 287 734 286 732 q 288 736 287 736 l 288 737 q 293 740 290 740 q 299 736 297 740 l 300 734 l 298 707 q 295 679 298 694 q 288 659 293 666 q 279 643 284 648 q 246 629 265 629 m 195 569 q 209 570 208 569 q 215 571 212 570 q 219 572 217 572 q 222 572 221 572 q 294 618 261 581 q 355 768 332 664 q 361 801 359 788 q 363 843 363 823 q 362 873 363 861 q 353 907 359 891 q 338 938 347 924 q 319 962 328 953 q 261 990 294 983 q 231 995 247 994 q 201 988 215 995 q 149 920 165 966 q 124 826 132 873 q 116 748 116 779 l 116 727 q 120 664 116 696 q 142 602 125 627 q 162 581 154 587 q 181 572 170 575 q 183 571 182 572 q 186 570 184 570 q 191 569 188 569 l 195 569 m 195 547 l 184 547 q 130 557 160 547 q 77 602 100 570 q 31 750 31 665 q 64 899 31 824 q 113 972 85 944 q 121 980 120 979 q 123 982 121 981 q 219 1021 162 1021 l 231 1020 q 330 988 286 1016 q 381 928 362 968 q 399 842 399 891 q 378 721 399 789 q 223 549 334 566 q 195 547 212 547 z "},"":{"ha":439,"x_min":0,"x_max":0,"o":""},"":{"ha":446,"x_min":0,"x_max":0,"o":""},"":{"ha":446,"x_min":0,"x_max":0,"o":""},"":{"ha":331,"x_min":31,"x_max":273,"o":"m 166 843 q 171 844 168 844 q 204 880 197 849 q 205 895 205 888 q 205 902 205 899 q 180 946 201 932 q 161 953 170 953 l 160 843 l 166 843 m 149 773 q 143 774 145 773 q 140 776 141 775 q 138 777 139 777 q 135 781 136 779 q 131 824 132 789 l 129 882 l 129 944 q 130 961 130 959 q 135 963 131 963 q 139 963 138 963 q 143 964 139 964 l 149 964 q 154 964 153 964 q 155 963 155 964 q 156 963 156 963 q 157 963 157 963 q 158 962 157 962 l 159 962 l 163 962 l 169 960 l 173 960 l 182 955 q 199 941 191 951 q 205 930 203 936 l 209 921 q 214 895 214 910 q 212 874 214 884 q 204 857 209 865 q 191 842 199 848 l 187 840 q 181 837 182 837 q 174 836 180 837 l 174 835 l 172 835 q 173 834 172 834 q 174 833 173 833 q 180 813 180 823 q 181 811 180 812 l 182 805 q 185 788 184 789 q 187 785 186 787 l 191 785 q 194 790 193 785 q 196 793 195 791 q 196 798 196 795 q 197 814 197 802 l 200 817 l 201 817 q 205 809 205 817 l 205 798 q 204 790 205 791 q 203 787 203 788 q 198 780 201 783 q 195 778 196 779 q 194 777 195 777 q 193 777 193 777 l 189 777 q 176 787 180 777 q 175 790 175 789 q 174 793 175 791 q 174 797 174 795 q 173 802 174 799 q 169 824 172 818 q 163 831 166 831 l 161 831 l 161 830 l 161 827 q 163 790 161 800 l 163 786 q 163 780 163 781 q 161 777 162 778 q 160 775 161 775 q 159 774 160 775 l 158 774 l 152 774 l 149 773 m 139 722 q 145 723 144 723 q 147 723 147 723 q 148 724 147 724 q 154 724 151 724 q 157 725 156 725 q 244 854 220 737 q 250 889 250 876 l 250 896 q 243 946 250 930 q 233 966 239 957 q 220 982 227 976 q 163 1004 198 1002 q 142 999 152 1004 q 108 954 119 985 q 89 871 97 922 l 87 862 q 87 833 87 850 q 90 785 87 810 q 117 730 94 748 q 127 726 121 728 q 130 725 128 725 q 133 723 132 724 q 139 722 135 722 m 139 708 l 132 708 q 111 711 119 708 l 108 711 q 61 745 81 717 q 31 842 31 786 q 52 940 31 890 q 79 983 64 964 q 84 987 83 985 q 85 989 85 989 q 102 1004 94 998 q 155 1020 125 1020 q 228 999 196 1020 q 261 961 250 985 q 273 903 273 936 q 260 823 273 868 q 139 708 227 708 z "},"":{"ha":463,"x_min":47,"x_max":416,"o":"m 250 852 q 71 861 172 852 q 47 915 47 873 q 51 940 47 934 q 187 955 71 955 q 310 953 249 955 q 380 951 354 951 q 401 952 394 951 q 404 949 402 951 q 408 946 406 948 q 412 941 410 945 q 414 924 413 938 q 416 894 416 911 q 413 872 416 878 q 390 854 408 857 l 332 854 q 250 852 291 852 z "},"":{"ha":270,"x_min":47,"x_max":222,"o":"m 139 848 q 113 850 121 848 q 54 905 75 865 l 50 916 q 47 948 47 924 q 48 969 47 962 q 50 981 48 976 q 55 992 52 985 q 96 1032 69 1020 q 110 1037 104 1036 q 130 1038 117 1038 q 150 1037 144 1038 q 166 1031 156 1036 q 222 938 222 999 q 172 854 222 880 q 157 849 163 850 q 139 848 151 848 m 138 916 q 150 920 146 916 q 155 935 155 927 q 144 960 155 947 q 140 964 142 962 q 137 967 138 966 q 133 968 135 968 q 129 968 130 968 q 115 947 115 961 q 127 920 115 932 q 138 916 132 916 z "},"":{"ha":603,"x_min":43,"x_max":555,"o":"m 299 164 l 283 164 q 254 168 261 164 q 230 200 234 172 l 230 349 q 79 357 160 351 q 47 433 47 375 q 48 447 47 442 q 49 458 49 454 q 52 467 50 463 q 234 488 81 488 q 244 641 238 562 q 315 671 262 671 q 355 666 345 671 q 373 510 373 640 l 373 486 l 410 485 q 507 483 471 483 q 534 484 525 483 l 541 479 q 549 470 547 475 q 555 402 555 454 q 550 370 555 378 l 549 367 q 519 349 541 352 l 369 347 l 363 212 l 364 183 q 351 168 357 172 q 299 164 338 164 m 323 -10 q 75 1 215 -10 q 43 76 43 18 q 47 111 43 102 q 237 132 77 132 q 406 128 321 132 q 503 126 467 126 q 530 127 521 126 l 533 125 q 545 113 543 119 q 550 89 548 107 q 551 52 551 70 q 548 17 550 22 q 515 -7 541 -4 l 427 -9 q 323 -10 374 -10 z "},"":{"ha":688,"x_min":0,"x_max":0,"o":""},"":{"ha":688,"x_min":0,"x_max":0,"o":""},"":{"ha":313,"x_min":45,"x_max":267,"o":"m 79 882 l 75 882 q 65 884 69 882 q 45 913 45 895 q 67 952 45 933 q 83 963 74 958 q 152 991 99 973 q 203 1010 186 1004 q 229 1015 220 1015 q 242 1010 235 1015 l 244 1008 q 260 990 254 1002 q 267 968 267 979 l 266 964 q 249 940 264 951 q 193 915 233 928 q 79 882 109 882 z "},"":{"ha":800,"x_min":0,"x_max":0,"o":""},"":{"ha":446,"x_min":0,"x_max":0,"o":""},"":{"ha":268,"x_min":47,"x_max":222,"o":"m 129 339 q 109 342 119 339 q 64 372 81 350 q 47 425 47 395 l 47 432 q 78 502 53 479 q 134 524 103 524 q 185 507 161 524 q 219 455 209 489 q 222 437 222 447 q 206 385 222 411 q 166 348 191 359 q 129 339 147 339 z "},"":{"ha":240,"x_min":47,"x_max":193,"o":"m 118 -203 q 52 -164 73 -203 q 47 -147 47 -154 q 55 -131 47 -139 q 62 -125 59 -126 q 72 -124 65 -124 q 79 -125 77 -124 q 91 -135 82 -125 l 99 -143 q 113 -150 106 -150 q 127 -144 121 -150 q 133 -129 133 -138 q 125 -109 130 -114 q 108 -99 120 -103 q 68 -56 74 -86 q 66 -22 66 -44 q 66 -4 66 -10 q 81 16 71 12 q 91 17 85 17 l 102 16 q 118 4 115 14 q 120 -18 120 -3 q 122 -38 121 -33 q 139 -52 123 -43 q 182 -96 170 -69 q 193 -136 193 -117 q 191 -152 193 -143 q 169 -188 186 -176 q 118 -203 146 -203 z "},"":{"ha":688,"x_min":0,"x_max":0,"o":""},"":{"ha":487,"x_min":0,"x_max":0,"o":""},"":{"ha":446,"x_min":0,"x_max":0,"o":""},"":{"ha":1158,"x_min":0,"x_max":0,"o":""},"":{"ha":1332,"x_min":0,"x_max":0,"o":""},"":{"ha":1158,"x_min":0,"x_max":0,"o":""},"":{"ha":452,"x_min":46,"x_max":404,"o":"m 247 -20 q 111 52 170 -20 q 61 141 78 92 q 49 185 52 166 q 46 227 46 204 q 47 254 46 245 q 147 414 58 337 q 165 435 163 429 q 173 515 170 453 q 176 641 176 578 l 176 702 l 178 705 q 192 718 184 714 q 216 722 200 722 q 255 723 232 723 l 281 723 q 309 697 303 722 q 319 599 315 673 q 323 460 323 524 q 319 384 323 404 q 313 370 317 376 q 263 324 306 360 q 202 185 202 277 q 219 108 202 146 q 281 41 248 41 q 313 58 297 41 q 360 178 360 109 q 349 218 360 206 q 340 234 340 226 q 342 241 340 237 l 343 243 q 361 254 348 254 q 376 249 369 254 q 397 219 389 240 q 404 171 404 199 q 401 139 404 156 q 342 22 391 72 q 247 -20 299 -20 m 246 765 q 234 767 239 765 q 215 776 228 769 q 160 852 160 803 q 176 905 160 880 q 215 943 191 931 q 253 951 235 951 q 272 949 262 951 q 317 919 300 941 q 334 867 334 897 q 317 808 334 836 q 282 775 302 785 q 246 765 262 765 z "},"":{"ha":447,"x_min":46,"x_max":398,"o":"m 134 -27 q 116 -23 125 -27 q 96 -10 107 -19 q 77 7 84 -1 q 47 90 54 37 q 46 119 46 100 q 58 330 46 186 q 86 610 69 473 q 112 778 98 695 q 139 906 127 861 q 174 963 152 952 q 199 966 184 966 q 249 954 224 965 q 273 934 260 947 q 309 859 298 909 q 321 783 315 831 l 341 574 q 371 321 350 490 q 390 151 382 232 q 398 26 397 69 l 398 -3 l 394 -7 q 387 -13 390 -11 q 378 -16 384 -16 q 365 -9 371 -16 q 359 1 361 -5 l 349 114 l 334 252 l 328 253 q 265 250 311 253 q 216 245 219 247 q 212 197 215 242 q 181 10 199 47 q 134 -27 164 -27 m 221 291 l 222 292 q 273 297 226 294 l 297 299 q 325 302 324 302 q 326 306 326 302 l 325 321 q 283 692 301 508 q 271 807 274 802 q 271 808 271 808 q 270 809 271 809 l 262 748 q 227 396 239 582 q 220 298 220 313 q 221 291 220 291 m 290 1017 l 285 1017 q 234 1029 267 1021 q 172 1048 202 1038 q 127 1065 141 1059 q 104 1105 104 1082 q 113 1133 104 1119 q 131 1151 126 1149 q 142 1154 136 1153 q 146 1154 144 1154 q 152 1155 149 1155 q 253 1122 163 1155 q 285 1108 270 1116 q 329 1067 319 1090 q 333 1051 333 1055 q 328 1034 333 1042 q 314 1021 322 1025 q 290 1017 307 1017 z "},"":{"ha":447,"x_min":46,"x_max":398,"o":"m 134 -27 q 116 -23 125 -27 q 96 -10 107 -19 q 77 7 84 -1 q 47 90 54 37 q 46 119 46 100 q 58 330 46 186 q 86 610 69 473 q 112 778 98 695 q 139 906 127 861 q 174 963 152 952 q 199 966 184 966 q 249 954 224 965 q 273 934 260 947 q 309 859 298 909 q 321 783 315 831 l 341 574 q 371 321 350 490 q 390 151 382 232 q 398 26 397 69 l 398 -3 l 394 -7 q 387 -13 390 -11 q 378 -16 384 -16 q 365 -9 371 -16 q 359 1 361 -5 l 349 114 l 334 252 l 328 253 q 265 250 311 253 q 216 245 219 247 q 212 197 215 242 q 181 10 199 47 q 134 -27 164 -27 m 221 291 l 222 292 q 273 297 226 294 l 297 299 q 325 302 324 302 q 326 306 326 302 l 325 321 q 283 692 301 508 q 271 807 274 802 q 271 808 271 808 q 270 809 271 809 l 262 748 q 227 396 239 582 q 220 298 220 313 q 221 291 220 291 m 136 1017 l 132 1017 q 122 1019 126 1017 q 102 1048 102 1030 q 124 1088 102 1069 q 140 1099 131 1094 q 209 1127 156 1109 q 260 1145 243 1140 q 286 1151 277 1151 q 299 1145 292 1151 l 301 1144 q 317 1126 311 1137 q 323 1104 323 1115 l 323 1100 q 306 1075 321 1086 q 250 1050 290 1064 q 136 1017 165 1017 z "},"":{"ha":447,"x_min":46,"x_max":398,"o":"m 134 -27 q 116 -23 125 -27 q 96 -10 107 -19 q 77 7 84 -1 q 47 90 54 37 q 46 119 46 100 q 58 330 46 186 q 86 610 69 473 q 112 778 98 695 q 139 906 127 861 q 174 963 152 952 q 199 966 184 966 q 249 954 224 965 q 273 934 260 947 q 309 859 298 909 q 321 783 315 831 l 341 574 q 371 321 350 490 q 390 151 382 232 q 398 26 397 69 l 398 -3 l 394 -7 q 387 -13 390 -11 q 378 -16 384 -16 q 365 -9 371 -16 q 359 1 361 -5 l 349 114 l 334 252 l 328 253 q 265 250 311 253 q 216 245 219 247 q 212 197 215 242 q 181 10 199 47 q 134 -27 164 -27 m 221 291 l 222 292 q 273 297 226 294 l 297 299 q 325 302 324 302 q 326 306 326 302 l 325 321 q 283 692 301 508 q 271 807 274 802 q 271 808 271 808 q 270 809 271 809 l 262 748 q 227 396 239 582 q 220 298 220 313 q 221 291 220 291 m 126 1017 l 124 1018 q 109 1029 115 1019 q 102 1053 102 1039 q 146 1127 106 1069 q 184 1173 172 1164 q 207 1185 197 1183 q 223 1185 212 1185 q 239 1184 234 1185 q 251 1181 244 1183 q 284 1157 269 1173 q 317 1111 299 1141 q 344 1053 341 1072 q 329 1028 344 1037 q 318 1025 323 1025 q 270 1055 300 1025 q 241 1080 251 1074 q 222 1087 231 1087 q 208 1084 214 1087 q 172 1051 202 1081 q 135 1019 142 1021 l 126 1017 z "},"":{"ha":447,"x_min":46,"x_max":398,"o":"m 134 -27 q 116 -23 125 -27 q 96 -10 107 -19 q 77 7 84 -1 q 47 90 54 37 q 46 119 46 100 q 58 330 46 186 q 86 610 69 473 q 112 778 98 695 q 139 906 127 861 q 174 963 152 952 q 199 966 184 966 q 249 954 224 965 q 273 934 260 947 q 309 859 298 909 q 321 783 315 831 l 341 574 q 371 321 350 490 q 390 151 382 232 q 398 26 397 69 l 398 -3 l 394 -7 q 387 -13 390 -11 q 378 -16 384 -16 q 365 -9 371 -16 q 359 1 361 -5 l 349 114 l 334 252 l 328 253 q 265 250 311 253 q 216 245 219 247 q 212 197 215 242 q 181 10 199 47 q 134 -27 164 -27 m 221 291 l 222 292 q 273 297 226 294 l 297 299 q 325 302 324 302 q 326 306 326 302 l 325 321 q 283 692 301 508 q 271 807 274 802 q 271 808 271 808 q 270 809 271 809 l 262 748 q 227 396 239 582 q 220 298 220 313 q 221 291 220 291 m 297 1017 q 274 1022 286 1017 q 250 1037 262 1026 q 217 1076 239 1048 q 174 1103 198 1103 q 116 1059 141 1103 q 94 1040 106 1040 q 83 1043 90 1040 q 73 1061 73 1048 l 74 1071 q 114 1152 82 1122 q 197 1190 153 1190 q 281 1131 255 1190 q 295 1104 291 1112 q 302 1097 299 1097 l 304 1098 q 316 1116 310 1103 q 326 1138 323 1128 q 343 1162 331 1159 l 351 1163 q 365 1158 358 1163 q 373 1144 371 1153 l 374 1134 l 373 1117 q 340 1038 370 1070 q 297 1017 321 1017 z "},"":{"ha":447,"x_min":46,"x_max":398,"o":"m 134 -27 q 116 -23 125 -27 q 96 -10 107 -19 q 77 7 84 -1 q 47 90 54 37 q 46 119 46 100 q 58 330 46 186 q 86 610 69 473 q 112 778 98 695 q 139 906 127 861 q 174 963 152 952 q 199 966 184 966 q 249 954 224 965 q 273 934 260 947 q 309 859 298 909 q 321 783 315 831 l 341 574 q 371 321 350 490 q 390 151 382 232 q 398 26 397 69 l 398 -3 l 394 -7 q 387 -13 390 -11 q 378 -16 384 -16 q 365 -9 371 -16 q 359 1 361 -5 l 349 114 l 334 252 l 328 253 q 265 250 311 253 q 216 245 219 247 q 212 197 215 242 q 181 10 199 47 q 134 -27 164 -27 m 221 291 l 222 292 q 273 297 226 294 l 297 299 q 325 302 324 302 q 326 306 326 302 l 325 321 q 283 692 301 508 q 271 807 274 802 q 271 808 271 808 q 270 809 271 809 l 262 748 q 227 396 239 582 q 220 298 220 313 q 221 291 220 291 m 299 1019 q 282 1022 291 1019 q 244 1066 256 1034 q 240 1088 240 1077 l 242 1114 q 260 1144 245 1130 q 276 1154 269 1152 q 294 1156 284 1156 q 306 1155 302 1156 q 317 1149 310 1154 q 350 1084 350 1125 q 335 1037 350 1055 q 299 1019 320 1019 m 155 1017 q 141 1020 149 1017 q 127 1026 133 1022 q 116 1036 121 1029 q 96 1088 96 1059 q 104 1122 96 1105 q 157 1156 121 1156 q 197 1137 181 1155 q 214 1085 214 1121 q 213 1072 214 1077 q 212 1063 213 1067 q 208 1054 210 1059 q 155 1017 186 1017 z "},"":{"ha":447,"x_min":46,"x_max":398,"o":"m 134 -27 q 116 -23 125 -27 q 96 -10 107 -19 q 77 7 84 -1 q 47 90 54 37 q 46 119 46 100 q 58 330 46 186 q 86 610 69 473 q 112 778 98 695 q 139 906 127 861 q 174 963 152 952 q 199 966 184 966 q 249 954 224 965 q 273 934 260 947 q 309 859 298 909 q 321 783 315 831 l 341 574 q 371 321 350 490 q 390 151 382 232 q 398 26 397 69 l 398 -3 l 394 -7 q 387 -13 390 -11 q 378 -16 384 -16 q 365 -9 371 -16 q 359 1 361 -5 l 349 114 l 334 252 l 328 253 q 265 250 311 253 q 216 245 219 247 q 212 197 215 242 q 181 10 199 47 q 134 -27 164 -27 m 221 291 l 222 292 q 273 297 226 294 l 297 299 q 325 302 324 302 q 326 306 326 302 l 325 321 q 283 692 301 508 q 271 807 274 802 q 271 808 271 808 q 270 809 271 809 l 262 748 q 227 396 239 582 q 220 298 220 313 q 221 291 220 291 m 227 1017 q 205 1020 212 1017 q 157 1064 173 1032 q 153 1074 155 1069 q 151 1100 151 1079 q 152 1117 151 1112 q 153 1126 152 1122 q 157 1136 155 1130 q 191 1169 170 1159 q 203 1173 198 1172 q 219 1174 208 1174 q 232 1174 227 1174 q 249 1168 237 1173 q 295 1091 295 1142 q 253 1023 295 1044 q 241 1018 246 1019 q 227 1017 236 1017 m 226 1074 q 235 1077 232 1074 q 240 1089 240 1083 q 231 1109 240 1099 q 221 1116 224 1116 q 210 1111 213 1116 q 206 1099 206 1105 q 217 1076 206 1086 q 226 1074 221 1074 z "},"":{"ha":778,"x_min":45,"x_max":730,"o":"m 134 -27 q 115 -23 125 -27 q 94 -10 106 -19 q 75 7 83 -1 q 45 119 45 46 q 57 330 45 186 q 85 610 68 473 q 111 778 96 695 q 138 906 125 861 q 173 963 151 952 q 197 966 182 966 q 248 954 223 965 q 271 934 258 947 q 308 859 297 909 q 319 783 314 831 l 340 574 q 370 321 349 490 q 389 151 381 232 q 397 26 396 69 l 397 -3 l 394 -6 q 387 -13 390 -11 q 377 -16 383 -16 q 363 -9 370 -16 q 358 1 359 -5 l 347 114 l 332 252 l 328 253 q 264 250 310 253 q 215 245 218 247 q 210 197 214 242 q 180 10 197 47 q 134 -27 162 -27 m 220 291 l 221 292 q 272 297 224 294 l 296 299 q 324 302 323 302 q 326 306 326 302 q 323 321 326 311 q 282 692 300 508 q 270 807 273 802 q 270 808 270 808 q 269 809 269 809 l 260 748 q 225 396 238 582 q 219 298 219 304 q 220 291 219 291 m 515 2 q 480 4 492 2 q 418 64 433 11 q 414 93 415 74 q 412 185 413 112 q 409 343 411 298 q 404 564 404 469 q 408 945 405 755 q 411 961 408 956 q 429 968 415 966 q 471 971 442 970 q 584 975 517 975 q 640 974 629 975 q 655 971 651 974 q 664 964 659 969 q 667 951 667 959 q 658 933 667 939 q 629 930 652 930 l 565 930 q 547 929 547 930 q 546 925 547 927 q 550 864 546 912 q 553 731 553 810 q 555 585 553 675 q 559 415 557 481 q 623 419 615 419 q 630 418 628 419 q 634 417 633 418 q 636 416 635 416 q 647 397 647 409 q 640 380 647 387 q 629 376 636 377 q 589 371 619 374 q 561 370 579 370 l 566 282 l 574 129 q 578 64 578 71 q 581 52 580 53 q 583 51 582 52 q 667 60 598 51 q 705 64 701 64 q 710 64 708 64 q 712 63 711 64 q 715 63 713 63 q 730 41 730 55 q 720 24 730 31 q 680 16 713 21 q 515 2 585 2 z "},"":{"ha":862,"x_min":49,"x_max":814,"o":"m 221 -1 q 204 1 211 -1 q 181 9 194 3 q 160 22 169 16 q 101 113 127 47 q 49 420 49 241 l 49 442 q 87 723 50 577 q 133 857 106 800 q 142 876 140 871 q 153 895 144 880 q 185 939 177 931 q 224 962 200 954 q 271 970 249 970 q 287 969 282 970 q 385 907 342 959 q 443 783 422 866 q 463 607 463 708 q 440 357 463 498 q 266 5 391 41 q 221 -1 249 -1 m 246 47 l 250 47 q 264 52 256 49 q 345 147 309 68 q 414 454 389 241 q 420 522 418 495 q 424 612 422 540 q 421 682 424 652 q 412 743 418 711 q 395 804 406 774 q 373 852 384 834 q 345 887 362 870 q 314 911 328 905 q 309 913 311 913 q 291 895 303 913 q 237 755 262 848 q 191 382 191 586 q 210 141 192 249 q 222 89 216 107 q 237 55 228 70 q 246 47 243 47 m 599 2 q 564 4 576 2 q 502 64 517 11 q 498 93 499 74 q 496 185 497 112 q 493 343 495 298 q 488 564 488 474 q 492 945 489 755 q 495 961 492 956 q 513 968 499 966 q 555 971 526 970 q 668 975 602 975 l 703 975 q 733 973 728 975 q 744 968 739 972 q 751 951 751 961 q 748 940 751 945 q 742 933 745 936 q 733 930 739 931 q 714 930 727 930 l 650 930 q 631 928 633 930 q 634 864 631 912 q 637 731 637 810 q 639 585 637 675 q 644 415 641 481 q 708 419 701 419 q 715 418 713 419 q 718 417 717 418 q 720 416 720 417 q 732 397 732 409 q 729 388 732 393 q 723 380 726 382 q 713 376 720 377 q 673 371 703 374 q 645 370 663 370 q 650 282 647 347 l 659 129 q 663 64 663 71 q 665 52 664 53 q 667 51 666 52 q 751 60 684 51 q 789 64 785 64 q 794 64 793 64 q 797 63 796 64 q 799 63 798 63 q 814 41 814 55 q 804 24 814 31 q 764 16 797 21 q 599 2 669 2 z "},"":{"ha":481,"x_min":47,"x_max":432,"o":"m 237 -203 q 172 -164 191 -203 q 166 -147 166 -154 q 174 -131 166 -138 q 181 -125 178 -127 q 191 -124 184 -124 q 203 -127 197 -124 q 218 -142 215 -140 q 232 -150 224 -150 q 246 -144 240 -150 q 252 -129 252 -138 q 244 -109 252 -117 q 227 -99 239 -103 q 187 -56 193 -86 q 184 -22 184 -39 q 194 11 184 1 q 106 85 143 34 q 56 252 69 144 q 47 439 47 338 q 58 652 47 556 q 94 802 69 727 q 231 979 142 948 q 258 983 245 983 q 321 954 294 983 q 357 841 357 913 q 352 786 355 805 l 351 774 q 343 731 347 751 q 337 707 339 711 q 330 700 335 703 q 319 696 325 696 q 307 703 311 698 q 300 713 302 708 l 301 724 l 302 731 l 304 753 q 311 836 311 803 q 301 901 311 880 l 298 907 l 292 900 q 283 885 288 894 q 278 873 281 880 q 248 747 255 821 q 239 381 239 659 q 245 168 239 240 q 256 82 249 106 q 281 51 264 58 q 285 49 283 50 q 288 47 287 47 q 296 50 292 47 q 353 108 332 62 q 378 210 368 136 l 380 220 q 385 277 383 252 q 387 318 386 304 l 388 327 q 392 345 389 340 q 410 353 400 353 q 430 340 422 353 l 432 335 l 431 302 q 425 212 428 237 q 416 157 422 186 q 407 120 411 134 q 395 90 404 107 q 363 40 380 58 q 318 9 346 21 q 258 -5 288 -5 q 239 -3 250 -5 q 240 -16 240 -9 q 240 -30 240 -24 q 241 -39 241 -37 q 258 -52 242 -43 q 302 -96 289 -69 q 313 -136 313 -117 q 311 -152 313 -143 q 288 -188 306 -176 q 237 -203 267 -203 z "},"":{"ha":421,"x_min":47,"x_max":373,"o":"m 158 2 q 123 4 135 2 q 61 64 76 11 q 57 93 58 74 q 56 185 56 112 q 52 343 54 298 q 47 564 47 469 q 51 945 48 755 q 55 961 51 956 q 72 968 58 966 q 115 971 85 970 q 227 975 161 975 q 283 974 273 975 q 298 971 294 974 q 307 964 302 969 q 310 951 310 959 q 307 941 310 945 q 301 933 304 936 q 292 930 298 931 q 273 930 286 930 l 208 931 q 192 930 195 931 q 189 925 190 929 q 193 864 189 912 q 197 731 197 810 q 198 585 197 675 q 203 415 200 481 q 267 419 258 419 q 279 416 275 419 q 290 397 290 409 q 283 380 290 387 q 273 376 279 377 q 233 371 262 374 q 204 370 222 370 l 222 64 q 224 52 223 53 q 311 60 245 52 q 349 65 340 65 q 358 63 353 65 q 373 41 373 55 q 363 24 373 31 q 323 16 356 21 q 158 2 228 2 m 243 1017 l 238 1017 q 188 1029 220 1021 q 125 1048 155 1038 q 81 1065 94 1059 q 58 1105 58 1082 q 66 1133 58 1119 q 84 1151 79 1149 q 96 1154 89 1153 q 100 1154 97 1154 q 105 1155 102 1155 q 206 1122 116 1155 q 238 1108 223 1116 q 282 1067 273 1090 q 286 1051 286 1055 q 281 1034 286 1042 q 268 1021 275 1025 q 243 1017 260 1017 z "},"":{"ha":421,"x_min":47,"x_max":373,"o":"m 158 2 q 123 4 135 2 q 61 64 76 11 q 57 93 58 74 q 56 185 56 112 q 52 343 54 298 q 47 564 47 469 q 51 945 48 755 q 55 961 51 956 q 72 968 58 966 q 115 971 85 970 q 227 975 161 975 q 283 974 273 975 q 298 971 294 974 q 307 964 302 969 q 310 951 310 959 q 307 941 310 945 q 301 933 304 936 q 292 930 298 931 q 273 930 286 930 l 208 931 q 192 930 195 931 q 189 925 190 929 q 193 864 189 912 q 197 731 197 810 q 198 585 197 675 q 203 415 200 481 q 267 419 258 419 q 279 416 275 419 q 290 397 290 409 q 283 380 290 387 q 273 376 279 377 q 233 371 262 374 q 204 370 222 370 l 222 64 q 224 52 223 53 q 311 60 245 52 q 349 65 340 65 q 358 63 353 65 q 373 41 373 55 q 363 24 373 31 q 323 16 356 21 q 158 2 228 2 m 102 1017 l 99 1017 q 89 1019 93 1017 q 68 1048 68 1030 q 91 1088 68 1069 q 106 1099 98 1094 q 176 1127 123 1109 q 227 1145 210 1140 q 252 1151 243 1151 q 266 1145 258 1151 l 268 1144 q 284 1126 278 1137 q 290 1104 290 1115 l 290 1100 q 272 1075 288 1086 q 217 1050 256 1064 q 102 1017 132 1017 z "},"":{"ha":421,"x_min":47,"x_max":373,"o":"m 158 2 q 123 4 135 2 q 61 64 76 11 q 57 93 58 74 q 56 185 56 112 q 52 343 54 298 q 47 564 47 469 q 51 945 48 755 q 55 961 51 956 q 72 968 58 966 q 115 971 85 970 q 227 975 161 975 q 283 974 273 975 q 298 971 294 974 q 307 964 302 969 q 310 951 310 959 q 307 941 310 945 q 301 933 304 936 q 292 930 298 931 q 273 930 286 930 l 208 931 q 192 930 195 931 q 189 925 190 929 q 193 864 189 912 q 197 731 197 810 q 198 585 197 675 q 203 415 200 481 q 267 419 258 419 q 279 416 275 419 q 290 397 290 409 q 283 380 290 387 q 273 376 279 377 q 233 371 262 374 q 204 370 222 370 l 222 64 q 224 52 223 53 q 311 60 245 52 q 349 65 340 65 q 358 63 353 65 q 373 41 373 55 q 363 24 373 31 q 323 16 356 21 q 158 2 228 2 m 73 1017 l 71 1018 q 56 1029 62 1019 q 50 1053 50 1039 q 94 1127 53 1069 q 132 1173 119 1164 q 154 1185 144 1183 q 170 1185 159 1185 q 186 1184 181 1185 q 198 1181 191 1183 q 231 1157 216 1173 q 264 1111 246 1141 q 291 1053 288 1072 q 276 1028 291 1037 q 265 1025 271 1025 q 217 1055 247 1025 q 188 1080 198 1074 q 170 1087 178 1087 q 155 1084 161 1087 q 119 1051 149 1081 q 82 1019 90 1021 l 73 1017 z "},"":{"ha":421,"x_min":43,"x_max":373,"o":"m 158 2 q 123 4 135 2 q 61 64 76 11 q 57 93 58 74 q 56 185 56 112 q 52 343 54 298 q 47 564 47 469 q 51 945 48 755 q 55 961 51 956 q 72 968 58 966 q 115 971 85 970 q 227 975 161 975 q 283 974 273 975 q 298 971 294 974 q 307 964 302 969 q 310 951 310 959 q 307 941 310 945 q 301 933 304 936 q 292 930 298 931 q 273 930 286 930 l 208 931 q 192 930 195 931 q 189 925 190 929 q 193 864 189 912 q 197 731 197 810 q 198 585 197 675 q 203 415 200 481 q 267 419 258 419 q 279 416 275 419 q 290 397 290 409 q 283 380 290 387 q 273 376 279 377 q 233 371 262 374 q 204 370 222 370 l 222 64 q 224 52 223 53 q 311 60 245 52 q 349 65 340 65 q 358 63 353 65 q 373 41 373 55 q 363 24 373 31 q 323 16 356 21 q 158 2 228 2 m 245 1019 q 229 1022 237 1019 q 191 1066 203 1034 q 186 1088 186 1077 l 189 1114 q 207 1144 192 1130 q 223 1154 215 1152 q 241 1156 231 1156 q 252 1155 248 1156 q 264 1149 256 1154 q 296 1084 296 1125 q 281 1037 296 1055 q 245 1019 267 1019 m 102 1017 q 87 1020 95 1017 q 74 1026 79 1022 q 62 1036 68 1029 q 43 1088 43 1059 q 51 1122 43 1105 q 103 1156 67 1156 q 143 1137 127 1155 q 160 1085 160 1121 q 160 1072 160 1077 q 158 1063 159 1067 q 154 1054 157 1059 q 102 1017 132 1017 z "}}}
